<svg version="1.1" id="Layer_1" xmlns="http://www.w3.org/2000/svg" xmlns:xlink="http://www.w3.org/1999/xlink" x="0px" y="0px"
	 width="100%" viewBox="0 0 1024 1536" enable-background="new 0 0 1024 1536" xml:space="preserve">
<path fill="#FDD3AB" opacity="1.000000" stroke="none" 
	d="
M597.896851,196.996124 
	C597.926270,198.065094 597.955688,199.134048 597.601685,200.643723 
	C595.951904,201.615768 594.685547,202.147110 594.220032,202.342453 
	C595.255920,204.423737 596.105103,206.129761 596.956787,207.896790 
	C596.959290,207.957794 596.837891,207.944717 596.471680,207.973068 
	C595.329041,208.516342 594.226440,208.851425 593.827759,209.574585 
	C590.585266,215.455627 587.427185,221.384796 584.338867,227.348724 
	C581.885010,232.087509 582.552917,233.277313 587.832031,234.025269 
	C593.623413,234.845795 593.950256,236.210022 590.791870,241.108948 
	C589.329773,243.376846 589.303467,246.573318 588.639954,249.352066 
	C588.279724,250.860229 588.031189,252.400604 587.579346,253.879715 
	C587.161316,255.247940 585.811157,256.766541 586.128052,257.852051 
	C587.902954,263.931396 587.303711,269.717804 585.083618,275.533661 
	C584.647949,276.674805 585.109253,278.158386 584.902344,279.734070 
	C577.399780,283.704163 572.095947,283.007660 566.039307,276.282898 
	C557.648804,266.966888 547.529480,261.976929 534.752197,261.622437 
	C532.997314,261.509521 531.497131,261.616974 529.678284,261.764526 
	C528.932068,261.798706 528.504456,261.792755 528.106445,261.407166 
	C529.722839,257.599945 529.170227,255.871841 524.850952,255.956177 
	C515.108643,256.146423 505.359924,255.995071 495.614166,256.044678 
	C494.448547,256.050629 493.284882,256.441040 491.837250,256.704803 
	C492.700073,258.804779 493.305847,260.279144 493.457245,261.789551 
	C479.050323,261.294281 467.200531,265.627686 457.975739,276.521057 
	C456.319916,278.476410 453.914948,280.033905 451.553040,281.111359 
	C443.852997,284.624054 433.931702,279.144470 432.995789,270.829834 
	C431.527069,257.781586 430.313477,244.704468 429.020813,231.636719 
	C428.628143,227.667221 428.339905,223.687515 427.987427,219.713928 
	C427.636292,215.755112 427.264435,211.798141 426.901672,207.840363 
	C422.542084,226.782303 418.647522,245.644547 418.856201,265.048401 
	C413.257050,264.043182 410.318848,259.616913 409.788239,255.028442 
	C408.573639,244.524948 407.871918,233.840851 408.397186,223.301636 
	C408.727203,216.680405 412.930084,211.140274 419.881836,208.945160 
	C422.803131,208.022705 422.842346,206.069199 423.077087,203.596466 
	C424.154694,192.245544 424.830688,180.802185 426.854431,169.609619 
	C429.211395,156.574112 436.360718,145.635132 444.871246,135.674896 
	C457.243011,121.195740 472.950348,111.712845 491.351868,107.595726 
	C514.348633,102.450470 536.486328,105.246368 556.765076,118.196770 
	C558.022888,119.000099 559.330994,119.724792 560.811096,121.135056 
	C561.511902,122.764313 561.759033,124.183510 562.562927,124.656616 
	C570.249268,129.180283 574.884033,136.481674 579.830078,143.467957 
	C581.022095,145.151657 581.239868,147.510406 582.376953,149.250839 
	C584.488647,152.483063 587.013062,155.443237 589.211426,158.623215 
	C589.707031,159.340042 589.928406,160.607239 589.668884,161.429474 
	C587.015625,169.836426 594.115173,174.603729 596.845581,180.987152 
	C596.886230,181.441086 596.926880,181.895035 596.674683,182.977081 
	C595.913269,187.525269 595.444702,191.445358 594.916748,195.862442 
	C595.547546,196.102386 596.722229,196.549255 597.896851,196.996124 
M571.559692,207.821594 
	C573.330078,208.363235 575.100525,208.904877 576.870911,209.446518 
	C576.508179,207.545746 576.493225,205.475479 575.675049,203.796646 
	C574.993469,202.398041 573.479370,201.306870 572.145203,200.340103 
	C561.723083,192.788025 550.165161,190.480621 537.593323,193.045990 
	C535.139709,193.546677 532.000000,193.852997 532.924683,197.277267 
	C533.194275,198.275681 536.632690,199.098221 538.485779,198.878891 
	C550.496033,197.457382 561.788269,198.382339 571.559692,207.821594 
M485.461487,199.502548 
	C486.723511,198.571823 487.985535,197.641083 489.247559,196.710373 
	C488.063782,195.553421 487.007568,193.597916 485.673004,193.384674 
	C481.114410,192.656311 476.426788,192.021896 471.845093,192.296799 
	C461.585876,192.912308 452.316986,196.315094 445.337982,204.271042 
	C444.423767,205.313217 444.735138,207.430481 444.478851,209.049805 
	C446.027618,208.863953 448.133484,209.264130 449.039856,208.402512 
	C459.263397,198.683701 471.288483,196.487152 485.461487,199.502548 
M551.328125,238.020233 
	C557.646912,236.501633 561.006836,232.022919 559.782959,226.750397 
	C558.562988,221.494995 554.218018,218.605331 549.005554,219.582779 
	C544.613708,220.406342 541.895874,223.770523 541.840210,228.452240 
	C541.774780,233.950912 544.256714,236.684891 551.328125,238.020233 
M478.908813,224.842285 
	C475.630127,219.537399 471.048798,217.910065 466.449463,220.416611 
	C462.282257,222.687668 460.760834,227.765137 462.809326,232.564774 
	C464.630920,236.832794 469.082214,238.923050 473.437622,237.555695 
	C478.505920,235.964539 480.600891,231.536118 478.908813,224.842285 
z"/>
<path fill="#A85927" opacity="1.000000" stroke="none" 
	d="
M535.006958,261.842834 
	C547.529480,261.976929 557.648804,266.966888 566.039307,276.282898 
	C572.095947,283.007660 577.399780,283.704163 585.213623,279.553650 
	C591.055664,275.436127 591.427979,269.886353 591.593872,263.878265 
	C591.772400,262.371613 591.804199,261.189087 591.919678,259.578400 
	C593.614807,242.081711 595.226318,225.013214 596.837891,207.944717 
	C596.837891,207.944717 596.959290,207.957794 597.294739,208.110626 
	C598.627319,213.774536 599.947998,219.250198 600.555176,224.803894 
	C601.877808,236.902939 602.836975,249.041718 603.662170,261.442200 
	C603.493347,266.450073 603.606995,271.179932 603.771240,276.225586 
	C603.814026,276.966827 603.806274,277.392334 603.798462,277.817810 
	C602.362244,287.729401 600.088745,297.604584 599.655762,307.559814 
	C598.596130,331.922241 590.138123,352.485565 570.786499,368.748688 
	C569.154724,370.339783 567.960510,371.512482 566.444092,372.804047 
	C563.505432,374.692993 560.921997,376.514221 558.267456,378.224945 
	C538.861206,390.731140 517.898743,395.766266 495.045563,390.956512 
	C480.981171,387.996429 468.594482,381.293152 456.802063,372.761536 
	C455.118378,371.311371 453.619934,370.124084 452.121490,368.936768 
	C449.415070,366.037567 446.724762,363.123108 443.999512,360.241699 
	C430.573700,346.046478 424.014832,328.822968 424.352966,309.652740 
	C424.562378,297.780609 420.702209,286.848999 419.661102,275.368805 
	C419.376678,272.232635 419.217560,269.085083 418.928558,265.495575 
	C418.647522,245.644547 422.542084,226.782303 426.901672,207.840363 
	C427.264435,211.798141 427.636292,215.755112 427.987427,219.713928 
	C428.339905,223.687515 428.628143,227.667221 429.020813,231.636719 
	C430.313477,244.704468 431.527069,257.781586 432.995789,270.829834 
	C433.931702,279.144470 443.852997,284.624054 451.553040,281.111359 
	C453.914948,280.033905 456.319916,278.476410 457.975739,276.521057 
	C467.200531,265.627686 479.050323,261.294281 493.880493,261.895264 
	C500.226105,263.609680 505.697418,266.549561 511.161041,266.535370 
	C516.641846,266.521149 522.114807,263.560638 527.591919,261.893555 
	C527.749756,261.845490 527.915100,261.821869 528.076904,261.786835 
	C528.504456,261.792755 528.932068,261.798706 530.088196,261.857727 
	C532.213501,261.888184 533.610229,261.865509 535.006958,261.842834 
M533.239197,284.916504 
	C518.132446,281.758759 503.039459,281.242035 487.284607,285.247131 
	C485.751801,286.198883 484.219025,287.150665 482.001862,288.102142 
	C476.938629,293.329102 476.013031,299.359100 479.008606,305.841034 
	C482.414551,313.210938 487.881409,318.307953 496.217377,319.452423 
	C497.478973,319.625671 499.068878,318.703003 500.256561,317.911499 
	C508.659637,312.311768 515.667114,312.437805 523.843506,317.957184 
	C525.511169,319.082886 528.249207,319.655640 530.176331,319.184540 
	C538.283875,317.202881 543.195068,311.473999 546.050842,303.933899 
	C548.734558,296.848358 546.589844,291.208710 539.464966,286.434357 
	C537.657104,285.992645 535.849243,285.550934 533.239197,284.916504 
z"/>
<path fill="#FBD2AA" opacity="1.000000" stroke="none" 
	d="
M572.072449,373.440247 
	C570.712524,389.469055 560.851196,399.300842 548.296265,406.570007 
	C536.509521,413.394409 523.324524,416.434509 509.691803,415.872284 
	C491.973236,415.141541 475.090881,411.361359 462.349976,397.686371 
	C456.390869,391.290375 452.313782,383.711945 451.937012,374.175415 
	C451.965881,372.399658 452.031891,371.071442 452.109680,369.339966 
	C453.619934,370.124084 455.118378,371.311371 456.810944,373.125488 
	C457.075409,374.243744 456.987579,374.843536 457.239105,375.210999 
	C464.816437,386.281769 475.137756,394.213135 487.834930,397.775055 
	C510.190674,404.046417 532.155823,403.368225 552.025513,389.405304 
	C558.198669,385.067291 564.077087,380.214966 566.766357,372.685181 
	C567.960510,371.512482 569.154724,370.339783 570.640137,369.048157 
	C571.303162,370.313690 571.674866,371.698090 572.072449,373.440247 
z"/>
<path fill="#FBD2AA" opacity="1.000000" stroke="none" 
	d="
M603.944580,261.164246 
	C602.836975,249.041718 601.877808,236.902939 600.555176,224.803894 
	C599.947998,219.250198 598.627319,213.774536 597.292236,208.049637 
	C596.105103,206.129761 595.255920,204.423737 594.220032,202.342453 
	C594.685547,202.147110 595.951904,201.615768 597.567444,201.043762 
	C598.042969,204.829010 599.046021,207.243805 603.352478,209.070389 
	C610.423767,212.069656 613.878235,218.639420 613.898499,226.340546 
	C613.922485,235.462921 613.519958,244.598770 612.903381,253.701752 
	C612.749756,255.969864 611.637512,258.828186 609.968262,260.210999 
	C605.618225,263.814667 604.412354,268.171143 604.904663,273.449921 
	C605.023926,274.728027 604.620056,276.054901 604.127625,277.588562 
	C603.806274,277.392334 603.814026,276.966827 603.839111,275.768738 
	C603.885864,270.385498 603.915222,265.774872 603.944580,261.164246 
z"/>
<path fill="#FBD2AA" opacity="1.000000" stroke="none" 
	d="
M596.891235,180.577179 
	C594.115173,174.603729 587.015625,169.836426 589.668884,161.429474 
	C589.928406,160.607239 589.707031,159.340042 589.211426,158.623215 
	C587.013062,155.443237 584.488647,152.483063 582.376953,149.250839 
	C581.239868,147.510406 581.022095,145.151657 579.830078,143.467957 
	C574.884033,136.481674 570.249268,129.180283 562.562927,124.656616 
	C561.759033,124.183510 561.511902,122.764313 560.995605,121.420227 
	C566.536316,126.113403 572.628906,130.699051 577.529297,136.323456 
	C588.442932,148.849411 594.461731,163.782639 596.891235,180.577179 
z"/>
<path fill="#FBD2AA" opacity="1.000000" stroke="none" 
	d="
M597.935669,196.538422 
	C596.722229,196.549255 595.547546,196.102386 594.916748,195.862442 
	C595.444702,191.445358 595.913269,187.525269 596.659302,183.318909 
	C597.282654,187.381989 597.628540,191.731339 597.935669,196.538422 
z"/>
<path fill="#FBD2AA" opacity="1.000000" stroke="none" 
	d="
M596.471619,207.973068 
	C595.226318,225.013214 593.614807,242.081711 591.575317,259.654663 
	C591.247375,261.506866 591.347229,262.854645 591.447083,264.202423 
	C591.427979,269.886353 591.055664,275.436127 585.468140,279.303589 
	C585.109253,278.158386 584.647949,276.674805 585.083618,275.533661 
	C587.303711,269.717804 587.902954,263.931396 586.128052,257.852051 
	C585.811157,256.766541 587.161316,255.247940 587.579346,253.879715 
	C588.031189,252.400604 588.279724,250.860229 588.639954,249.352066 
	C589.303467,246.573318 589.329773,243.376846 590.791870,241.108948 
	C593.950256,236.210022 593.623413,234.845795 587.832031,234.025269 
	C582.552917,233.277313 581.885010,232.087509 584.338867,227.348724 
	C587.427185,221.384796 590.585266,215.455627 593.827759,209.574585 
	C594.226440,208.851425 595.329041,208.516342 596.471619,207.973068 
z"/>
<path fill="#59442A" opacity="1.000000" stroke="none" 
	d="
M571.309631,207.578888 
	C561.788269,198.382339 550.496033,197.457382 538.485779,198.878891 
	C536.632690,199.098221 533.194275,198.275681 532.924683,197.277267 
	C532.000000,193.852997 535.139709,193.546677 537.593323,193.045990 
	C550.165161,190.480621 561.723083,192.788025 572.145203,200.340103 
	C573.479370,201.306870 574.993469,202.398041 575.675049,203.796646 
	C576.493225,205.475479 576.508179,207.545746 576.870911,209.446518 
	C575.100525,208.904877 573.330078,208.363235 571.309631,207.578888 
z"/>
<path fill="#59442A" opacity="1.000000" stroke="none" 
	d="
M485.056519,199.426056 
	C471.288483,196.487152 459.263397,198.683701 449.039856,208.402512 
	C448.133484,209.264130 446.027618,208.863953 444.478851,209.049805 
	C444.735138,207.430481 444.423767,205.313217 445.337982,204.271042 
	C452.316986,196.315094 461.585876,192.912308 471.845093,192.296799 
	C476.426788,192.021896 481.114410,192.656311 485.673004,193.384674 
	C487.007568,193.597916 488.063782,195.553421 489.247559,196.710358 
	C487.985535,197.641083 486.723511,198.571823 485.056519,199.426056 
z"/>
<path fill="#59442A" opacity="1.000000" stroke="none" 
	d="
M550.927979,238.021225 
	C544.256714,236.684891 541.774780,233.950912 541.840210,228.452240 
	C541.895874,223.770523 544.613708,220.406342 549.005554,219.582779 
	C554.218018,218.605331 558.562988,221.494995 559.782959,226.750397 
	C561.006836,232.022919 557.646912,236.501633 550.927979,238.021225 
z"/>
<path fill="#E1B489" opacity="1.000000" stroke="none" 
	d="
M528.106445,261.407166 
	C527.915100,261.821869 527.749756,261.845490 527.591919,261.893555 
	C522.114807,263.560638 516.641846,266.521149 511.161041,266.535370 
	C505.697418,266.549561 500.226105,263.609680 494.334900,261.859253 
	C493.305847,260.279144 492.700073,258.804779 491.837250,256.704803 
	C493.284882,256.441040 494.448547,256.050629 495.614166,256.044678 
	C505.359924,255.995071 515.108643,256.146423 524.850952,255.956177 
	C529.170227,255.871841 529.722839,257.599945 528.106445,261.407166 
z"/>
<path fill="#59442A" opacity="1.000000" stroke="none" 
	d="
M479.003418,225.216492 
	C480.600891,231.536118 478.505920,235.964539 473.437622,237.555695 
	C469.082214,238.923050 464.630920,236.832794 462.809326,232.564774 
	C460.760834,227.765137 462.282257,222.687668 466.449463,220.416611 
	C471.048798,217.910065 475.630127,219.537399 479.003418,225.216492 
z"/>
<path fill="#E1B489" opacity="1.000000" stroke="none" 
	d="
M534.752197,261.622437 
	C533.610229,261.865509 532.213501,261.888184 530.406860,261.817657 
	C531.497131,261.616974 532.997314,261.509521 534.752197,261.622437 
z"/>
<path fill="#E1B489" opacity="1.000000" stroke="none" 
	d="
M566.444092,372.804047 
	C564.077087,380.214966 558.198669,385.067291 552.025513,389.405304 
	C532.155823,403.368225 510.190674,404.046417 487.834930,397.775055 
	C475.137756,394.213135 464.816437,386.281769 457.239105,375.210999 
	C456.987579,374.843536 457.075409,374.243744 456.996216,373.388306 
	C468.594482,381.293152 480.981171,387.996429 495.045563,390.956512 
	C517.898743,395.766266 538.861206,390.731140 558.267456,378.224945 
	C560.921997,376.514221 563.505432,374.692993 566.444092,372.804047 
z"/>
<path fill="#FBD2AA" opacity="1.000000" stroke="none" 
	d="
M539.943115,286.934265 
	C546.589844,291.208710 548.734558,296.848358 546.050842,303.933899 
	C543.195068,311.473999 538.283875,317.202881 530.176331,319.184540 
	C528.249207,319.655640 525.511169,319.082886 523.843506,317.957184 
	C515.667114,312.437805 508.659637,312.311768 500.256561,317.911499 
	C499.068878,318.703003 497.478973,319.625671 496.217377,319.452423 
	C487.881409,318.307953 482.414551,313.210938 479.008606,305.841034 
	C476.013031,299.359100 476.938629,293.329102 482.439026,288.485138 
	C484.480164,295.244965 486.861969,301.147797 492.782440,305.311890 
	C502.401886,314.539276 520.000488,314.213501 529.288330,304.877777 
	C533.049744,298.815857 536.496460,292.875061 539.943115,286.934265 
z"/>
<path fill="#463629" opacity="1.000000" stroke="none" 
	d="
M492.679932,304.956818 
	C486.861969,301.147797 484.480164,295.244965 482.781219,288.485291 
	C484.219025,287.150665 485.751801,286.198883 487.715240,285.534973 
	C489.417511,289.874908 492.670807,290.766846 496.332214,290.807434 
	C505.953430,290.914154 515.584717,290.710236 525.193420,291.094696 
	C529.969849,291.285828 532.711487,289.502350 534.041382,285.109253 
	C535.849243,285.550934 537.657104,285.992645 539.704041,286.684326 
	C536.496460,292.875061 533.049744,298.815857 529.025879,304.662201 
	C524.410828,300.889069 519.799622,299.257751 514.265930,300.108795 
	C511.907501,300.471558 509.392334,300.459564 507.036957,300.075165 
	C500.382080,298.988983 495.275513,300.600739 492.679932,304.956818 
z"/>
<path fill="#FEFEFE" opacity="1.000000" stroke="none" 
	d="
M533.640259,285.012878 
	C532.711487,289.502350 529.969849,291.285828 525.193420,291.094696 
	C515.584717,290.710236 505.953430,290.914154 496.332214,290.807434 
	C492.670807,290.766846 489.417511,289.874908 488.057648,285.487122 
	C503.039459,281.242035 518.132446,281.758759 533.640259,285.012878 
z"/>
<path fill="#59442A" opacity="1.000000" stroke="none" 
	d="
M603.662109,261.442200 
	C603.915222,265.774872 603.885864,270.385498 603.788574,275.452972 
	C603.606995,271.179932 603.493347,266.450073 603.662109,261.442200 
z"/>
<path fill="#FDD3AB" opacity="1.000000" stroke="none" 
	d="
M591.593872,263.878265 
	C591.347229,262.854645 591.247375,261.506866 591.491760,260.082825 
	C591.804199,261.189087 591.772400,262.371613 591.593872,263.878265 
z"/>
<path fill="#EC5959" opacity="1.000000" stroke="none" 
	d="
M492.782440,305.311890 
	C495.275513,300.600739 500.382080,298.988983 507.036957,300.075165 
	C509.392334,300.459564 511.907501,300.471558 514.265930,300.108795 
	C519.799622,299.257751 524.410828,300.889069 528.711121,304.783325 
	C520.000488,314.213501 502.401886,314.539276 492.782440,305.311890 
z"/>
</svg>