<svg version="1.1" id="Layer_1" xmlns="http://www.w3.org/2000/svg" xmlns:xlink="http://www.w3.org/1999/xlink" x="0px" y="0px"
	 width="100%" viewBox="0 0 1024 1536" enable-background="new 0 0 1024 1536" xml:space="preserve">
<path fill="#D5D5D5" opacity="1.000000" stroke="none" 
	d="
M301.131531,552.074402 
	C302.518616,540.929260 303.907715,529.784363 305.292297,518.638916 
	C306.860504,506.015167 308.348877,493.381012 310.006927,480.769104 
	C313.081116,457.385406 319.166168,435.247467 336.596741,417.925781 
	C345.007599,409.567352 355.091064,403.621216 366.194885,400.093903 
	C389.711884,392.623352 413.485840,385.961578 437.584351,379.371460 
	C440.267670,387.449829 442.520996,395.124847 444.933289,403.341339 
	C444.291656,403.690918 442.879456,404.512573 441.422699,405.245758 
	C432.374847,409.799561 423.275726,414.253448 414.272491,418.893524 
	C402.174438,425.128601 391.608826,433.369080 383.037537,443.970337 
	C371.699799,457.993225 367.789581,474.274689 369.024780,492.412354 
	C372.676117,513.221252 376.318573,533.628601 379.961029,554.035950 
	C378.649353,559.459473 377.337677,564.882996 375.487335,570.669617 
	C365.119141,569.791138 355.038788,569.524780 345.519928,567.075806 
	C331.796234,563.545105 318.480316,558.429504 304.995422,553.995117 
	C305.000427,554.000000 305.012238,554.008118 304.826233,553.745239 
	C303.470642,553.013062 302.301086,552.543701 301.131531,552.074402 
z"/>
<path fill="#D5D5D5" opacity="1.000000" stroke="none" 
	d="
M585.127136,378.862762 
	C594.432800,381.247833 603.859253,383.245361 613.018372,386.100616 
	C630.739136,391.624847 648.699707,396.673889 665.851501,403.661255 
	C692.439758,414.492950 705.599121,436.751190 710.819946,463.693176 
	C714.591553,483.156433 716.365784,503.006409 719.041809,522.682434 
	C720.335083,532.191528 721.653564,541.697327 722.583984,551.651917 
	C719.666931,553.308594 717.157715,554.588989 714.581421,555.716125 
	C693.658203,564.870178 671.928711,570.585876 648.967468,571.002808 
	C647.535583,565.225952 646.103699,559.449036 644.409302,552.997864 
	C647.481995,533.209656 650.817261,514.095764 654.420776,494.673279 
	C657.483398,471.227600 651.117371,450.973755 633.604248,435.528717 
	C624.644470,427.626953 613.966980,421.518036 603.568604,415.451172 
	C595.179626,410.556702 586.044800,406.940460 578.377136,403.297028 
	C580.724792,394.798828 582.925964,386.830780 585.127136,378.862762 
z"/>
<path fill="#ADADAE" opacity="1.000000" stroke="none" 
	d="
M379.963257,554.439392 
	C376.318573,533.628601 372.676117,513.221252 369.392883,492.406433 
	C370.489075,492.007263 371.226044,492.015564 371.975525,492.396973 
	C372.697388,494.419983 373.226532,496.178131 374.143219,497.703430 
	C386.413513,518.120056 397.242310,539.263855 404.708069,561.915344 
	C413.340576,588.106750 416.023743,615.389465 416.739929,642.718811 
	C417.392883,667.635559 416.279114,692.598633 415.939911,717.541199 
	C415.930878,718.206055 415.885925,718.871033 415.839661,719.534668 
	C414.549377,738.040955 413.256805,756.547119 411.960876,775.259888 
	C411.957123,775.466492 411.932983,775.879028 411.665100,776.201050 
	C411.259644,780.361328 411.122070,784.199646 410.984497,788.037964 
	C402.288818,785.758301 393.593140,783.478638 384.531372,781.178467 
	C383.473999,778.950012 382.016876,776.672791 382.209198,774.544678 
	C384.272583,751.710754 387.026215,728.932556 388.738556,706.075256 
	C390.813904,678.372253 392.291626,650.600098 389.137634,622.856018 
	C386.887451,603.062439 384.445709,583.290222 381.981049,563.521973 
	C381.615601,560.590759 380.652222,557.734009 379.963257,554.439392 
z"/>
<path fill="#ADADAE" opacity="1.000000" stroke="none" 
	d="
M654.152466,494.981903 
	C650.817261,514.095764 647.481995,533.209656 644.159668,552.725342 
	C641.193420,572.119751 637.434021,591.030457 635.429443,610.125305 
	C632.826965,634.915100 631.780212,659.849548 633.769409,684.803162 
	C634.969849,699.862732 635.790527,714.954590 637.139709,729.999817 
	C638.428162,744.367859 640.260437,758.686584 641.651978,773.046570 
	C641.892029,775.523621 641.125610,778.098145 640.479492,780.804810 
	C631.343933,783.283020 622.552917,785.584045 613.389771,787.442688 
	C612.317444,776.250732 611.619629,765.500916 610.916504,754.751587 
	C609.628967,735.069885 607.648987,715.403015 607.230896,695.702942 
	C606.754761,673.269348 607.224670,650.787781 608.150940,628.362915 
	C608.702820,615.004089 610.160278,601.576294 612.541443,588.420349 
	C618.697632,554.407104 633.653442,523.941101 652.321899,494.970093 
	C653.175415,494.977936 653.663940,494.979919 654.152466,494.981903 
z"/>
<path fill="#BEBDBC" opacity="1.000000" stroke="none" 
	d="
M654.420776,494.673279 
	C653.663940,494.979919 653.175415,494.977936 652.330933,494.505615 
	C651.980042,492.370178 651.916382,490.701599 652.000427,489.040497 
	C653.360413,462.150177 641.319214,442.102814 619.162170,428.351624 
	C605.820679,420.071594 591.269409,413.721161 577.117737,406.798065 
	C575.767517,406.137573 573.012451,407.070587 571.566040,408.146423 
	C568.388550,410.509857 565.929565,413.887695 562.653442,416.062347 
	C544.499939,428.112518 524.594482,432.952942 502.756226,431.153656 
	C483.100647,429.534210 466.091003,422.404602 451.856201,408.986664 
	C449.069183,406.359589 447.410187,406.127289 444.377808,407.778412 
	C430.561676,415.301270 416.369995,422.180328 402.870453,430.225647 
	C389.977356,437.909546 380.285645,449.079407 376.192291,463.697693 
	C373.638123,472.819305 373.297150,482.560638 371.963013,492.023865 
	C371.226044,492.015564 370.489075,492.007263 369.384003,492.004883 
	C367.789581,474.274689 371.699799,457.993225 383.037537,443.970337 
	C391.608826,433.369080 402.174438,425.128601 414.272491,418.893524 
	C423.275726,414.253448 432.374847,409.799561 441.422699,405.245758 
	C442.879456,404.512573 444.291656,403.690918 444.933289,403.341339 
	C442.520996,395.124847 440.267670,387.449829 437.988068,379.362213 
	C442.351837,377.229126 446.741913,375.508636 451.553101,374.205505 
	C452.313782,383.711945 456.390869,391.290375 462.349976,397.686371 
	C475.090881,411.361359 491.973236,415.141541 509.691803,415.872284 
	C523.324524,416.434509 536.509521,413.394409 548.296265,406.570007 
	C560.851196,399.300842 570.712524,389.469055 572.098267,373.797943 
	C576.306824,375.289795 580.515320,376.781616 584.925537,378.568115 
	C582.925964,386.830780 580.724792,394.798828 578.377136,403.297028 
	C586.044800,406.940460 595.179626,410.556702 603.568604,415.451172 
	C613.966980,421.518036 624.644470,427.626953 633.604248,435.528717 
	C651.117371,450.973755 657.483398,471.227600 654.420776,494.673279 
z"/>
<path fill="#D5D5D5" opacity="1.000000" stroke="none" 
	d="
M722.989380,568.589722 
	C718.737000,570.104614 714.428223,571.028809 710.286682,572.442871 
	C695.930664,577.344482 681.432739,581.504272 666.264404,583.140747 
	C662.202576,583.578979 658.274048,585.253723 654.078247,586.679688 
	C652.268738,582.587341 650.665344,578.176270 649.511108,573.367310 
	C653.580566,572.642639 657.261108,572.625244 660.809998,571.932800 
	C672.943481,569.565247 685.200867,567.568787 697.079590,564.246094 
	C705.956543,561.763062 714.322021,557.451782 722.915283,553.954590 
	C723.941101,558.704407 725.438354,563.451050 722.989380,568.589722 
z"/>
<path fill="#D5D5D5" opacity="1.000000" stroke="none" 
	d="
M371.228760,584.835449 
	C358.899109,583.000122 346.766266,581.582092 334.941498,578.836914 
	C325.902710,576.738525 317.259888,572.942688 308.426941,569.943176 
	C306.268341,569.210205 304.054810,568.639038 301.475433,567.997925 
	C301.072479,563.579468 301.060638,559.156555 301.501526,554.341980 
	C302.973572,553.969543 303.992920,553.988831 305.012238,554.008118 
	C305.012238,554.008118 305.000427,554.000000 305.052795,554.341797 
	C306.707642,555.770264 308.188995,557.130371 309.931061,557.901978 
	C330.679749,567.092102 352.520966,571.654724 375.087646,573.070984 
	C373.911102,576.941284 372.734589,580.811584 371.228760,584.835449 
z"/>
<path fill="#BEBDBC" opacity="1.000000" stroke="none" 
	d="
M722.944580,553.638123 
	C714.322021,557.451782 705.956543,561.763062 697.079590,564.246094 
	C685.200867,567.568787 672.943481,569.565247 660.809998,571.932800 
	C657.261108,572.625244 653.580566,572.642639 649.525085,572.959106 
	C649.048462,572.517334 649.007080,572.085815 648.966553,571.328613 
	C671.928711,570.585876 693.658203,564.870178 714.581421,555.716125 
	C717.157715,554.588989 719.666931,553.308594 722.559448,552.076782 
	C722.932373,552.476746 722.953125,552.899231 722.944580,553.638123 
z"/>
<path fill="#BEBDBC" opacity="1.000000" stroke="none" 
	d="
M375.296082,572.882935 
	C352.520966,571.654724 330.679749,567.092102 309.931061,557.901978 
	C308.188995,557.130371 306.707642,555.770264 305.047760,554.336914 
	C318.480316,558.429504 331.796234,563.545105 345.519928,567.075806 
	C355.038788,569.524780 365.119141,569.791138 375.387146,571.061157 
	C375.718597,571.624695 375.611542,572.159851 375.296082,572.882935 
z"/>
<path fill="#BEBDBC" opacity="1.000000" stroke="none" 
	d="
M304.826233,553.745239 
	C303.992920,553.988831 302.973572,553.969543 301.578857,553.924438 
	C301.161621,553.493469 301.119781,553.088318 301.104736,552.378784 
	C302.301086,552.543701 303.470642,553.013062 304.826233,553.745239 
z"/>
<path fill="#D5D5D5" opacity="1.000000" stroke="none" 
	d="
M371.975525,492.396973 
	C373.297150,482.560638 373.638123,472.819305 376.192291,463.697693 
	C380.285645,449.079407 389.977356,437.909546 402.870453,430.225647 
	C416.369995,422.180328 430.561676,415.301270 444.377808,407.778412 
	C447.410187,406.127289 449.069183,406.359589 451.856201,408.986664 
	C466.091003,422.404602 483.100647,429.534210 502.756226,431.153656 
	C524.594482,432.952942 544.499939,428.112518 562.653442,416.062347 
	C565.929565,413.887695 568.388550,410.509857 571.566040,408.146423 
	C573.012451,407.070587 575.767517,406.137573 577.117737,406.798065 
	C591.269409,413.721161 605.820679,420.071594 619.162170,428.351624 
	C641.319214,442.102814 653.360413,462.150177 652.000427,489.040497 
	C651.916382,490.701599 651.980042,492.370178 651.965942,494.499756 
	C633.653442,523.941101 618.697632,554.407104 612.541443,588.420349 
	C610.160278,601.576294 608.702820,615.004089 608.150940,628.362915 
	C607.224670,650.787781 606.754761,673.269348 607.230896,695.702942 
	C607.648987,715.403015 609.628967,735.069885 610.916504,754.751587 
	C611.619629,765.500916 612.317444,776.250732 612.989624,787.441528 
	C582.649475,794.078247 551.908264,795.628357 521.100891,795.885742 
	C484.466461,796.191956 447.880066,795.236511 411.356079,788.176758 
	C411.122070,784.199646 411.259644,780.361328 412.086700,776.242798 
	C418.175720,776.694641 423.558655,777.596375 428.977875,778.127319 
	C446.242950,779.819153 463.505768,782.485657 480.798401,782.730225 
	C509.671112,783.138672 538.613159,784.377319 567.446594,781.043579 
	C578.773254,779.733948 590.165161,778.997314 601.510559,777.835632 
	C604.400940,777.539734 607.227112,776.617249 610.082825,775.982727 
	C608.755493,775.093994 607.602234,775.001770 606.467468,775.107483 
	C581.954041,777.392395 557.484192,780.637817 532.918701,781.724121 
	C510.711029,782.706238 488.392853,781.549988 466.136719,780.889465 
	C457.747894,780.640442 449.397552,779.124512 441.027496,778.206299 
	C431.341125,777.143738 421.652344,776.103333 411.964600,775.053284 
	C413.256805,756.547119 414.549377,738.040955 415.839661,719.534668 
	C415.885925,718.871033 415.930878,718.206055 415.939911,717.541199 
	C416.279114,692.598633 417.392883,667.635559 416.739929,642.718811 
	C416.023743,615.389465 413.340576,588.106750 404.708069,561.915344 
	C397.242310,539.263855 386.413513,518.120056 374.143219,497.703430 
	C373.226532,496.178131 372.697388,494.419983 371.975525,492.396973 
z"/>
<path fill="#BEBDBC" opacity="1.000000" stroke="none" 
	d="
M411.960876,775.259888 
	C421.652344,776.103333 431.341125,777.143738 441.027496,778.206299 
	C449.397552,779.124512 457.747894,780.640442 466.136719,780.889465 
	C488.392853,781.549988 510.711029,782.706238 532.918701,781.724121 
	C557.484192,780.637817 581.954041,777.392395 606.467468,775.107483 
	C607.602234,775.001770 608.755493,775.093994 610.082825,775.982727 
	C607.227112,776.617249 604.400940,777.539734 601.510559,777.835632 
	C590.165161,778.997314 578.773254,779.733948 567.446594,781.043579 
	C538.613159,784.377319 509.671112,783.138672 480.798401,782.730225 
	C463.505768,782.485657 446.242950,779.819153 428.977875,778.127319 
	C423.558655,777.596375 418.175720,776.694641 412.354584,775.920837 
	C411.932983,775.879028 411.957123,775.466492 411.960876,775.259888 
z"/>
</svg>