<svg version="1.1" id="Layer_1" xmlns="http://www.w3.org/2000/svg" xmlns:xlink="http://www.w3.org/1999/xlink" x="0px" y="0px"
	 width="100%" viewBox="0 0 1024 1536" enable-background="new 0 0 1024 1536" xml:space="preserve">
<path fill="#FDD3AB" opacity="1.000000" stroke="none" 
	d="
M321.137451,930.484375 
	C319.796997,930.241821 318.303711,930.301208 317.138947,929.711548 
	C298.621063,920.338257 289.085785,904.001404 286.439758,884.593262 
	C284.425781,869.821106 285.947113,854.517578 286.455444,839.469360 
	C286.762054,830.392578 288.867889,821.353882 288.893005,812.294617 
	C288.956604,789.354553 288.315155,766.412354 287.930847,743.471436 
	C287.644165,726.355530 286.905334,709.234924 287.126892,692.126282 
	C287.343781,675.377380 289.833923,658.850647 293.529938,642.456787 
	C295.485321,633.783630 296.116943,624.784668 296.970703,615.896667 
	C298.475281,600.233582 299.692169,584.542847 301.448029,568.428589 
	C304.054810,568.639038 306.268341,569.210205 308.426941,569.943176 
	C317.259888,572.942688 325.902710,576.738525 334.941498,578.836914 
	C346.766266,581.582092 358.899109,583.000122 370.899475,584.989075 
	C366.109589,604.628601 361.034790,624.205383 356.687622,643.942383 
	C355.206696,650.666016 355.935974,657.844971 354.993195,664.725098 
	C352.838867,680.446899 350.871552,696.233093 347.732635,711.771790 
	C343.505707,732.696350 337.711823,753.308533 333.641663,774.259033 
	C331.348450,786.063110 330.920593,798.262695 330.196777,810.316833 
	C330.000000,813.593262 331.020721,817.468872 332.779785,820.248657 
	C341.884216,834.635925 345.972748,850.511047 348.039825,867.155212 
	C348.936005,874.371399 350.555023,881.494995 351.674530,888.687378 
	C352.308197,892.758240 352.491333,896.888489 347.506470,898.642456 
	C343.280304,900.129395 338.487976,897.888184 336.671265,893.027710 
	C334.235901,886.512024 332.552856,879.714172 330.092957,873.209106 
	C329.221558,870.904724 327.018951,869.103760 325.424103,867.072937 
	C323.963318,869.452820 321.446411,871.747437 321.246094,874.229065 
	C320.713013,880.834106 320.690979,887.569763 321.369141,894.160522 
	C322.217621,902.406616 325.942932,909.546692 331.196564,916.085327 
	C333.812469,919.341064 335.980835,923.471497 336.819031,927.523315 
	C338.173645,934.071533 333.846436,937.301514 327.606598,934.932556 
	C325.548981,934.151428 323.833099,932.470215 321.897827,930.552917 
	C321.537720,929.625061 321.240753,929.344910 320.865540,928.826050 
	C320.524872,928.391602 320.262451,928.195801 319.961914,927.656616 
	C319.499115,926.616333 319.199310,925.789673 318.630737,925.242065 
	C311.654572,918.522766 307.275635,910.288879 304.495728,901.124451 
	C302.721039,895.273682 301.018463,889.401062 299.283539,883.538208 
	C298.221710,885.391235 298.094421,887.145752 298.490753,888.772644 
	C299.501068,892.919312 301.087402,896.948792 301.825256,901.134094 
	C303.412201,910.135742 308.562958,917.210205 313.890900,924.143494 
	C315.268036,925.935608 317.928864,926.741211 320.077393,928.388916 
	C320.227905,929.031921 320.301025,929.286011 320.403503,929.539551 
	C320.432892,929.538940 320.514923,929.612122 320.698212,929.810425 
	C320.966797,930.167236 321.052124,930.325806 321.137451,930.484375 
z"/>
<path fill="#FDD3AB" opacity="1.000000" stroke="none" 
	d="
M701.989136,932.094971 
	C699.940308,933.129333 697.984253,934.637756 695.816223,935.061523 
	C693.747498,935.465881 690.536499,935.534973 689.487122,934.319214 
	C688.012939,932.611145 687.017944,929.226929 687.699585,927.188904 
	C689.034607,923.197266 691.199524,919.261536 693.850037,915.970398 
	C704.470459,902.783142 706.274048,887.858948 703.036133,871.925598 
	C702.666443,870.106018 700.450012,868.661804 699.089966,867.043579 
	C697.724548,868.540466 695.818726,869.817383 695.102112,871.578308 
	C693.421448,875.708435 692.527649,880.155090 690.905762,884.313965 
	C689.348877,888.306152 687.552124,892.262634 685.353333,895.930542 
	C683.098816,899.691467 679.373108,899.851807 675.664551,898.262329 
	C672.110962,896.739319 671.821289,893.707947 672.384338,890.287354 
	C674.642517,876.568665 676.110596,862.671265 679.269409,849.167053 
	C681.320312,840.399475 684.783691,831.586609 689.446228,823.906250 
	C694.592163,815.429626 694.529297,806.805969 693.699829,797.910828 
	C690.934998,768.261963 682.566406,739.725464 676.049683,710.814941 
	C672.299622,694.177856 668.950562,677.446228 668.876038,660.226929 
	C668.797546,642.086548 663.149048,624.981689 658.466064,607.705383 
	C656.690125,601.153625 655.416016,594.465881 654.098755,587.100464 
	C658.274048,585.253723 662.202576,583.578979 666.264404,583.140747 
	C681.432739,581.504272 695.930664,577.344482 710.286682,572.442871 
	C714.428223,571.028809 718.737000,570.104614 722.969116,568.955811 
	C723.998840,580.838806 724.790894,592.748535 726.119385,604.598022 
	C727.721191,618.884583 729.842773,633.112122 731.620728,647.380005 
	C733.482239,662.318420 735.846313,677.233643 736.796265,692.234619 
	C737.668152,706.001526 737.150085,719.872986 736.887451,733.691589 
	C736.385376,760.112427 735.193848,786.528198 735.179077,812.946594 
	C735.172546,824.646667 737.064392,836.382874 738.569092,848.041382 
	C741.518555,870.894592 739.283203,892.893066 726.857300,912.716919 
	C721.739380,920.881836 713.892151,926.870117 704.155518,930.920654 
	C702.998047,931.405396 702.493591,931.750183 701.989136,932.094971 
M706.561890,927.916809 
	C706.885986,927.605896 707.210083,927.294983 707.534180,926.984070 
	C707.320984,926.804993 707.107849,926.625854 706.894714,926.446716 
	C706.600220,926.967468 706.305725,927.488159 705.720764,928.099976 
	C705.811096,928.063049 705.901367,928.026123 706.561890,927.916809 
M724.955872,884.777283 
	C724.364075,886.507263 723.527466,888.195068 723.220337,889.974182 
	C721.296509,901.118225 717.467834,911.422485 710.401855,920.400024 
	C709.486633,921.562927 708.951782,923.025146 708.240784,924.348694 
	C721.613159,913.631104 724.523132,898.443665 726.230896,882.657715 
	C725.860168,883.128967 725.489441,883.600220 724.955872,884.777283 
z"/>
<path fill="#E1B489" opacity="1.000000" stroke="none" 
	d="
M702.298828,932.045898 
	C702.493591,931.750183 702.998047,931.405396 703.828125,931.036133 
	C703.638672,931.340088 703.123596,931.668457 702.298828,932.045898 
z"/>
<path fill="#E1B489" opacity="1.000000" stroke="none" 
	d="
M320.943787,929.064758 
	C321.240753,929.344910 321.537720,929.625061 321.902710,930.216858 
	C321.970764,930.528442 321.558990,930.436768 321.348206,930.460571 
	C321.052124,930.325806 320.966797,930.167236 320.756104,929.764893 
	C320.630707,929.521057 320.656982,929.374817 320.728455,929.297119 
	C320.799927,929.219360 320.943787,929.064758 320.943787,929.064758 
z"/>
<path fill="#E1B489" opacity="1.000000" stroke="none" 
	d="
M319.961914,927.656616 
	C317.928864,926.741211 315.268036,925.935608 313.890900,924.143494 
	C308.562958,917.210205 303.412201,910.135742 301.825256,901.134094 
	C301.087402,896.948792 299.501068,892.919312 298.490753,888.772644 
	C298.094421,887.145752 298.221710,885.391235 299.283539,883.538208 
	C301.018463,889.401062 302.721039,895.273682 304.495728,901.124451 
	C307.275635,910.288879 311.654572,918.522766 318.630737,925.242065 
	C319.199310,925.789673 319.499115,926.616333 319.961914,927.656616 
z"/>
<path fill="#E1B489" opacity="1.000000" stroke="none" 
	d="
M320.077393,928.388916 
	C320.262451,928.195801 320.524872,928.391602 320.865540,928.826050 
	C320.943787,929.064758 320.799927,929.219360 320.650024,929.320068 
	C320.500122,929.420715 320.374115,929.540161 320.374115,929.540161 
	C320.301025,929.286011 320.227905,929.031921 320.077393,928.388916 
z"/>
<path fill="#FEFEFE" opacity="1.000000" stroke="none" 
	d="
M320.403503,929.539551 
	C320.374115,929.540161 320.500122,929.420715 320.578552,929.397766 
	C320.656982,929.374817 320.630707,929.521057 320.572815,929.566589 
	C320.514923,929.612122 320.432892,929.538940 320.403503,929.539551 
z"/>
<path fill="#E1B489" opacity="1.000000" stroke="none" 
	d="
M725.037292,884.424377 
	C725.489441,883.600220 725.860168,883.128967 726.230896,882.657715 
	C724.523132,898.443665 721.613159,913.631104 708.240784,924.348694 
	C708.951782,923.025146 709.486633,921.562927 710.401855,920.400024 
	C717.467834,911.422485 721.296509,901.118225 723.220337,889.974182 
	C723.527466,888.195068 724.364075,886.507263 725.037292,884.424377 
z"/>
<path fill="#E1B489" opacity="1.000000" stroke="none" 
	d="
M706.011169,928.008911 
	C706.305725,927.488159 706.600220,926.967468 706.894714,926.446716 
	C707.107849,926.625854 707.320984,926.804993 707.534180,926.984070 
	C707.210083,927.294983 706.885986,927.605896 706.280945,927.958374 
	C706.000000,928.000000 706.011169,928.008911 706.011169,928.008911 
z"/>
<path fill="#E1B489" opacity="1.000000" stroke="none" 
	d="
M705.995850,927.994629 
	C705.901367,928.026123 705.811096,928.063049 705.865967,928.054443 
	C706.011169,928.008911 706.000000,928.000000 705.995850,927.994629 
z"/>
</svg>