<svg version="1.1" id="Layer_1" xmlns="http://www.w3.org/2000/svg" xmlns:xlink="http://www.w3.org/1999/xlink" x="0px" y="0px"
	 width="100%" viewBox="0 0 1024 1536" enable-background="new 0 0 1024 1536" xml:space="preserve">
<path fill="#323232" opacity="1.000000" stroke="none" 
	d="
M640.134888,780.981934 
	C642.794067,800.396118 645.937073,819.759155 647.997192,839.236633 
	C650.968872,867.333130 653.446899,895.490540 655.586914,923.663635 
	C657.438843,948.044189 658.457458,972.487122 660.027588,996.890686 
	C660.258301,1000.476807 658.913635,1002.054260 655.695923,1002.793762 
	C651.978516,1003.648132 648.297302,1004.660706 643.844116,1005.762695 
	C619.360596,1010.316528 595.483093,1012.821838 571.325012,1011.214417 
	C562.284302,1010.612854 553.270874,1009.600830 544.245056,1008.776001 
	C538.929871,1007.519409 533.614685,1006.262817 528.217346,1004.986755 
	C523.015381,964.983032 517.829224,925.100281 512.643066,885.217529 
	C512.154175,885.241760 511.665222,885.266052 511.176331,885.290283 
	C507.785461,910.240540 504.338867,935.183472 501.025543,960.144043 
	C499.166504,974.148743 497.601257,988.192871 495.670593,1002.187073 
	C495.487640,1003.513184 493.846985,1005.248413 492.517700,1005.687439 
	C489.064209,1006.828186 485.407013,1007.352173 481.175110,1007.783081 
	C473.728027,1008.028442 466.934540,1008.588440 460.151764,1009.257019 
	C459.732819,1009.298401 459.398254,1010.195679 458.693634,1010.814636 
	C457.897339,1010.919434 457.431854,1010.904419 456.659973,1010.612671 
	C443.310852,1009.889954 430.229553,1009.915161 417.237396,1008.851440 
	C406.478302,1007.970581 395.835541,1005.721741 385.113739,1004.284363 
	C383.142792,1004.020142 381.039978,1004.739380 378.998047,1005.004761 
	C374.190460,1003.908752 369.382874,1002.812744 364.127441,1001.614624 
	C364.820648,988.275085 365.398254,975.525574 366.165649,962.787537 
	C367.246765,944.842712 367.931732,926.851929 369.739990,908.977356 
	C373.727386,869.562439 378.303040,830.207092 382.668976,790.830750 
	C382.998596,787.858093 383.568237,784.912048 384.461884,781.576355 
	C393.593140,783.478638 402.288818,785.758301 411.356079,788.176758 
	C447.880066,795.236511 484.466461,796.191956 521.100891,795.885742 
	C551.908264,795.628357 582.649475,794.078247 613.361755,787.883911 
	C622.552917,785.584045 631.343933,783.283020 640.134888,780.981934 
z"/>
<path fill="#262626" opacity="1.000000" stroke="none"
	d="
M456.659973,1010.612671 
	C439.034393,1012.392273 421.170532,1011.759705 403.367615,1009.187744 
	C395.890411,1008.107483 388.411530,1007.038879 380.516571,1005.993408 
	C379.869812,1005.778503 379.639893,1005.535095 379.204010,1005.148193 
	C381.039978,1004.739380 383.142792,1004.020142 385.113739,1004.284363 
	C395.835541,1005.721741 406.478302,1007.970581 417.237396,1008.851440 
	C430.229553,1009.915161 443.310852,1009.889954 456.659973,1010.612671 
z"/>
<path fill="#262626" opacity="1.000000" stroke="none" 
	d="
M479.923920,1008.591553 
	C473.123718,1009.422424 466.516571,1010.098938 459.466919,1010.735107 
	C459.398254,1010.195679 459.732819,1009.298401 460.151764,1009.257019 
	C466.934540,1008.588440 473.728027,1008.028442 480.764618,1007.740479 
	C480.742554,1008.237732 480.444824,1008.371094 479.923920,1008.591553 
z"/>
</svg>