<svg version="1.1" id="Layer_1" xmlns="http://www.w3.org/2000/svg" xmlns:xlink="http://www.w3.org/1999/xlink" x="0px" y="0px"
	 width="100%" viewBox="0 0 1024 1536" enable-background="new 0 0 1024 1536" xml:space="preserve">
<path fill="#FDD3AB" opacity="1.000000" stroke="none" 
	d="
M479.098389,1011.134338 
	C478.789948,1013.493835 478.481506,1015.853271 477.841522,1018.782471 
	C477.361572,1019.957092 477.213135,1020.562134 477.064697,1021.167114 
	C474.612610,1034.595703 472.010925,1047.999146 469.755524,1061.460693 
	C467.936951,1072.314941 466.536499,1083.239502 464.618042,1094.721558 
	C461.392242,1096.548950 458.564667,1097.980103 455.594482,1098.993042 
	C442.963928,1103.300781 429.863953,1103.251343 416.733398,1103.110962 
	C403.404205,1102.968384 390.735779,1100.350830 378.952454,1093.953491 
	C379.629547,1089.716553 380.120667,1085.439941 381.017426,1081.250000 
	C384.144348,1066.640015 383.313660,1051.968506 382.156891,1037.247314 
	C381.495880,1028.835327 381.321045,1020.385010 381.229004,1011.252686 
	C382.898529,1009.733765 384.320251,1008.141907 385.624481,1008.232910 
	C390.373627,1008.564514 395.067871,1009.604675 399.811157,1010.112976 
	C412.583527,1011.481445 425.354858,1013.506348 438.156372,1013.757935 
	C449.130829,1013.973511 460.143066,1012.055420 471.146271,1011.177063 
	C473.781311,1010.966736 476.446838,1011.138428 479.098389,1011.134338 
z"/>
<path fill="#FDD3AA" opacity="1.000000" stroke="none" 
	d="
M643.081421,1009.038330 
	C642.378418,1024.733521 640.949646,1040.440552 641.204651,1056.120117 
	C641.404785,1068.423218 643.687378,1080.692505 644.734985,1093.552490 
	C635.159546,1099.968384 624.633667,1102.124146 614.086609,1102.806885 
	C595.293762,1104.023193 576.525146,1103.507080 559.038208,1094.908447 
	C556.893982,1081.370361 554.903870,1067.805420 552.562134,1054.301636 
	C550.217468,1040.781250 547.521545,1027.321899 545.262451,1013.196960 
	C546.749207,1012.000732 547.992004,1010.889648 549.150940,1010.971130 
	C562.002319,1011.874207 574.829773,1013.151001 587.688477,1013.901550 
	C592.433716,1014.178467 597.255127,1013.443420 602.022705,1012.974976 
	C609.737244,1012.216919 617.428833,1011.226013 625.143494,1010.469666 
	C631.112183,1009.884521 637.101379,1009.507812 643.081421,1009.038330 
z"/>
<path fill="#FBD2AA" opacity="1.000000" stroke="none" 
	d="
M643.309143,1008.796448 
	C637.101379,1009.507812 631.112183,1009.884521 625.143494,1010.469666 
	C617.428833,1011.226013 609.737244,1012.216919 602.022705,1012.974976 
	C597.255127,1013.443420 592.433716,1014.178467 587.688477,1013.901550 
	C574.829773,1013.151001 562.002319,1011.874207 549.150940,1010.971130 
	C547.992004,1010.889648 546.749207,1012.000732 545.278198,1012.776917 
	C544.723083,1011.840088 544.435120,1010.684387 544.196045,1009.152344 
	C553.270874,1009.600830 562.284302,1010.612854 571.325012,1011.214417 
	C595.483093,1012.821838 619.360596,1010.316528 643.495789,1005.933960 
	C643.781494,1006.816223 643.659180,1007.685364 643.309143,1008.796448 
z"/>
<path fill="#FBD2AA" opacity="1.000000" stroke="none" 
	d="
M479.317383,1010.892700 
	C476.446838,1011.138428 473.781311,1010.966736 471.146271,1011.177063 
	C460.143066,1012.055420 449.130829,1013.973511 438.156372,1013.757935 
	C425.354858,1013.506348 412.583527,1011.481445 399.811157,1010.112976 
	C395.067871,1009.604675 390.373627,1008.564514 385.624481,1008.232910 
	C384.320251,1008.141907 382.898529,1009.733765 381.244720,1010.789978 
	C380.673767,1009.613159 380.388794,1008.199768 380.518616,1006.375671 
	C388.411530,1007.038879 395.890411,1008.107483 403.367615,1009.187744 
	C421.170532,1011.759705 439.034393,1012.392273 456.966370,1010.889343 
	C457.431854,1010.904419 457.897339,1010.919434 459.136108,1010.854980 
	C466.516571,1010.098938 473.123718,1009.422424 479.730896,1008.745850 
	C479.666077,1009.380920 479.601257,1010.016052 479.317383,1010.892700 
z"/>
<path fill="#FBD2AA" opacity="1.000000" stroke="none" 
	d="
M477.332672,1021.083130 
	C477.213135,1020.562134 477.361572,1019.957092 477.769714,1019.167969 
	C477.886505,1019.655579 477.743591,1020.327393 477.332672,1021.083130 
z"/>
</svg>