<svg version="1.1" id="Layer_1" xmlns="http://www.w3.org/2000/svg" xmlns:xlink="http://www.w3.org/1999/xlink" x="0px" y="0px"
	 width="100%" viewBox="0 0 1024 1536" enable-background="new 0 0 1024 1536" xml:space="preserve">
<path fill="#7C7C7C" opacity="1.000000" stroke="none"
	d="
M341.055847,1409.303711
	C348.049744,1410.900269 354.865417,1413.809814 361.927979,1414.654419
	C376.440460,1416.389648 391.059906,1416.406372 405.454803,1412.977661
	C411.431549,1411.554077 415.948273,1408.052490 419.049133,1402.853760
	C422.470367,1397.118042 427.534363,1393.918457 433.671509,1391.567383
	C438.703278,1389.639526 443.295013,1386.563232 448.415039,1383.928955
	C447.419830,1387.384766 446.091461,1390.907837 444.107666,1394.661377
	C438.987793,1397.238403 434.523346,1399.584961 430.058899,1401.931519
	C424.970306,1401.735840 422.148834,1404.977661 419.338745,1408.604980
	C416.850769,1411.816284 413.859436,1414.637817 410.420441,1417.837646
	C405.641174,1419.037964 401.531769,1420.032227 397.422363,1421.026367
	C394.235626,1421.371948 391.048889,1421.717529 386.966858,1422.062134
	C382.292419,1422.048828 378.513306,1422.036499 374.734161,1422.024170
	C370.738556,1421.891357 366.742920,1421.758545 361.956482,1421.636963
	C357.387085,1421.044922 353.608521,1420.441406 349.829956,1419.837891
	C345.126465,1417.981689 341.694153,1415.018921 341.055847,1409.303711
z"/>
<path fill="#7C7C7C" opacity="1.000000" stroke="none"
	d="
M574.297852,1383.189941
	C580.223450,1385.926758 586.222412,1388.747803 591.771912,1392.275879
	C596.144775,1395.056030 600.915466,1398.033813 603.810730,1402.125854
	C608.390686,1408.598755 614.004639,1412.559692 621.602356,1413.728149
	C638.807800,1416.373901 656.035583,1416.872192 673.128113,1412.941162
	C676.286316,1412.214966 679.194031,1410.399536 682.564575,1409.015381
	C683.377686,1414.948853 679.198242,1417.303833 674.000916,1419.554932
	C669.559082,1420.468750 665.809875,1421.230957 662.060730,1421.993164
	C658.116150,1422.245605 654.171509,1422.498169 649.540100,1422.715332
	C644.892883,1422.453857 640.932434,1422.227783 636.972046,1422.001709
	C633.648499,1421.709473 630.324890,1421.417236 626.204285,1421.010986
	C621.245911,1419.933350 617.084534,1418.969971 612.923218,1418.006470
	C610.151978,1414.978516 607.597168,1411.708130 604.550293,1408.989014
	C601.331116,1406.116455 597.643188,1403.769165 593.603882,1400.901367
	C588.644775,1398.570557 584.241821,1396.530884 579.838928,1394.491089
	C575.516907,1392.117065 574.604004,1387.974365 574.297852,1383.189941
z"/>
<path fill="#252525" opacity="1.000000" stroke="none"
	d="
M583.520508,1332.117432
	C585.181946,1335.584351 585.843323,1339.875854 588.215271,1342.760864 
	C590.073120,1345.020752 593.994141,1346.400513 597.099609,1346.600708 
	C600.547791,1346.822876 602.693359,1344.314819 603.508606,1340.380493 
	C604.549133,1335.359009 608.184021,1332.410278 613.248108,1330.895752 
	C621.132446,1328.537842 628.795532,1327.923584 636.714539,1331.935303 
	C642.840576,1335.352661 643.943909,1341.316406 645.113770,1347.487061 
	C642.795532,1347.767700 640.812073,1347.719604 638.863831,1347.432495 
	C629.626404,1346.071411 620.727600,1347.178101 612.273987,1351.161865 
	C611.341370,1351.601440 610.722473,1352.981323 610.303528,1354.059326 
	C610.185791,1354.362305 611.290039,1355.597656 611.849548,1355.608887 
	C612.952332,1355.630981 614.078979,1355.135254 615.173523,1354.784424 
	C625.347107,1351.523438 635.535645,1348.960205 646.085266,1353.377563 
	C646.564148,1353.578125 647.516235,1352.648560 648.247925,1352.245361 
	C649.886780,1354.913086 651.525635,1357.580933 652.866272,1360.637573 
	C641.662537,1357.633545 631.033569,1358.606567 620.742981,1363.307129 
	C619.428833,1363.907471 618.612366,1365.597534 617.565308,1366.782837 
	C619.033508,1366.902954 620.581848,1367.387573 621.956909,1367.084717 
	C631.797974,1364.918213 641.584900,1362.633911 651.749023,1365.282104 
	C652.650391,1365.516846 653.974609,1364.128540 655.102417,1363.494019 
	C662.251160,1371.673828 669.301270,1379.942749 676.581604,1388.003662 
	C681.836182,1393.821533 685.128601,1400.108521 682.696655,1408.642334 
	C679.194031,1410.399536 676.286316,1412.214966 673.128113,1412.941162 
	C656.035583,1416.872192 638.807800,1416.373901 621.602356,1413.728149 
	C614.004639,1412.559692 608.390686,1408.598755 603.810730,1402.125854 
	C600.915466,1398.033813 596.144775,1395.056030 591.771912,1392.275879 
	C586.222412,1388.747803 580.223450,1385.926758 574.418335,1382.800781 
	C574.188599,1365.422852 575.943970,1348.392578 583.520508,1332.117432 
M627.137573,1375.441650 
	C626.598694,1376.575684 626.059814,1377.709717 625.520935,1378.843750 
	C626.712891,1378.930176 627.992859,1379.344360 629.082764,1379.051147 
	C637.927368,1376.673584 646.766357,1374.736206 655.991516,1376.886597 
	C657.201477,1377.168823 658.604919,1376.620728 659.918701,1376.457153 
	C660.015503,1375.812256 660.112305,1375.167236 660.209106,1374.522339 
	C657.417786,1373.679688 654.561890,1371.959473 651.847290,1372.159424 
	C643.821533,1372.750244 635.851685,1374.099731 627.137573,1375.441650 
z"/>
<path fill="#262626" opacity="1.000000" stroke="none" 
	d="
M386.809753,1326.348877 
	C387.277435,1326.680542 387.737396,1327.349854 387.974060,1328.090576 
	C388.213135,1328.838867 388.230835,1329.657959 388.274231,1329.956177 
	C394.999023,1329.956177 401.472534,1329.192505 407.670685,1330.171631 
	C413.822296,1331.143555 419.074371,1334.221680 420.229523,1341.698608 
	C420.939209,1346.292114 428.892731,1348.242554 433.042023,1345.366333 
	C437.188965,1342.491455 438.714386,1338.201050 439.886536,1333.241089 
	C442.127686,1339.388672 445.035400,1345.749390 446.105804,1352.405762 
	C447.726166,1362.482422 448.067627,1372.764771 448.517181,1383.477905 
	C443.295013,1386.563232 438.703278,1389.639526 433.671509,1391.567383 
	C427.534363,1393.918457 422.470367,1397.118042 419.049133,1402.853760 
	C415.948273,1408.052490 411.431549,1411.554077 405.454803,1412.977661 
	C391.059906,1416.406372 376.440460,1416.389648 361.927979,1414.654419 
	C354.865417,1413.809814 348.049744,1410.900269 341.122314,1408.925415 
	C339.455017,1401.380249 341.539001,1394.997437 346.657013,1389.257446 
	C354.024231,1380.994995 361.130341,1372.499756 368.788971,1364.241333 
	C370.185974,1364.851685 371.348816,1365.943970 372.066711,1365.704102 
	C382.375366,1362.261108 392.262268,1364.548584 402.176605,1367.479614 
	C403.230255,1367.791260 404.637299,1366.907471 405.880432,1366.578125 
	C405.250336,1365.560913 404.826202,1363.907715 403.957703,1363.626465 
	C396.657532,1361.261597 389.584137,1357.589233 381.428833,1359.830322 
	C377.974701,1360.779541 374.333893,1361.049561 370.777924,1361.628174 
	C372.292389,1358.528931 373.806824,1355.429688 375.950928,1352.281494 
	C377.685455,1352.436523 378.797241,1352.847046 379.894012,1352.810181 
	C386.263947,1352.596313 392.667816,1351.737793 398.985260,1352.176514 
	C403.456207,1352.487183 407.808594,1354.504883 412.313934,1355.788818 
	C414.210175,1351.909790 411.365204,1351.014893 408.897522,1350.107056 
	C398.630035,1346.329590 388.205078,1346.070068 377.675049,1348.932251 
	C379.994476,1343.055542 380.616333,1336.414917 386.027557,1331.921875 
	C387.013611,1331.103149 386.516541,1328.498169 386.809753,1326.348877 
M372.842712,1376.079834 
	C380.315674,1377.240845 387.781799,1378.450073 395.268982,1379.510620 
	C396.380737,1379.667969 397.591797,1379.124268 398.756927,1378.904907 
	C398.053375,1377.853027 397.578247,1376.218872 396.610870,1375.839478 
	C387.157806,1372.130859 377.420563,1370.649902 367.396149,1373.142212 
	C366.112213,1373.461304 365.047882,1374.663574 363.881866,1375.456909 
	C364.072998,1375.990234 364.264160,1376.523682 364.455292,1377.057007 
	C366.952911,1376.772461 369.450500,1376.487915 372.842712,1376.079834 
z"/>
<path fill="#484848" opacity="1.000000" stroke="none" 
	d="
M655.081421,1363.226929 
	C653.974609,1364.128540 652.650391,1365.516846 651.749023,1365.282104 
	C641.584900,1362.633911 631.797974,1364.918213 621.956909,1367.084717 
	C620.581848,1367.387573 619.033508,1366.902954 617.565308,1366.782837 
	C618.612366,1365.597534 619.428833,1363.907471 620.742981,1363.307129 
	C631.033569,1358.606567 641.662537,1357.633545 653.002869,1360.969727 
	C653.978577,1361.595337 654.519470,1362.277588 655.081421,1363.226929 
z"/>
<path fill="#484848" opacity="1.000000" stroke="none" 
	d="
M648.215210,1351.956543 
	C647.516235,1352.648560 646.564148,1353.578125 646.085266,1353.377563 
	C635.535645,1348.960205 625.347107,1351.523438 615.173523,1354.784424 
	C614.078979,1355.135254 612.952332,1355.630981 611.849548,1355.608887 
	C611.290039,1355.597656 610.185791,1354.362305 610.303528,1354.059326 
	C610.722473,1352.981323 611.341370,1351.601440 612.273987,1351.161865 
	C620.727600,1347.178101 629.626404,1346.071411 638.863831,1347.432495 
	C640.812073,1347.719604 642.795532,1347.767700 645.247925,1347.868408 
	C646.549500,1349.096558 647.365967,1350.382202 648.215210,1351.956543 
z"/>
<path fill="#484848" opacity="1.000000" stroke="none" 
	d="
M370.791595,1361.685913 
	C374.333893,1361.049561 377.974701,1360.779541 381.428833,1359.830322 
	C389.584137,1357.589233 396.657532,1361.261597 403.957703,1363.626465 
	C404.826202,1363.907715 405.250336,1365.560913 405.880432,1366.578125 
	C404.637299,1366.907471 403.230255,1367.791260 402.176605,1367.479614 
	C392.262268,1364.548584 382.375366,1362.261108 372.066711,1365.704102 
	C371.348816,1365.943970 370.185974,1364.851685 369.064941,1364.033447 
	C368.784729,1363.447266 368.819519,1363.230591 369.511749,1362.908691 
	C370.316132,1362.453003 370.612946,1362.126587 370.909790,1361.800171 
	C370.909821,1361.800171 370.805298,1361.743652 370.791595,1361.685913 
z"/>
<path fill="#484848" opacity="1.000000" stroke="none" 
	d="
M377.411438,1349.080322 
	C388.205078,1346.070068 398.630035,1346.329590 408.897522,1350.107056 
	C411.365204,1351.014893 414.210175,1351.909790 412.313934,1355.788818 
	C407.808594,1354.504883 403.456207,1352.487183 398.985260,1352.176514 
	C392.667816,1351.737793 386.263947,1352.596313 379.894012,1352.810181 
	C378.797241,1352.847046 377.685455,1352.436523 376.216431,1352.071411 
	C376.284088,1351.016235 376.715942,1350.122437 377.411438,1349.080322 
z"/>
<path fill="#262626" opacity="1.000000" stroke="none" 
	d="
M579.614990,1394.854980 
	C584.241821,1396.530884 588.644775,1398.570557 593.265381,1400.931396 
	C593.093140,1406.023682 590.423340,1408.006104 585.780945,1407.454956 
	C581.213928,1406.912598 579.048279,1404.265869 579.204834,1399.692017 
	C579.255859,1398.200439 579.328369,1396.709839 579.614990,1394.854980 
z"/>
<path fill="#262626" opacity="1.000000" stroke="none" 
	d="
M430.047363,1402.304443 
	C434.523346,1399.584961 438.987793,1397.238403 443.832092,1394.824707 
	C444.240173,1396.406128 444.170135,1398.063599 444.315948,1399.701660 
	C444.681610,1403.809448 442.901306,1406.511230 438.915344,1407.282104 
	C434.922913,1408.054321 431.329468,1407.415527 430.047363,1402.304443 
z"/>
<path fill="#262626" opacity="1.000000" stroke="none" 
	d="
M612.871948,1418.434692 
	C617.084534,1418.969971 621.245911,1419.933350 625.807617,1420.958496 
	C625.547119,1426.875122 623.681702,1428.919189 619.258179,1428.635498 
	C614.547607,1428.333374 612.927002,1425.873169 612.871948,1418.434692 
z"/>
<path fill="#262626" opacity="1.000000" stroke="none" 
	d="
M397.479950,1421.435913 
	C401.531769,1420.032227 405.641174,1419.037964 410.174622,1418.031738 
	C410.521973,1419.174805 410.418579,1420.328613 410.373322,1421.484985 
	C410.197266,1425.982056 407.962463,1428.723877 403.401794,1428.831665 
	C398.813782,1428.940186 397.674408,1425.707397 397.479950,1421.435913 
z"/>
<path fill="#323232" opacity="1.000000" stroke="none" 
	d="
M374.720337,1422.449463 
	C378.513306,1422.036499 382.292419,1422.048828 386.534454,1422.030518 
	C386.722534,1423.405151 386.291229,1424.800537 386.202972,1426.217285 
	C385.960144,1430.114746 383.431763,1431.084961 380.167877,1431.041504 
	C376.801117,1430.996826 375.205383,1428.960449 374.815826,1425.813965 
	C374.695801,1424.844604 374.738373,1423.855103 374.720337,1422.449463 
z"/>
<path fill="#262626" opacity="1.000000" stroke="none" 
	d="
M636.971924,1422.408936 
	C640.932434,1422.227783 644.892883,1422.453857 649.218262,1422.950195 
	C649.474060,1427.401978 648.186890,1430.871094 643.310608,1430.858887 
	C638.136841,1430.845947 636.941345,1427.194580 636.971924,1422.408936 
z"/>
<path fill="#262626" opacity="1.000000" stroke="none" 
	d="
M662.050598,1422.389648 
	C665.809875,1421.230957 669.559082,1420.468750 673.747925,1419.760742 
	C673.577820,1422.461792 673.806763,1425.920410 672.189209,1427.591553 
	C668.472412,1431.431396 662.982605,1428.609985 662.050598,1422.389648 
z"/>
<path fill="#262626" opacity="1.000000" stroke="none" 
	d="
M349.827209,1420.278076 
	C353.608521,1420.441406 357.387085,1421.044922 361.512970,1421.815186 
	C361.591888,1427.338623 359.994720,1429.158447 355.726013,1428.970825 
	C351.026520,1428.764526 349.822113,1427.080200 349.827209,1420.278076 
z"/>
<path fill="#262626" opacity="1.000000" stroke="none" 
	d="
M370.524292,1361.691162 
	C370.612946,1362.126587 370.316132,1362.453003 369.680542,1362.864746 
	C369.607452,1362.494019 369.873108,1362.038208 370.524292,1361.691162 
z"/>
<path fill="#484848" opacity="1.000000" stroke="none" 
	d="
M627.498779,1375.297119 
	C635.851685,1374.099731 643.821533,1372.750244 651.847290,1372.159424 
	C654.561890,1371.959473 657.417786,1373.679688 660.209106,1374.522339 
	C660.112305,1375.167236 660.015503,1375.812256 659.918701,1376.457153 
	C658.604919,1376.620728 657.201477,1377.168823 655.991516,1376.886597 
	C646.766357,1374.736206 637.927368,1376.673584 629.082764,1379.051147 
	C627.992859,1379.344360 626.712891,1378.930176 625.520996,1378.843750 
	C626.059814,1377.709717 626.598694,1376.575684 627.498779,1375.297119 
z"/>
<path fill="#484848" opacity="1.000000" stroke="none" 
	d="
M372.395416,1376.141602 
	C369.450500,1376.487915 366.952911,1376.772461 364.455292,1377.057007 
	C364.264160,1376.523682 364.072998,1375.990234 363.881866,1375.456909 
	C365.047882,1374.663574 366.112213,1373.461304 367.396149,1373.142212 
	C377.420563,1370.649902 387.157806,1372.130859 396.610870,1375.839478 
	C397.578247,1376.218872 398.053375,1377.853027 398.756897,1378.904907 
	C397.591797,1379.124268 396.380737,1379.667969 395.268982,1379.510620 
	C387.781799,1378.450073 380.315674,1377.240845 372.395416,1376.141602 
z"/>
</svg>