<svg xmlns:inkscape="http://www.inkscape.org/namespaces/inkscape" version="1.1" id="Layer_1" xmlns="http://www.w3.org/2000/svg" xmlns:xlink="http://www.w3.org/1999/xlink" x="0px" y="0px"
	 width="100%" viewBox="0 0 1024 1536" enable-background="new 0 0 1024 1536" xml:space="preserve">
<g id="fundo" inkscape:label="Fundo" inkscape:groupmode="layer">
<path fill="#FEFEFE" opacity="1.000000" stroke="none" 
	d="
M1.000000,576.000000 
	C1.000000,384.000000 1.000000,192.500000 1.000000,1.000000 
	C342.333344,1.000000 683.666687,1.000000 1025.000000,1.000000 
	C1025.000000,513.000000 1025.000000,1025.000000 1025.000000,1537.000000 
	C683.666687,1537.000000 342.333344,1537.000000 1.000000,1537.000000 
	C1.000000,1216.833374 1.000000,896.666687 1.000000,576.000000 
M370.138763,1361.582275 
	C369.873108,1362.038208 369.607452,1362.494019 369.004211,1363.037964 
	C368.819519,1363.230591 368.784729,1363.447266 368.347900,1364.103882 
	C361.130341,1372.499756 354.024231,1380.994995 346.657013,1389.257446 
	C341.539001,1394.997437 339.455017,1401.380249 340.989349,1409.681885 
	C341.694153,1415.018921 345.126465,1417.981689 349.824432,1420.718018 
	C349.822113,1427.080200 351.026520,1428.764526 355.726013,1428.970825 
	C359.994720,1429.158447 361.591888,1427.338623 362.747314,1421.625610 
	C366.742920,1421.758545 370.738556,1421.891357 374.706512,1422.874756 
	C374.738373,1423.855103 374.695801,1424.844604 374.815826,1425.813965 
	C375.205383,1428.960449 376.801117,1430.996826 380.167877,1431.041504 
	C383.431763,1431.084961 385.960144,1430.114746 386.202972,1426.217285 
	C386.291229,1424.800537 386.722534,1423.405151 387.862152,1422.063110 
	C391.048889,1421.717529 394.235626,1421.371948 397.537506,1421.845337 
	C397.674408,1425.707397 398.813782,1428.940186 403.401794,1428.831665 
	C407.962463,1428.723877 410.197266,1425.982056 410.373322,1421.484985 
	C410.418579,1420.328613 410.521973,1419.174805 411.090302,1417.631470 
	C413.859436,1414.637817 416.850769,1411.816284 419.338745,1408.604980 
	C422.148834,1404.977661 424.970306,1401.735840 430.035828,1402.677246 
	C431.329468,1407.415527 434.922913,1408.054321 438.915344,1407.282104 
	C442.901306,1406.511230 444.681610,1403.809448 444.315948,1399.701660 
	C444.170135,1398.063599 444.240173,1396.406128 444.763092,1394.430908 
	C446.091461,1390.907837 447.419830,1387.384766 448.952515,1382.959717 
	C448.067627,1372.764771 447.726166,1362.482422 446.105804,1352.405762 
	C445.035400,1345.749390 442.127686,1339.388672 439.841705,1331.987549 
	C439.772949,1330.330444 439.622253,1328.672241 439.647461,1327.016479 
	C440.218384,1289.491211 446.509125,1252.704224 454.530060,1216.203613 
	C461.641357,1183.842285 467.685760,1151.428589 466.024048,1117.127686 
	C465.661407,1109.775146 465.298798,1102.422485 464.950592,1094.132812 
	C466.536499,1083.239502 467.936951,1072.314941 469.755524,1061.460693 
	C472.010925,1047.999146 474.612610,1034.595703 477.600647,1020.999146 
	C477.743591,1020.327393 477.886505,1019.655579 478.173065,1018.212769 
	C478.481506,1015.853271 478.789948,1013.493835 479.536407,1010.651123 
	C479.601257,1010.016052 479.666077,1009.380920 480.116943,1008.437256 
	C480.444824,1008.371094 480.742554,1008.237732 481.831116,1008.122253 
	C485.407013,1007.352173 489.064209,1006.828186 492.517700,1005.687439 
	C493.846985,1005.248413 495.487640,1003.513184 495.670593,1002.187073 
	C497.601257,988.192871 499.166504,974.148743 501.025543,960.144043 
	C504.338867,935.183472 507.785461,910.240540 511.176331,885.290283 
	C511.665222,885.266052 512.154175,885.241760 512.643066,885.217529 
	C517.829224,925.100281 523.015381,964.983032 528.217346,1004.986755 
	C533.614685,1006.262817 538.929871,1007.519409 544.147095,1009.528687 
	C544.435120,1010.684387 544.723083,1011.840088 544.979553,1013.835876 
	C547.521545,1027.321899 550.217468,1040.781250 552.562134,1054.301636 
	C554.903870,1067.805420 556.893982,1081.370361 558.843994,1095.738281 
	C558.563232,1103.159546 558.282532,1110.580688 557.945190,1118.937500 
	C558.144226,1130.570679 557.305176,1142.336426 558.769714,1153.807983 
	C561.396057,1174.380249 565.374084,1194.781372 568.848694,1215.243530 
	C573.296326,1241.436157 577.804749,1267.618652 582.209900,1294.720215 
	C582.430664,1296.826416 582.651428,1298.932739 582.727661,1301.697998 
	C582.824890,1302.132568 582.922058,1302.567139 582.906128,1303.920044 
	C583.241394,1308.293701 583.576660,1312.667236 583.738708,1317.953003 
	C583.753601,1322.601685 583.768433,1327.250366 583.257629,1332.335815 
	C575.943970,1348.392578 574.188599,1365.422852 574.177429,1383.579224 
	C574.604004,1387.974365 575.516907,1392.117065 579.391113,1395.218750 
	C579.328369,1396.709839 579.255859,1398.200439 579.204834,1399.692017 
	C579.048279,1404.265869 581.213928,1406.912598 585.780945,1407.454956 
	C590.423340,1408.006104 593.093140,1406.023682 594.160095,1401.192383 
	C597.643188,1403.769165 601.331116,1406.116455 604.550293,1408.989014 
	C607.597168,1411.708130 610.151978,1414.978516 612.820740,1418.862915 
	C612.927002,1425.873169 614.547607,1428.333374 619.258179,1428.635498 
	C623.681702,1428.919189 625.547119,1426.875122 627.001343,1421.125122 
	C630.324890,1421.417236 633.648499,1421.709473 636.971741,1422.816040 
	C636.941345,1427.194580 638.136841,1430.845947 643.310608,1430.858887 
	C648.186890,1430.871094 649.474060,1427.401978 650.226929,1422.750610 
	C654.171509,1422.498169 658.116150,1422.245605 662.040466,1422.786255 
	C662.982605,1428.609985 668.472412,1431.431396 672.189209,1427.591553 
	C673.806763,1425.920410 673.577820,1422.461792 674.693604,1419.403320 
	C679.198242,1417.303833 683.377686,1414.948853 683.176025,1408.197754 
	C685.128601,1400.108521 681.836182,1393.821533 676.581604,1388.003662 
	C669.301270,1379.942749 662.251160,1371.673828 655.060364,1362.959839 
	C654.519470,1362.277588 653.978577,1361.595337 653.164490,1360.248657 
	C651.525635,1357.580933 649.886780,1354.913086 648.182434,1351.667847 
	C647.365967,1350.382202 646.549500,1349.096558 645.464844,1347.048462 
	C643.943909,1341.316406 642.840576,1335.352661 637.091614,1331.032349 
	C635.686401,1288.142456 641.390015,1245.735962 645.670410,1203.225220 
	C647.084717,1189.179321 647.875610,1175.070801 649.114258,1160.066895 
	C649.071777,1151.045654 649.029236,1142.024536 649.129761,1132.083862 
	C648.720215,1126.761841 648.310608,1121.439697 647.978516,1115.199951 
	C647.014282,1108.070679 646.049988,1100.941528 645.044800,1092.976807 
	C643.687378,1080.692505 641.404785,1068.423218 641.204651,1056.120117 
	C640.949646,1040.440552 642.378418,1024.733521 643.536865,1008.554504 
	C643.659180,1007.685364 643.781494,1006.816223 644.600403,1005.604553 
	C648.297302,1004.660706 651.978516,1003.648132 655.695923,1002.793762 
	C658.913635,1002.054260 660.258301,1000.476807 660.027588,996.890686 
	C658.457458,972.487122 657.438843,948.044189 655.586914,923.663635 
	C653.446899,895.490540 650.968872,867.333130 647.997192,839.236633 
	C645.937073,819.759155 642.794067,800.396118 640.824097,780.627686 
	C641.125610,778.098145 641.892029,775.523621 641.651978,773.046570 
	C640.260437,758.686584 638.428162,744.367859 637.139709,729.999817 
	C635.790527,714.954590 634.969849,699.862732 633.769409,684.803162 
	C631.780212,659.849548 632.826965,634.915100 635.429443,610.125305 
	C637.434021,591.030457 641.193420,572.119751 644.671814,553.672180 
	C646.103699,559.449036 647.535583,565.225952 648.965698,571.654358 
	C649.007080,572.085815 649.048462,572.517334 649.061951,573.765137 
	C650.665344,578.176270 652.268738,582.587341 653.913147,587.840088 
	C655.416016,594.465881 656.690125,601.153625 658.466064,607.705383 
	C663.149048,624.981689 668.797546,642.086548 668.876038,660.226929 
	C668.950562,677.446228 672.299622,694.177856 676.049683,710.814941 
	C682.566406,739.725464 690.934998,768.261963 693.699829,797.910828 
	C694.529297,806.805969 694.592163,815.429626 689.446228,823.906250 
	C684.783691,831.586609 681.320312,840.399475 679.269409,849.167053 
	C676.110596,862.671265 674.642517,876.568665 672.384338,890.287354 
	C671.821289,893.707947 672.110962,896.739319 675.664551,898.262329 
	C679.373108,899.851807 683.098816,899.691467 685.353333,895.930542 
	C687.552124,892.262634 689.348877,888.306152 690.905762,884.313965 
	C692.527649,880.155090 693.421448,875.708435 695.102112,871.578308 
	C695.818726,869.817383 697.724548,868.540466 699.089905,867.043518 
	C700.450012,868.661804 702.666443,870.106018 703.036133,871.925598 
	C706.274048,887.858948 704.470459,902.783142 693.850037,915.970398 
	C691.199524,919.261536 689.034607,923.197266 687.699585,927.188904 
	C687.017944,929.226929 688.012939,932.611145 689.487122,934.319214 
	C690.536499,935.534973 693.747498,935.465881 695.816223,935.061523 
	C697.984253,934.637756 699.940308,933.129333 702.608521,931.996826 
	C703.123596,931.668457 703.638672,931.340088 704.808533,930.780823 
	C713.892151,926.870117 721.739380,920.881836 726.857300,912.716919 
	C739.283203,892.893066 741.518555,870.894592 738.569092,848.041382 
	C737.064392,836.382874 735.172546,824.646667 735.179077,812.946594 
	C735.193848,786.528198 736.385376,760.112427 736.887451,733.691589 
	C737.150085,719.872986 737.668152,706.001526 736.796265,692.234619 
	C735.846313,677.233643 733.482239,662.318420 731.620728,647.380005 
	C729.842773,633.112122 727.721191,618.884583 726.119385,604.598022 
	C724.790894,592.748535 723.998840,580.838806 723.009644,568.223694 
	C725.438354,563.451050 723.941101,558.704407 722.973938,553.321655 
	C722.953125,552.899231 722.932373,552.476746 722.960632,551.204590 
	C721.653564,541.697327 720.335083,532.191528 719.041809,522.682434 
	C716.365784,503.006409 714.591553,483.156433 710.819946,463.693176 
	C705.599121,436.751190 692.439758,414.492950 665.851501,403.661255 
	C648.699707,396.673889 630.739136,391.624847 613.018372,386.100616 
	C603.859253,383.245361 594.432800,381.247833 584.723877,378.273468 
	C580.515320,376.781616 576.306824,375.289795 572.046631,373.082520 
	C571.674866,371.698090 571.303162,370.313690 571.224060,368.330292 
	C590.138123,352.485565 598.596130,331.922241 599.655762,307.559814 
	C600.088745,297.604584 602.362244,287.729401 604.456726,277.359344 
	C604.620056,276.054901 605.023926,274.728027 604.904663,273.449921 
	C604.412354,268.171143 605.618225,263.814667 609.968262,260.210999 
	C611.637512,258.828186 612.749756,255.969864 612.903381,253.701752 
	C613.519958,244.598770 613.922485,235.462921 613.898499,226.340546 
	C613.878235,218.639420 610.423767,212.069656 603.352478,209.070389 
	C599.046021,207.243805 598.042969,204.829010 597.985107,200.203018 
	C597.955688,199.134048 597.926270,198.065094 597.974426,196.080688 
	C597.628540,191.731339 597.282654,187.381989 596.967590,182.348969 
	C596.926880,181.895035 596.886230,181.441086 596.936829,180.167206 
	C594.461731,163.782639 588.442932,148.849411 577.529297,136.323456 
	C572.628906,130.699051 566.536316,126.113403 560.615723,120.486053 
	C559.330994,119.724792 558.022888,119.000099 556.765076,118.196770 
	C536.486328,105.246368 514.348633,102.450470 491.351868,107.595726 
	C472.950348,111.712845 457.243011,121.195740 444.871246,135.674896 
	C436.360718,145.635132 429.211395,156.574112 426.854431,169.609619 
	C424.830688,180.802185 424.154694,192.245544 423.077087,203.596466 
	C422.842346,206.069199 422.803131,208.022705 419.881836,208.945160 
	C412.930084,211.140274 408.727203,216.680405 408.397186,223.301636 
	C407.871918,233.840851 408.573639,244.524948 409.788239,255.028442 
	C410.318848,259.616913 413.257050,264.043182 419.000916,265.942749 
	C419.217560,269.085083 419.376678,272.232635 419.661102,275.368805 
	C420.702209,286.848999 424.562378,297.780609 424.352966,309.652740 
	C424.014832,328.822968 430.573700,346.046478 443.999512,360.241699 
	C446.724762,363.123108 449.415070,366.037567 452.097900,369.743195 
	C452.031891,371.071442 451.965881,372.399658 451.131989,373.788147 
	C446.741913,375.508636 442.351837,377.229126 437.154388,378.968109 
	C413.485840,385.961578 389.711884,392.623352 366.194885,400.093903 
	C355.091064,403.621216 345.007599,409.567352 336.596741,417.925781 
	C319.166168,435.247467 313.081116,457.385406 310.006927,480.769104 
	C308.348877,493.381012 306.860504,506.015167 305.292297,518.638916 
	C303.907715,529.784363 302.518616,540.929260 301.077972,552.683105 
	C301.119781,553.088318 301.161621,553.493469 301.048828,554.733704 
	C301.060638,559.156555 301.072479,563.579468 301.029510,568.863647 
	C299.692169,584.542847 298.475281,600.233582 296.970703,615.896667 
	C296.116943,624.784668 295.485321,633.783630 293.529938,642.456787 
	C289.833923,658.850647 287.343781,675.377380 287.126892,692.126282 
	C286.905334,709.234924 287.644165,726.355530 287.930847,743.471436 
	C288.315155,766.412354 288.956604,789.354553 288.893005,812.294617 
	C288.867889,821.353882 286.762054,830.392578 286.455444,839.469360 
	C285.947113,854.517578 284.425781,869.821106 286.439758,884.593262 
	C289.085785,904.001404 298.621063,920.338257 317.138947,929.711548 
	C318.303711,930.301208 319.796997,930.241821 321.558990,930.436768 
	C321.558990,930.436768 321.970764,930.528442 321.960968,931.200562 
	C323.833099,932.470215 325.548981,934.151428 327.606598,934.932556 
	C333.846436,937.301514 338.173645,934.071533 336.819031,927.523315 
	C335.980835,923.471497 333.812469,919.341064 331.196564,916.085327 
	C325.942932,909.546692 322.217621,902.406616 321.369141,894.160522 
	C320.690979,887.569763 320.713013,880.834106 321.246094,874.229065 
	C321.446411,871.747437 323.963318,869.452820 325.424103,867.072937 
	C327.018951,869.103760 329.221558,870.904724 330.092957,873.209106 
	C332.552856,879.714172 334.235901,886.512024 336.671265,893.027710 
	C338.487976,897.888184 343.280304,900.129395 347.506470,898.642456 
	C352.491333,896.888489 352.308197,892.758240 351.674530,888.687378 
	C350.555023,881.494995 348.936005,874.371399 348.039825,867.155212 
	C345.972748,850.511047 341.884216,834.635925 332.779785,820.248657 
	C331.020721,817.468872 330.000000,813.593262 330.196777,810.316833 
	C330.920593,798.262695 331.348450,786.063110 333.641663,774.259033 
	C337.711823,753.308533 343.505707,732.696350 347.732635,711.771790 
	C350.871552,696.233093 352.838867,680.446899 354.993195,664.725098 
	C355.935974,657.844971 355.206696,650.666016 356.687622,643.942383 
	C361.034790,624.205383 366.109589,604.628601 371.558075,584.681885 
	C372.734589,580.811584 373.911102,576.941284 375.504517,572.694946 
	C375.611542,572.159851 375.718597,571.624695 376.026031,570.306519 
	C377.337677,564.882996 378.649353,559.459473 379.965454,554.842834 
	C380.652222,557.734009 381.615601,560.590759 381.981049,563.521973 
	C384.445709,583.290222 386.887451,603.062439 389.137634,622.856018 
	C392.291626,650.600098 390.813904,678.372253 388.738556,706.075256 
	C387.026215,728.932556 384.272583,751.710754 382.209198,774.544678 
	C382.016876,776.672791 383.473999,778.950012 384.026306,781.953674 
	C383.568237,784.912048 382.998596,787.858093 382.668976,790.830750 
	C378.303040,830.207092 373.727386,869.562439 369.739990,908.977356 
	C367.931732,926.851929 367.246765,944.842712 366.165649,962.787537 
	C365.398254,975.525574 364.820648,988.275085 364.127441,1001.614624 
	C369.382874,1002.812744 374.190460,1003.908752 379.409973,1005.291748 
	C379.639893,1005.535095 379.869812,1005.778503 380.103821,1006.786377 
	C380.388794,1008.199768 380.673767,1009.613159 380.927307,1011.951965 
	C381.321045,1020.385010 381.495880,1028.835327 382.156891,1037.247314 
	C383.313660,1051.968506 384.144348,1066.640015 381.017426,1081.250000 
	C380.120667,1085.439941 379.629547,1089.716553 378.454346,1094.558105 
	C377.579956,1101.941528 376.705566,1109.324951 375.143982,1117.279053 
	C375.578674,1139.061890 375.052704,1160.915039 376.644531,1182.613037 
	C380.150024,1230.396118 387.804718,1277.875977 386.704132,1326.717773 
	C386.516541,1328.498169 387.013611,1331.103149 386.027557,1331.921875 
	C380.616333,1336.414917 379.994476,1343.055542 377.147797,1349.228516 
	C376.715942,1350.122437 376.284088,1351.016235 375.321259,1352.330444 
	C373.806824,1355.429688 372.292389,1358.528931 370.805298,1361.743652 
	C370.805298,1361.743652 370.909821,1361.800171 370.138763,1361.582275 
z"/>
</g>
<g id="pernas" inkscape:label="Pernas" inkscape:groupmode="layer">
<path fill="#FDD3AB" opacity="1.000000" stroke="none" 
	d="
M479.098389,1011.134338 
	C478.789948,1013.493835 478.481506,1015.853271 477.841522,1018.782471 
	C477.361572,1019.957092 477.213135,1020.562134 477.064697,1021.167114 
	C474.612610,1034.595703 472.010925,1047.999146 469.755524,1061.460693 
	C467.936951,1072.314941 466.536499,1083.239502 464.618042,1094.721558 
	C461.392242,1096.548950 458.564667,1097.980103 455.594482,1098.993042 
	C442.963928,1103.300781 429.863953,1103.251343 416.733398,1103.110962 
	C403.404205,1102.968384 390.735779,1100.350830 378.952454,1093.953491 
	C379.629547,1089.716553 380.120667,1085.439941 381.017426,1081.250000 
	C384.144348,1066.640015 383.313660,1051.968506 382.156891,1037.247314 
	C381.495880,1028.835327 381.321045,1020.385010 381.229004,1011.252686 
	C382.898529,1009.733765 384.320251,1008.141907 385.624481,1008.232910 
	C390.373627,1008.564514 395.067871,1009.604675 399.811157,1010.112976 
	C412.583527,1011.481445 425.354858,1013.506348 438.156372,1013.757935 
	C449.130829,1013.973511 460.143066,1012.055420 471.146271,1011.177063 
	C473.781311,1010.966736 476.446838,1011.138428 479.098389,1011.134338 
z"/>
<path fill="#FDD3AA" opacity="1.000000" stroke="none" 
	d="
M643.081421,1009.038330 
	C642.378418,1024.733521 640.949646,1040.440552 641.204651,1056.120117 
	C641.404785,1068.423218 643.687378,1080.692505 644.734985,1093.552490 
	C635.159546,1099.968384 624.633667,1102.124146 614.086609,1102.806885 
	C595.293762,1104.023193 576.525146,1103.507080 559.038208,1094.908447 
	C556.893982,1081.370361 554.903870,1067.805420 552.562134,1054.301636 
	C550.217468,1040.781250 547.521545,1027.321899 545.262451,1013.196960 
	C546.749207,1012.000732 547.992004,1010.889648 549.150940,1010.971130 
	C562.002319,1011.874207 574.829773,1013.151001 587.688477,1013.901550 
	C592.433716,1014.178467 597.255127,1013.443420 602.022705,1012.974976 
	C609.737244,1012.216919 617.428833,1011.226013 625.143494,1010.469666 
	C631.112183,1009.884521 637.101379,1009.507812 643.081421,1009.038330 
z"/>
<path fill="#FBD2AA" opacity="1.000000" stroke="none" 
	d="
M643.309143,1008.796448 
	C637.101379,1009.507812 631.112183,1009.884521 625.143494,1010.469666 
	C617.428833,1011.226013 609.737244,1012.216919 602.022705,1012.974976 
	C597.255127,1013.443420 592.433716,1014.178467 587.688477,1013.901550 
	C574.829773,1013.151001 562.002319,1011.874207 549.150940,1010.971130 
	C547.992004,1010.889648 546.749207,1012.000732 545.278198,1012.776917 
	C544.723083,1011.840088 544.435120,1010.684387 544.196045,1009.152344 
	C553.270874,1009.600830 562.284302,1010.612854 571.325012,1011.214417 
	C595.483093,1012.821838 619.360596,1010.316528 643.495789,1005.933960 
	C643.781494,1006.816223 643.659180,1007.685364 643.309143,1008.796448 
z"/>
<path fill="#FBD2AA" opacity="1.000000" stroke="none" 
	d="
M479.317383,1010.892700 
	C476.446838,1011.138428 473.781311,1010.966736 471.146271,1011.177063 
	C460.143066,1012.055420 449.130829,1013.973511 438.156372,1013.757935 
	C425.354858,1013.506348 412.583527,1011.481445 399.811157,1010.112976 
	C395.067871,1009.604675 390.373627,1008.564514 385.624481,1008.232910 
	C384.320251,1008.141907 382.898529,1009.733765 381.244720,1010.789978 
	C380.673767,1009.613159 380.388794,1008.199768 380.518616,1006.375671 
	C388.411530,1007.038879 395.890411,1008.107483 403.367615,1009.187744 
	C421.170532,1011.759705 439.034393,1012.392273 456.966370,1010.889343 
	C457.431854,1010.904419 457.897339,1010.919434 459.136108,1010.854980 
	C466.516571,1010.098938 473.123718,1009.422424 479.730896,1008.745850 
	C479.666077,1009.380920 479.601257,1010.016052 479.317383,1010.892700 
z"/>
<path fill="#FBD2AA" opacity="1.000000" stroke="none" 
	d="
M477.332672,1021.083130 
	C477.213135,1020.562134 477.361572,1019.957092 477.769714,1019.167969 
	C477.886505,1019.655579 477.743591,1020.327393 477.332672,1021.083130 
z"/>
</g>
<g id="bracos" inkscape:label="Braços" inkscape:groupmode="layer">
<path fill="#FDD3AB" opacity="1.000000" stroke="none" 
	d="
M321.137451,930.484375 
	C319.796997,930.241821 318.303711,930.301208 317.138947,929.711548 
	C298.621063,920.338257 289.085785,904.001404 286.439758,884.593262 
	C284.425781,869.821106 285.947113,854.517578 286.455444,839.469360 
	C286.762054,830.392578 288.867889,821.353882 288.893005,812.294617 
	C288.956604,789.354553 288.315155,766.412354 287.930847,743.471436 
	C287.644165,726.355530 286.905334,709.234924 287.126892,692.126282 
	C287.343781,675.377380 289.833923,658.850647 293.529938,642.456787 
	C295.485321,633.783630 296.116943,624.784668 296.970703,615.896667 
	C298.475281,600.233582 299.692169,584.542847 301.448029,568.428589 
	C304.054810,568.639038 306.268341,569.210205 308.426941,569.943176 
	C317.259888,572.942688 325.902710,576.738525 334.941498,578.836914 
	C346.766266,581.582092 358.899109,583.000122 370.899475,584.989075 
	C366.109589,604.628601 361.034790,624.205383 356.687622,643.942383 
	C355.206696,650.666016 355.935974,657.844971 354.993195,664.725098 
	C352.838867,680.446899 350.871552,696.233093 347.732635,711.771790 
	C343.505707,732.696350 337.711823,753.308533 333.641663,774.259033 
	C331.348450,786.063110 330.920593,798.262695 330.196777,810.316833 
	C330.000000,813.593262 331.020721,817.468872 332.779785,820.248657 
	C341.884216,834.635925 345.972748,850.511047 348.039825,867.155212 
	C348.936005,874.371399 350.555023,881.494995 351.674530,888.687378 
	C352.308197,892.758240 352.491333,896.888489 347.506470,898.642456 
	C343.280304,900.129395 338.487976,897.888184 336.671265,893.027710 
	C334.235901,886.512024 332.552856,879.714172 330.092957,873.209106 
	C329.221558,870.904724 327.018951,869.103760 325.424103,867.072937 
	C323.963318,869.452820 321.446411,871.747437 321.246094,874.229065 
	C320.713013,880.834106 320.690979,887.569763 321.369141,894.160522 
	C322.217621,902.406616 325.942932,909.546692 331.196564,916.085327 
	C333.812469,919.341064 335.980835,923.471497 336.819031,927.523315 
	C338.173645,934.071533 333.846436,937.301514 327.606598,934.932556 
	C325.548981,934.151428 323.833099,932.470215 321.897827,930.552917 
	C321.537720,929.625061 321.240753,929.344910 320.865540,928.826050 
	C320.524872,928.391602 320.262451,928.195801 319.961914,927.656616 
	C319.499115,926.616333 319.199310,925.789673 318.630737,925.242065 
	C311.654572,918.522766 307.275635,910.288879 304.495728,901.124451 
	C302.721039,895.273682 301.018463,889.401062 299.283539,883.538208 
	C298.221710,885.391235 298.094421,887.145752 298.490753,888.772644 
	C299.501068,892.919312 301.087402,896.948792 301.825256,901.134094 
	C303.412201,910.135742 308.562958,917.210205 313.890900,924.143494 
	C315.268036,925.935608 317.928864,926.741211 320.077393,928.388916 
	C320.227905,929.031921 320.301025,929.286011 320.403503,929.539551 
	C320.432892,929.538940 320.514923,929.612122 320.698212,929.810425 
	C320.966797,930.167236 321.052124,930.325806 321.137451,930.484375 
z"/>
<path fill="#FDD3AB" opacity="1.000000" stroke="none" 
	d="
M701.989136,932.094971 
	C699.940308,933.129333 697.984253,934.637756 695.816223,935.061523 
	C693.747498,935.465881 690.536499,935.534973 689.487122,934.319214 
	C688.012939,932.611145 687.017944,929.226929 687.699585,927.188904 
	C689.034607,923.197266 691.199524,919.261536 693.850037,915.970398 
	C704.470459,902.783142 706.274048,887.858948 703.036133,871.925598 
	C702.666443,870.106018 700.450012,868.661804 699.089966,867.043579 
	C697.724548,868.540466 695.818726,869.817383 695.102112,871.578308 
	C693.421448,875.708435 692.527649,880.155090 690.905762,884.313965 
	C689.348877,888.306152 687.552124,892.262634 685.353333,895.930542 
	C683.098816,899.691467 679.373108,899.851807 675.664551,898.262329 
	C672.110962,896.739319 671.821289,893.707947 672.384338,890.287354 
	C674.642517,876.568665 676.110596,862.671265 679.269409,849.167053 
	C681.320312,840.399475 684.783691,831.586609 689.446228,823.906250 
	C694.592163,815.429626 694.529297,806.805969 693.699829,797.910828 
	C690.934998,768.261963 682.566406,739.725464 676.049683,710.814941 
	C672.299622,694.177856 668.950562,677.446228 668.876038,660.226929 
	C668.797546,642.086548 663.149048,624.981689 658.466064,607.705383 
	C656.690125,601.153625 655.416016,594.465881 654.098755,587.100464 
	C658.274048,585.253723 662.202576,583.578979 666.264404,583.140747 
	C681.432739,581.504272 695.930664,577.344482 710.286682,572.442871 
	C714.428223,571.028809 718.737000,570.104614 722.969116,568.955811 
	C723.998840,580.838806 724.790894,592.748535 726.119385,604.598022 
	C727.721191,618.884583 729.842773,633.112122 731.620728,647.380005 
	C733.482239,662.318420 735.846313,677.233643 736.796265,692.234619 
	C737.668152,706.001526 737.150085,719.872986 736.887451,733.691589 
	C736.385376,760.112427 735.193848,786.528198 735.179077,812.946594 
	C735.172546,824.646667 737.064392,836.382874 738.569092,848.041382 
	C741.518555,870.894592 739.283203,892.893066 726.857300,912.716919 
	C721.739380,920.881836 713.892151,926.870117 704.155518,930.920654 
	C702.998047,931.405396 702.493591,931.750183 701.989136,932.094971 
M706.561890,927.916809 
	C706.885986,927.605896 707.210083,927.294983 707.534180,926.984070 
	C707.320984,926.804993 707.107849,926.625854 706.894714,926.446716 
	C706.600220,926.967468 706.305725,927.488159 705.720764,928.099976 
	C705.811096,928.063049 705.901367,928.026123 706.561890,927.916809 
M724.955872,884.777283 
	C724.364075,886.507263 723.527466,888.195068 723.220337,889.974182 
	C721.296509,901.118225 717.467834,911.422485 710.401855,920.400024 
	C709.486633,921.562927 708.951782,923.025146 708.240784,924.348694 
	C721.613159,913.631104 724.523132,898.443665 726.230896,882.657715 
	C725.860168,883.128967 725.489441,883.600220 724.955872,884.777283 
z"/>
<path fill="#E1B489" opacity="1.000000" stroke="none" 
	d="
M702.298828,932.045898 
	C702.493591,931.750183 702.998047,931.405396 703.828125,931.036133 
	C703.638672,931.340088 703.123596,931.668457 702.298828,932.045898 
z"/>
<path fill="#E1B489" opacity="1.000000" stroke="none" 
	d="
M320.943787,929.064758 
	C321.240753,929.344910 321.537720,929.625061 321.902710,930.216858 
	C321.970764,930.528442 321.558990,930.436768 321.348206,930.460571 
	C321.052124,930.325806 320.966797,930.167236 320.756104,929.764893 
	C320.630707,929.521057 320.656982,929.374817 320.728455,929.297119 
	C320.799927,929.219360 320.943787,929.064758 320.943787,929.064758 
z"/>
<path fill="#E1B489" opacity="1.000000" stroke="none" 
	d="
M319.961914,927.656616 
	C317.928864,926.741211 315.268036,925.935608 313.890900,924.143494 
	C308.562958,917.210205 303.412201,910.135742 301.825256,901.134094 
	C301.087402,896.948792 299.501068,892.919312 298.490753,888.772644 
	C298.094421,887.145752 298.221710,885.391235 299.283539,883.538208 
	C301.018463,889.401062 302.721039,895.273682 304.495728,901.124451 
	C307.275635,910.288879 311.654572,918.522766 318.630737,925.242065 
	C319.199310,925.789673 319.499115,926.616333 319.961914,927.656616 
z"/>
<path fill="#E1B489" opacity="1.000000" stroke="none" 
	d="
M320.077393,928.388916 
	C320.262451,928.195801 320.524872,928.391602 320.865540,928.826050 
	C320.943787,929.064758 320.799927,929.219360 320.650024,929.320068 
	C320.500122,929.420715 320.374115,929.540161 320.374115,929.540161 
	C320.301025,929.286011 320.227905,929.031921 320.077393,928.388916 
z"/>
<path fill="#FEFEFE" opacity="1.000000" stroke="none" 
	d="
M320.403503,929.539551 
	C320.374115,929.540161 320.500122,929.420715 320.578552,929.397766 
	C320.656982,929.374817 320.630707,929.521057 320.572815,929.566589 
	C320.514923,929.612122 320.432892,929.538940 320.403503,929.539551 
z"/>
<path fill="#E1B489" opacity="1.000000" stroke="none" 
	d="
M725.037292,884.424377 
	C725.489441,883.600220 725.860168,883.128967 726.230896,882.657715 
	C724.523132,898.443665 721.613159,913.631104 708.240784,924.348694 
	C708.951782,923.025146 709.486633,921.562927 710.401855,920.400024 
	C717.467834,911.422485 721.296509,901.118225 723.220337,889.974182 
	C723.527466,888.195068 724.364075,886.507263 725.037292,884.424377 
z"/>
<path fill="#E1B489" opacity="1.000000" stroke="none" 
	d="
M706.011169,928.008911 
	C706.305725,927.488159 706.600220,926.967468 706.894714,926.446716 
	C707.107849,926.625854 707.320984,926.804993 707.534180,926.984070 
	C707.210083,927.294983 706.885986,927.605896 706.280945,927.958374 
	C706.000000,928.000000 706.011169,928.008911 706.011169,928.008911 
z"/>
<path fill="#E1B489" opacity="1.000000" stroke="none" 
	d="
M705.995850,927.994629 
	C705.901367,928.026123 705.811096,928.063049 705.865967,928.054443 
	C706.011169,928.008911 706.000000,928.000000 705.995850,927.994629 
z"/>
</g>
<g id="meiao" inkscape:label="Meião" inkscape:groupmode="layer">
<path fill="#323232" opacity="1.000000" stroke="none" 
	d="
M465.932556,1118.070312 
	C467.685760,1151.428589 461.641357,1183.842285 454.530060,1216.203613 
	C446.509125,1252.704224 440.218384,1289.491211 439.647461,1327.016479 
	C439.622253,1328.672241 439.772949,1330.330444 439.786072,1332.787109 
	C438.714386,1338.201050 437.188965,1342.491455 433.042023,1345.366333 
	C428.892731,1348.242554 420.939209,1346.292114 420.229523,1341.698608 
	C419.074371,1334.221680 413.822296,1331.143555 407.670685,1330.171631 
	C401.472534,1329.192505 394.999023,1329.956177 388.274231,1329.956177 
	C388.230835,1329.657959 388.213135,1328.838867 387.974060,1328.090576 
	C387.737396,1327.349854 387.277435,1326.680542 386.915405,1325.979858 
	C387.804718,1277.875977 380.150024,1230.396118 376.644531,1182.613037 
	C375.052704,1160.915039 375.578674,1139.061890 375.873505,1117.030518 
	C378.410034,1117.604492 380.161499,1118.591064 382.032318,1119.225220 
	C409.479492,1128.527222 436.826660,1129.400391 464.017944,1118.157349 
	C464.573242,1117.927856 465.290741,1118.090576 465.932556,1118.070312 
z"/>
<path fill="#323232" opacity="1.000000" stroke="none" 
	d="
M583.019226,1303.001709 
	C582.922058,1302.567139 582.824890,1302.132568 583.123352,1301.122559 
	C583.108337,1298.299805 582.697693,1296.052612 582.286987,1293.805420 
	C577.804749,1267.618652 573.296326,1241.436157 568.848694,1215.243530 
	C565.374084,1194.781372 561.396057,1174.380249 558.769714,1153.807983 
	C557.305176,1142.336426 558.144226,1130.570679 558.349487,1118.416870 
	C576.689880,1125.859497 595.549255,1127.151001 614.769043,1125.462402 
	C626.375305,1124.442505 637.779907,1122.500854 647.901001,1116.117676 
	C648.310608,1121.439697 648.720215,1126.761841 648.752319,1132.829834 
	C648.246155,1139.674683 647.994690,1145.774536 648.040649,1151.872070 
	C648.063538,1154.913696 648.630554,1157.951416 648.951416,1160.990845 
	C647.875610,1175.070801 647.084717,1189.179321 645.670410,1203.225220 
	C641.390015,1245.735962 635.686401,1288.142456 636.713013,1331.468750 
	C628.795532,1327.923584 621.132446,1328.537842 613.248108,1330.895752 
	C608.184021,1332.410278 604.549133,1335.359009 603.508606,1340.380493 
	C602.693359,1344.314819 600.547791,1346.822876 597.099609,1346.600708 
	C593.994141,1346.400513 590.073120,1345.020752 588.215271,1342.760864 
	C585.843323,1339.875854 585.181946,1335.584351 583.783325,1331.899048 
	C583.768433,1327.250366 583.753601,1322.601685 584.142822,1317.219238 
	C584.701965,1313.085327 585.030701,1309.679077 584.913696,1306.288330 
	C584.875244,1305.172363 583.683533,1304.096069 583.019226,1303.001709 
z"/>
<path fill="#7C7C7C" opacity="1.000000" stroke="none" 
	d="
M341.055847,1409.303711 
	C348.049744,1410.900269 354.865417,1413.809814 361.927979,1414.654419 
	C376.440460,1416.389648 391.059906,1416.406372 405.454803,1412.977661 
	C411.431549,1411.554077 415.948273,1408.052490 419.049133,1402.853760 
	C422.470367,1397.118042 427.534363,1393.918457 433.671509,1391.567383 
	C438.703278,1389.639526 443.295013,1386.563232 448.415039,1383.928955 
	C447.419830,1387.384766 446.091461,1390.907837 444.107666,1394.661377 
	C438.987793,1397.238403 434.523346,1399.584961 430.058899,1401.931519 
	C424.970306,1401.735840 422.148834,1404.977661 419.338745,1408.604980 
	C416.850769,1411.816284 413.859436,1414.637817 410.420441,1417.837646 
	C405.641174,1419.037964 401.531769,1420.032227 397.422363,1421.026367 
	C394.235626,1421.371948 391.048889,1421.717529 386.966858,1422.062134 
	C382.292419,1422.048828 378.513306,1422.036499 374.734161,1422.024170 
	C370.738556,1421.891357 366.742920,1421.758545 361.956482,1421.636963 
	C357.387085,1421.044922 353.608521,1420.441406 349.829956,1419.837891 
	C345.126465,1417.981689 341.694153,1415.018921 341.055847,1409.303711 
z"/>
<path fill="#7C7C7C" opacity="1.000000" stroke="none" 
	d="
M574.297852,1383.189941 
	C580.223450,1385.926758 586.222412,1388.747803 591.771912,1392.275879 
	C596.144775,1395.056030 600.915466,1398.033813 603.810730,1402.125854 
	C608.390686,1408.598755 614.004639,1412.559692 621.602356,1413.728149 
	C638.807800,1416.373901 656.035583,1416.872192 673.128113,1412.941162 
	C676.286316,1412.214966 679.194031,1410.399536 682.564575,1409.015381 
	C683.377686,1414.948853 679.198242,1417.303833 674.000916,1419.554932 
	C669.559082,1420.468750 665.809875,1421.230957 662.060730,1421.993164 
	C658.116150,1422.245605 654.171509,1422.498169 649.540100,1422.715332 
	C644.892883,1422.453857 640.932434,1422.227783 636.972046,1422.001709 
	C633.648499,1421.709473 630.324890,1421.417236 626.204285,1421.010986 
	C621.245911,1419.933350 617.084534,1418.969971 612.923218,1418.006470 
	C610.151978,1414.978516 607.597168,1411.708130 604.550293,1408.989014 
	C601.331116,1406.116455 597.643188,1403.769165 593.603882,1400.901367 
	C588.644775,1398.570557 584.241821,1396.530884 579.838928,1394.491089 
	C575.516907,1392.117065 574.604004,1387.974365 574.297852,1383.189941 
z"/>
<path fill="#252525" opacity="1.000000" stroke="none" 
	d="
M582.962646,1303.460938 
	C583.683533,1304.096069 584.875244,1305.172363 584.913696,1306.288330 
	C585.030701,1309.679077 584.701965,1313.085327 584.229370,1316.763184 
	C583.576660,1312.667236 583.241394,1308.293701 582.962646,1303.460938 
z"/>
<path fill="#252525" opacity="1.000000" stroke="none" 
	d="
M649.032837,1160.528809 
	C648.630554,1157.951416 648.063538,1154.913696 648.040649,1151.872070 
	C647.994690,1145.774536 648.246155,1139.674683 648.680786,1133.289551 
	C649.029236,1142.024536 649.071777,1151.045654 649.032837,1160.528809 
z"/>
<path fill="#252525" opacity="1.000000" stroke="none" 
	d="
M582.248413,1294.262817 
	C582.697693,1296.052612 583.108337,1298.299805 583.195618,1300.792969 
	C582.651428,1298.932739 582.430664,1296.826416 582.248413,1294.262817 
z"/>
</g>
<g id="chuteira" inkscape:label="Chuteira" inkscape:groupmode="layer">
<path fill="#252525" opacity="1.000000" stroke="none" 
	d="
M583.520508,1332.117432 
	C585.181946,1335.584351 585.843323,1339.875854 588.215271,1342.760864 
	C590.073120,1345.020752 593.994141,1346.400513 597.099609,1346.600708 
	C600.547791,1346.822876 602.693359,1344.314819 603.508606,1340.380493 
	C604.549133,1335.359009 608.184021,1332.410278 613.248108,1330.895752 
	C621.132446,1328.537842 628.795532,1327.923584 636.714539,1331.935303 
	C642.840576,1335.352661 643.943909,1341.316406 645.113770,1347.487061 
	C642.795532,1347.767700 640.812073,1347.719604 638.863831,1347.432495 
	C629.626404,1346.071411 620.727600,1347.178101 612.273987,1351.161865 
	C611.341370,1351.601440 610.722473,1352.981323 610.303528,1354.059326 
	C610.185791,1354.362305 611.290039,1355.597656 611.849548,1355.608887 
	C612.952332,1355.630981 614.078979,1355.135254 615.173523,1354.784424 
	C625.347107,1351.523438 635.535645,1348.960205 646.085266,1353.377563 
	C646.564148,1353.578125 647.516235,1352.648560 648.247925,1352.245361 
	C649.886780,1354.913086 651.525635,1357.580933 652.866272,1360.637573 
	C641.662537,1357.633545 631.033569,1358.606567 620.742981,1363.307129 
	C619.428833,1363.907471 618.612366,1365.597534 617.565308,1366.782837 
	C619.033508,1366.902954 620.581848,1367.387573 621.956909,1367.084717 
	C631.797974,1364.918213 641.584900,1362.633911 651.749023,1365.282104 
	C652.650391,1365.516846 653.974609,1364.128540 655.102417,1363.494019 
	C662.251160,1371.673828 669.301270,1379.942749 676.581604,1388.003662 
	C681.836182,1393.821533 685.128601,1400.108521 682.696655,1408.642334 
	C679.194031,1410.399536 676.286316,1412.214966 673.128113,1412.941162 
	C656.035583,1416.872192 638.807800,1416.373901 621.602356,1413.728149 
	C614.004639,1412.559692 608.390686,1408.598755 603.810730,1402.125854 
	C600.915466,1398.033813 596.144775,1395.056030 591.771912,1392.275879 
	C586.222412,1388.747803 580.223450,1385.926758 574.418335,1382.800781 
	C574.188599,1365.422852 575.943970,1348.392578 583.520508,1332.117432 
M627.137573,1375.441650 
	C626.598694,1376.575684 626.059814,1377.709717 625.520935,1378.843750 
	C626.712891,1378.930176 627.992859,1379.344360 629.082764,1379.051147 
	C637.927368,1376.673584 646.766357,1374.736206 655.991516,1376.886597 
	C657.201477,1377.168823 658.604919,1376.620728 659.918701,1376.457153 
	C660.015503,1375.812256 660.112305,1375.167236 660.209106,1374.522339 
	C657.417786,1373.679688 654.561890,1371.959473 651.847290,1372.159424 
	C643.821533,1372.750244 635.851685,1374.099731 627.137573,1375.441650 
z"/>
<path fill="#262626" opacity="1.000000" stroke="none" 
	d="
M386.809753,1326.348877 
	C387.277435,1326.680542 387.737396,1327.349854 387.974060,1328.090576 
	C388.213135,1328.838867 388.230835,1329.657959 388.274231,1329.956177 
	C394.999023,1329.956177 401.472534,1329.192505 407.670685,1330.171631 
	C413.822296,1331.143555 419.074371,1334.221680 420.229523,1341.698608 
	C420.939209,1346.292114 428.892731,1348.242554 433.042023,1345.366333 
	C437.188965,1342.491455 438.714386,1338.201050 439.886536,1333.241089 
	C442.127686,1339.388672 445.035400,1345.749390 446.105804,1352.405762 
	C447.726166,1362.482422 448.067627,1372.764771 448.517181,1383.477905 
	C443.295013,1386.563232 438.703278,1389.639526 433.671509,1391.567383 
	C427.534363,1393.918457 422.470367,1397.118042 419.049133,1402.853760 
	C415.948273,1408.052490 411.431549,1411.554077 405.454803,1412.977661 
	C391.059906,1416.406372 376.440460,1416.389648 361.927979,1414.654419 
	C354.865417,1413.809814 348.049744,1410.900269 341.122314,1408.925415 
	C339.455017,1401.380249 341.539001,1394.997437 346.657013,1389.257446 
	C354.024231,1380.994995 361.130341,1372.499756 368.788971,1364.241333 
	C370.185974,1364.851685 371.348816,1365.943970 372.066711,1365.704102 
	C382.375366,1362.261108 392.262268,1364.548584 402.176605,1367.479614 
	C403.230255,1367.791260 404.637299,1366.907471 405.880432,1366.578125 
	C405.250336,1365.560913 404.826202,1363.907715 403.957703,1363.626465 
	C396.657532,1361.261597 389.584137,1357.589233 381.428833,1359.830322 
	C377.974701,1360.779541 374.333893,1361.049561 370.777924,1361.628174 
	C372.292389,1358.528931 373.806824,1355.429688 375.950928,1352.281494 
	C377.685455,1352.436523 378.797241,1352.847046 379.894012,1352.810181 
	C386.263947,1352.596313 392.667816,1351.737793 398.985260,1352.176514 
	C403.456207,1352.487183 407.808594,1354.504883 412.313934,1355.788818 
	C414.210175,1351.909790 411.365204,1351.014893 408.897522,1350.107056 
	C398.630035,1346.329590 388.205078,1346.070068 377.675049,1348.932251 
	C379.994476,1343.055542 380.616333,1336.414917 386.027557,1331.921875 
	C387.013611,1331.103149 386.516541,1328.498169 386.809753,1326.348877 
M372.842712,1376.079834 
	C380.315674,1377.240845 387.781799,1378.450073 395.268982,1379.510620 
	C396.380737,1379.667969 397.591797,1379.124268 398.756927,1378.904907 
	C398.053375,1377.853027 397.578247,1376.218872 396.610870,1375.839478 
	C387.157806,1372.130859 377.420563,1370.649902 367.396149,1373.142212 
	C366.112213,1373.461304 365.047882,1374.663574 363.881866,1375.456909 
	C364.072998,1375.990234 364.264160,1376.523682 364.455292,1377.057007 
	C366.952911,1376.772461 369.450500,1376.487915 372.842712,1376.079834 
z"/>
<path fill="#484848" opacity="1.000000" stroke="none" 
	d="
M655.081421,1363.226929 
	C653.974609,1364.128540 652.650391,1365.516846 651.749023,1365.282104 
	C641.584900,1362.633911 631.797974,1364.918213 621.956909,1367.084717 
	C620.581848,1367.387573 619.033508,1366.902954 617.565308,1366.782837 
	C618.612366,1365.597534 619.428833,1363.907471 620.742981,1363.307129 
	C631.033569,1358.606567 641.662537,1357.633545 653.002869,1360.969727 
	C653.978577,1361.595337 654.519470,1362.277588 655.081421,1363.226929 
z"/>
<path fill="#484848" opacity="1.000000" stroke="none" 
	d="
M648.215210,1351.956543 
	C647.516235,1352.648560 646.564148,1353.578125 646.085266,1353.377563 
	C635.535645,1348.960205 625.347107,1351.523438 615.173523,1354.784424 
	C614.078979,1355.135254 612.952332,1355.630981 611.849548,1355.608887 
	C611.290039,1355.597656 610.185791,1354.362305 610.303528,1354.059326 
	C610.722473,1352.981323 611.341370,1351.601440 612.273987,1351.161865 
	C620.727600,1347.178101 629.626404,1346.071411 638.863831,1347.432495 
	C640.812073,1347.719604 642.795532,1347.767700 645.247925,1347.868408 
	C646.549500,1349.096558 647.365967,1350.382202 648.215210,1351.956543 
z"/>
<path fill="#484848" opacity="1.000000" stroke="none" 
	d="
M370.791595,1361.685913 
	C374.333893,1361.049561 377.974701,1360.779541 381.428833,1359.830322 
	C389.584137,1357.589233 396.657532,1361.261597 403.957703,1363.626465 
	C404.826202,1363.907715 405.250336,1365.560913 405.880432,1366.578125 
	C404.637299,1366.907471 403.230255,1367.791260 402.176605,1367.479614 
	C392.262268,1364.548584 382.375366,1362.261108 372.066711,1365.704102 
	C371.348816,1365.943970 370.185974,1364.851685 369.064941,1364.033447 
	C368.784729,1363.447266 368.819519,1363.230591 369.511749,1362.908691 
	C370.316132,1362.453003 370.612946,1362.126587 370.909790,1361.800171 
	C370.909821,1361.800171 370.805298,1361.743652 370.791595,1361.685913 
z"/>
<path fill="#484848" opacity="1.000000" stroke="none" 
	d="
M377.411438,1349.080322 
	C388.205078,1346.070068 398.630035,1346.329590 408.897522,1350.107056 
	C411.365204,1351.014893 414.210175,1351.909790 412.313934,1355.788818 
	C407.808594,1354.504883 403.456207,1352.487183 398.985260,1352.176514 
	C392.667816,1351.737793 386.263947,1352.596313 379.894012,1352.810181 
	C378.797241,1352.847046 377.685455,1352.436523 376.216431,1352.071411 
	C376.284088,1351.016235 376.715942,1350.122437 377.411438,1349.080322 
z"/>
<path fill="#262626" opacity="1.000000" stroke="none" 
	d="
M579.614990,1394.854980 
	C584.241821,1396.530884 588.644775,1398.570557 593.265381,1400.931396 
	C593.093140,1406.023682 590.423340,1408.006104 585.780945,1407.454956 
	C581.213928,1406.912598 579.048279,1404.265869 579.204834,1399.692017 
	C579.255859,1398.200439 579.328369,1396.709839 579.614990,1394.854980 
z"/>
<path fill="#262626" opacity="1.000000" stroke="none" 
	d="
M430.047363,1402.304443 
	C434.523346,1399.584961 438.987793,1397.238403 443.832092,1394.824707 
	C444.240173,1396.406128 444.170135,1398.063599 444.315948,1399.701660 
	C444.681610,1403.809448 442.901306,1406.511230 438.915344,1407.282104 
	C434.922913,1408.054321 431.329468,1407.415527 430.047363,1402.304443 
z"/>
<path fill="#262626" opacity="1.000000" stroke="none" 
	d="
M612.871948,1418.434692 
	C617.084534,1418.969971 621.245911,1419.933350 625.807617,1420.958496 
	C625.547119,1426.875122 623.681702,1428.919189 619.258179,1428.635498 
	C614.547607,1428.333374 612.927002,1425.873169 612.871948,1418.434692 
z"/>
<path fill="#262626" opacity="1.000000" stroke="none" 
	d="
M397.479950,1421.435913 
	C401.531769,1420.032227 405.641174,1419.037964 410.174622,1418.031738 
	C410.521973,1419.174805 410.418579,1420.328613 410.373322,1421.484985 
	C410.197266,1425.982056 407.962463,1428.723877 403.401794,1428.831665 
	C398.813782,1428.940186 397.674408,1425.707397 397.479950,1421.435913 
z"/>
<path fill="#323232" opacity="1.000000" stroke="none" 
	d="
M374.720337,1422.449463 
	C378.513306,1422.036499 382.292419,1422.048828 386.534454,1422.030518 
	C386.722534,1423.405151 386.291229,1424.800537 386.202972,1426.217285 
	C385.960144,1430.114746 383.431763,1431.084961 380.167877,1431.041504 
	C376.801117,1430.996826 375.205383,1428.960449 374.815826,1425.813965 
	C374.695801,1424.844604 374.738373,1423.855103 374.720337,1422.449463 
z"/>
<path fill="#262626" opacity="1.000000" stroke="none" 
	d="
M636.971924,1422.408936 
	C640.932434,1422.227783 644.892883,1422.453857 649.218262,1422.950195 
	C649.474060,1427.401978 648.186890,1430.871094 643.310608,1430.858887 
	C638.136841,1430.845947 636.941345,1427.194580 636.971924,1422.408936 
z"/>
<path fill="#262626" opacity="1.000000" stroke="none" 
	d="
M662.050598,1422.389648 
	C665.809875,1421.230957 669.559082,1420.468750 673.747925,1419.760742 
	C673.577820,1422.461792 673.806763,1425.920410 672.189209,1427.591553 
	C668.472412,1431.431396 662.982605,1428.609985 662.050598,1422.389648 
z"/>
<path fill="#262626" opacity="1.000000" stroke="none" 
	d="
M349.827209,1420.278076 
	C353.608521,1420.441406 357.387085,1421.044922 361.512970,1421.815186 
	C361.591888,1427.338623 359.994720,1429.158447 355.726013,1428.970825 
	C351.026520,1428.764526 349.822113,1427.080200 349.827209,1420.278076 
z"/>
<path fill="#262626" opacity="1.000000" stroke="none" 
	d="
M370.524292,1361.691162 
	C370.612946,1362.126587 370.316132,1362.453003 369.680542,1362.864746 
	C369.607452,1362.494019 369.873108,1362.038208 370.524292,1361.691162 
z"/>
<path fill="#484848" opacity="1.000000" stroke="none" 
	d="
M627.498779,1375.297119 
	C635.851685,1374.099731 643.821533,1372.750244 651.847290,1372.159424 
	C654.561890,1371.959473 657.417786,1373.679688 660.209106,1374.522339 
	C660.112305,1375.167236 660.015503,1375.812256 659.918701,1376.457153 
	C658.604919,1376.620728 657.201477,1377.168823 655.991516,1376.886597 
	C646.766357,1374.736206 637.927368,1376.673584 629.082764,1379.051147 
	C627.992859,1379.344360 626.712891,1378.930176 625.520996,1378.843750 
	C626.059814,1377.709717 626.598694,1376.575684 627.498779,1375.297119 
z"/>
<path fill="#484848" opacity="1.000000" stroke="none" 
	d="
M372.395416,1376.141602 
	C369.450500,1376.487915 366.952911,1376.772461 364.455292,1377.057007 
	C364.264160,1376.523682 364.072998,1375.990234 363.881866,1375.456909 
	C365.047882,1374.663574 366.112213,1373.461304 367.396149,1373.142212 
	C377.420563,1370.649902 387.157806,1372.130859 396.610870,1375.839478 
	C397.578247,1376.218872 398.053375,1377.853027 398.756897,1378.904907 
	C397.591797,1379.124268 396.380737,1379.667969 395.268982,1379.510620 
	C387.781799,1378.450073 380.315674,1377.240845 372.395416,1376.141602 
z"/>
</g>
<g id="bermuda" inkscape:label="Bermuda" inkscape:groupmode="layer">
<path fill="#323232" opacity="1.000000" stroke="none" 
	d="
M640.134888,780.981934 
	C642.794067,800.396118 645.937073,819.759155 647.997192,839.236633 
	C650.968872,867.333130 653.446899,895.490540 655.586914,923.663635 
	C657.438843,948.044189 658.457458,972.487122 660.027588,996.890686 
	C660.258301,1000.476807 658.913635,1002.054260 655.695923,1002.793762 
	C651.978516,1003.648132 648.297302,1004.660706 643.844116,1005.762695 
	C619.360596,1010.316528 595.483093,1012.821838 571.325012,1011.214417 
	C562.284302,1010.612854 553.270874,1009.600830 544.245056,1008.776001 
	C538.929871,1007.519409 533.614685,1006.262817 528.217346,1004.986755 
	C523.015381,964.983032 517.829224,925.100281 512.643066,885.217529 
	C512.154175,885.241760 511.665222,885.266052 511.176331,885.290283 
	C507.785461,910.240540 504.338867,935.183472 501.025543,960.144043 
	C499.166504,974.148743 497.601257,988.192871 495.670593,1002.187073 
	C495.487640,1003.513184 493.846985,1005.248413 492.517700,1005.687439 
	C489.064209,1006.828186 485.407013,1007.352173 481.175110,1007.783081 
	C473.728027,1008.028442 466.934540,1008.588440 460.151764,1009.257019 
	C459.732819,1009.298401 459.398254,1010.195679 458.693634,1010.814636 
	C457.897339,1010.919434 457.431854,1010.904419 456.659973,1010.612671 
	C443.310852,1009.889954 430.229553,1009.915161 417.237396,1008.851440 
	C406.478302,1007.970581 395.835541,1005.721741 385.113739,1004.284363 
	C383.142792,1004.020142 381.039978,1004.739380 378.998047,1005.004761 
	C374.190460,1003.908752 369.382874,1002.812744 364.127441,1001.614624 
	C364.820648,988.275085 365.398254,975.525574 366.165649,962.787537 
	C367.246765,944.842712 367.931732,926.851929 369.739990,908.977356 
	C373.727386,869.562439 378.303040,830.207092 382.668976,790.830750 
	C382.998596,787.858093 383.568237,784.912048 384.461884,781.576355 
	C393.593140,783.478638 402.288818,785.758301 411.356079,788.176758 
	C447.880066,795.236511 484.466461,796.191956 521.100891,795.885742 
	C551.908264,795.628357 582.649475,794.078247 613.361755,787.883911 
	C622.552917,785.584045 631.343933,783.283020 640.134888,780.981934 
z"/>
<path fill="#A7A7A7" opacity="1.000000" stroke="none" 
	d="
M558.941101,1095.323364 
	C576.525146,1103.507080 595.293762,1104.023193 614.086609,1102.806885 
	C624.633667,1102.124146 635.159546,1099.968384 644.755493,1093.970215 
	C646.049988,1100.941528 647.014282,1108.070679 647.939758,1115.658813 
	C637.779907,1122.500854 626.375305,1124.442505 614.769043,1125.462402 
	C595.549255,1127.151001 576.689880,1125.859497 558.377808,1117.949097 
	C558.282532,1110.580688 558.563232,1103.159546 558.941101,1095.323364 
z"/>
<path fill="#A7A7A7" opacity="1.000000" stroke="none" 
	d="
M378.703400,1094.255859 
	C390.735779,1100.350830 403.404205,1102.968384 416.733398,1103.110962 
	C429.863953,1103.251343 442.963928,1103.300781 455.594482,1098.993042 
	C458.564667,1097.980103 461.392242,1096.548950 464.610840,1095.190186 
	C465.298798,1102.422485 465.661407,1109.775146 465.978302,1117.598999 
	C465.290741,1118.090576 464.573242,1117.927856 464.017944,1118.157349 
	C436.826660,1129.400391 409.479492,1128.527222 382.032318,1119.225220 
	C380.161499,1118.591064 378.410034,1117.604492 376.217102,1116.745117 
	C376.705566,1109.324951 377.579956,1101.941528 378.703400,1094.255859 
z"/>
<path fill="#262626" opacity="1.000000" stroke="none" 
	d="
M456.659973,1010.612671 
	C439.034393,1012.392273 421.170532,1011.759705 403.367615,1009.187744 
	C395.890411,1008.107483 388.411530,1007.038879 380.516571,1005.993408 
	C379.869812,1005.778503 379.639893,1005.535095 379.204010,1005.148193 
	C381.039978,1004.739380 383.142792,1004.020142 385.113739,1004.284363 
	C395.835541,1005.721741 406.478302,1007.970581 417.237396,1008.851440 
	C430.229553,1009.915161 443.310852,1009.889954 456.659973,1010.612671 
z"/>
<path fill="#262626" opacity="1.000000" stroke="none" 
	d="
M479.923920,1008.591553 
	C473.123718,1009.422424 466.516571,1010.098938 459.466919,1010.735107 
	C459.398254,1010.195679 459.732819,1009.298401 460.151764,1009.257019 
	C466.934540,1008.588440 473.728027,1008.028442 480.764618,1007.740479 
	C480.742554,1008.237732 480.444824,1008.371094 479.923920,1008.591553 
z"/>
</g>
<g id="camiseta" inkscape:label="Camiseta" inkscape:groupmode="layer">
<path fill="#D5D5D5" opacity="1.000000" stroke="none" 
	d="
M301.131531,552.074402 
	C302.518616,540.929260 303.907715,529.784363 305.292297,518.638916 
	C306.860504,506.015167 308.348877,493.381012 310.006927,480.769104 
	C313.081116,457.385406 319.166168,435.247467 336.596741,417.925781 
	C345.007599,409.567352 355.091064,403.621216 366.194885,400.093903 
	C389.711884,392.623352 413.485840,385.961578 437.584351,379.371460 
	C440.267670,387.449829 442.520996,395.124847 444.933289,403.341339 
	C444.291656,403.690918 442.879456,404.512573 441.422699,405.245758 
	C432.374847,409.799561 423.275726,414.253448 414.272491,418.893524 
	C402.174438,425.128601 391.608826,433.369080 383.037537,443.970337 
	C371.699799,457.993225 367.789581,474.274689 369.024780,492.412354 
	C372.676117,513.221252 376.318573,533.628601 379.961029,554.035950 
	C378.649353,559.459473 377.337677,564.882996 375.487335,570.669617 
	C365.119141,569.791138 355.038788,569.524780 345.519928,567.075806 
	C331.796234,563.545105 318.480316,558.429504 304.995422,553.995117 
	C305.000427,554.000000 305.012238,554.008118 304.826233,553.745239 
	C303.470642,553.013062 302.301086,552.543701 301.131531,552.074402 
z"/>
<path fill="#D5D5D5" opacity="1.000000" stroke="none" 
	d="
M585.127136,378.862762 
	C594.432800,381.247833 603.859253,383.245361 613.018372,386.100616 
	C630.739136,391.624847 648.699707,396.673889 665.851501,403.661255 
	C692.439758,414.492950 705.599121,436.751190 710.819946,463.693176 
	C714.591553,483.156433 716.365784,503.006409 719.041809,522.682434 
	C720.335083,532.191528 721.653564,541.697327 722.583984,551.651917 
	C719.666931,553.308594 717.157715,554.588989 714.581421,555.716125 
	C693.658203,564.870178 671.928711,570.585876 648.967468,571.002808 
	C647.535583,565.225952 646.103699,559.449036 644.409302,552.997864 
	C647.481995,533.209656 650.817261,514.095764 654.420776,494.673279 
	C657.483398,471.227600 651.117371,450.973755 633.604248,435.528717 
	C624.644470,427.626953 613.966980,421.518036 603.568604,415.451172 
	C595.179626,410.556702 586.044800,406.940460 578.377136,403.297028 
	C580.724792,394.798828 582.925964,386.830780 585.127136,378.862762 
z"/>
<path fill="#ADADAE" opacity="1.000000" stroke="none" 
	d="
M379.963257,554.439392 
	C376.318573,533.628601 372.676117,513.221252 369.392883,492.406433 
	C370.489075,492.007263 371.226044,492.015564 371.975525,492.396973 
	C372.697388,494.419983 373.226532,496.178131 374.143219,497.703430 
	C386.413513,518.120056 397.242310,539.263855 404.708069,561.915344 
	C413.340576,588.106750 416.023743,615.389465 416.739929,642.718811 
	C417.392883,667.635559 416.279114,692.598633 415.939911,717.541199 
	C415.930878,718.206055 415.885925,718.871033 415.839661,719.534668 
	C414.549377,738.040955 413.256805,756.547119 411.960876,775.259888 
	C411.957123,775.466492 411.932983,775.879028 411.665100,776.201050 
	C411.259644,780.361328 411.122070,784.199646 410.984497,788.037964 
	C402.288818,785.758301 393.593140,783.478638 384.531372,781.178467 
	C383.473999,778.950012 382.016876,776.672791 382.209198,774.544678 
	C384.272583,751.710754 387.026215,728.932556 388.738556,706.075256 
	C390.813904,678.372253 392.291626,650.600098 389.137634,622.856018 
	C386.887451,603.062439 384.445709,583.290222 381.981049,563.521973 
	C381.615601,560.590759 380.652222,557.734009 379.963257,554.439392 
z"/>
<path fill="#ADADAE" opacity="1.000000" stroke="none" 
	d="
M654.152466,494.981903 
	C650.817261,514.095764 647.481995,533.209656 644.159668,552.725342 
	C641.193420,572.119751 637.434021,591.030457 635.429443,610.125305 
	C632.826965,634.915100 631.780212,659.849548 633.769409,684.803162 
	C634.969849,699.862732 635.790527,714.954590 637.139709,729.999817 
	C638.428162,744.367859 640.260437,758.686584 641.651978,773.046570 
	C641.892029,775.523621 641.125610,778.098145 640.479492,780.804810 
	C631.343933,783.283020 622.552917,785.584045 613.389771,787.442688 
	C612.317444,776.250732 611.619629,765.500916 610.916504,754.751587 
	C609.628967,735.069885 607.648987,715.403015 607.230896,695.702942 
	C606.754761,673.269348 607.224670,650.787781 608.150940,628.362915 
	C608.702820,615.004089 610.160278,601.576294 612.541443,588.420349 
	C618.697632,554.407104 633.653442,523.941101 652.321899,494.970093 
	C653.175415,494.977936 653.663940,494.979919 654.152466,494.981903 
z"/>
<path fill="#BEBDBC" opacity="1.000000" stroke="none" 
	d="
M654.420776,494.673279 
	C653.663940,494.979919 653.175415,494.977936 652.330933,494.505615 
	C651.980042,492.370178 651.916382,490.701599 652.000427,489.040497 
	C653.360413,462.150177 641.319214,442.102814 619.162170,428.351624 
	C605.820679,420.071594 591.269409,413.721161 577.117737,406.798065 
	C575.767517,406.137573 573.012451,407.070587 571.566040,408.146423 
	C568.388550,410.509857 565.929565,413.887695 562.653442,416.062347 
	C544.499939,428.112518 524.594482,432.952942 502.756226,431.153656 
	C483.100647,429.534210 466.091003,422.404602 451.856201,408.986664 
	C449.069183,406.359589 447.410187,406.127289 444.377808,407.778412 
	C430.561676,415.301270 416.369995,422.180328 402.870453,430.225647 
	C389.977356,437.909546 380.285645,449.079407 376.192291,463.697693 
	C373.638123,472.819305 373.297150,482.560638 371.963013,492.023865 
	C371.226044,492.015564 370.489075,492.007263 369.384003,492.004883 
	C367.789581,474.274689 371.699799,457.993225 383.037537,443.970337 
	C391.608826,433.369080 402.174438,425.128601 414.272491,418.893524 
	C423.275726,414.253448 432.374847,409.799561 441.422699,405.245758 
	C442.879456,404.512573 444.291656,403.690918 444.933289,403.341339 
	C442.520996,395.124847 440.267670,387.449829 437.988068,379.362213 
	C442.351837,377.229126 446.741913,375.508636 451.553101,374.205505 
	C452.313782,383.711945 456.390869,391.290375 462.349976,397.686371 
	C475.090881,411.361359 491.973236,415.141541 509.691803,415.872284 
	C523.324524,416.434509 536.509521,413.394409 548.296265,406.570007 
	C560.851196,399.300842 570.712524,389.469055 572.098267,373.797943 
	C576.306824,375.289795 580.515320,376.781616 584.925537,378.568115 
	C582.925964,386.830780 580.724792,394.798828 578.377136,403.297028 
	C586.044800,406.940460 595.179626,410.556702 603.568604,415.451172 
	C613.966980,421.518036 624.644470,427.626953 633.604248,435.528717 
	C651.117371,450.973755 657.483398,471.227600 654.420776,494.673279 
z"/>
<path fill="#D5D5D5" opacity="1.000000" stroke="none" 
	d="
M722.989380,568.589722 
	C718.737000,570.104614 714.428223,571.028809 710.286682,572.442871 
	C695.930664,577.344482 681.432739,581.504272 666.264404,583.140747 
	C662.202576,583.578979 658.274048,585.253723 654.078247,586.679688 
	C652.268738,582.587341 650.665344,578.176270 649.511108,573.367310 
	C653.580566,572.642639 657.261108,572.625244 660.809998,571.932800 
	C672.943481,569.565247 685.200867,567.568787 697.079590,564.246094 
	C705.956543,561.763062 714.322021,557.451782 722.915283,553.954590 
	C723.941101,558.704407 725.438354,563.451050 722.989380,568.589722 
z"/>
<path fill="#D5D5D5" opacity="1.000000" stroke="none" 
	d="
M371.228760,584.835449 
	C358.899109,583.000122 346.766266,581.582092 334.941498,578.836914 
	C325.902710,576.738525 317.259888,572.942688 308.426941,569.943176 
	C306.268341,569.210205 304.054810,568.639038 301.475433,567.997925 
	C301.072479,563.579468 301.060638,559.156555 301.501526,554.341980 
	C302.973572,553.969543 303.992920,553.988831 305.012238,554.008118 
	C305.012238,554.008118 305.000427,554.000000 305.052795,554.341797 
	C306.707642,555.770264 308.188995,557.130371 309.931061,557.901978 
	C330.679749,567.092102 352.520966,571.654724 375.087646,573.070984 
	C373.911102,576.941284 372.734589,580.811584 371.228760,584.835449 
z"/>
<path fill="#BEBDBC" opacity="1.000000" stroke="none" 
	d="
M722.944580,553.638123 
	C714.322021,557.451782 705.956543,561.763062 697.079590,564.246094 
	C685.200867,567.568787 672.943481,569.565247 660.809998,571.932800 
	C657.261108,572.625244 653.580566,572.642639 649.525085,572.959106 
	C649.048462,572.517334 649.007080,572.085815 648.966553,571.328613 
	C671.928711,570.585876 693.658203,564.870178 714.581421,555.716125 
	C717.157715,554.588989 719.666931,553.308594 722.559448,552.076782 
	C722.932373,552.476746 722.953125,552.899231 722.944580,553.638123 
z"/>
<path fill="#BEBDBC" opacity="1.000000" stroke="none" 
	d="
M375.296082,572.882935 
	C352.520966,571.654724 330.679749,567.092102 309.931061,557.901978 
	C308.188995,557.130371 306.707642,555.770264 305.047760,554.336914 
	C318.480316,558.429504 331.796234,563.545105 345.519928,567.075806 
	C355.038788,569.524780 365.119141,569.791138 375.387146,571.061157 
	C375.718597,571.624695 375.611542,572.159851 375.296082,572.882935 
z"/>
<path fill="#BEBDBC" opacity="1.000000" stroke="none" 
	d="
M304.826233,553.745239 
	C303.992920,553.988831 302.973572,553.969543 301.578857,553.924438 
	C301.161621,553.493469 301.119781,553.088318 301.104736,552.378784 
	C302.301086,552.543701 303.470642,553.013062 304.826233,553.745239 
z"/>
<path fill="#D5D5D5" opacity="1.000000" stroke="none" 
	d="
M371.975525,492.396973 
	C373.297150,482.560638 373.638123,472.819305 376.192291,463.697693 
	C380.285645,449.079407 389.977356,437.909546 402.870453,430.225647 
	C416.369995,422.180328 430.561676,415.301270 444.377808,407.778412 
	C447.410187,406.127289 449.069183,406.359589 451.856201,408.986664 
	C466.091003,422.404602 483.100647,429.534210 502.756226,431.153656 
	C524.594482,432.952942 544.499939,428.112518 562.653442,416.062347 
	C565.929565,413.887695 568.388550,410.509857 571.566040,408.146423 
	C573.012451,407.070587 575.767517,406.137573 577.117737,406.798065 
	C591.269409,413.721161 605.820679,420.071594 619.162170,428.351624 
	C641.319214,442.102814 653.360413,462.150177 652.000427,489.040497 
	C651.916382,490.701599 651.980042,492.370178 651.965942,494.499756 
	C633.653442,523.941101 618.697632,554.407104 612.541443,588.420349 
	C610.160278,601.576294 608.702820,615.004089 608.150940,628.362915 
	C607.224670,650.787781 606.754761,673.269348 607.230896,695.702942 
	C607.648987,715.403015 609.628967,735.069885 610.916504,754.751587 
	C611.619629,765.500916 612.317444,776.250732 612.989624,787.441528 
	C582.649475,794.078247 551.908264,795.628357 521.100891,795.885742 
	C484.466461,796.191956 447.880066,795.236511 411.356079,788.176758 
	C411.122070,784.199646 411.259644,780.361328 412.086700,776.242798 
	C418.175720,776.694641 423.558655,777.596375 428.977875,778.127319 
	C446.242950,779.819153 463.505768,782.485657 480.798401,782.730225 
	C509.671112,783.138672 538.613159,784.377319 567.446594,781.043579 
	C578.773254,779.733948 590.165161,778.997314 601.510559,777.835632 
	C604.400940,777.539734 607.227112,776.617249 610.082825,775.982727 
	C608.755493,775.093994 607.602234,775.001770 606.467468,775.107483 
	C581.954041,777.392395 557.484192,780.637817 532.918701,781.724121 
	C510.711029,782.706238 488.392853,781.549988 466.136719,780.889465 
	C457.747894,780.640442 449.397552,779.124512 441.027496,778.206299 
	C431.341125,777.143738 421.652344,776.103333 411.964600,775.053284 
	C413.256805,756.547119 414.549377,738.040955 415.839661,719.534668 
	C415.885925,718.871033 415.930878,718.206055 415.939911,717.541199 
	C416.279114,692.598633 417.392883,667.635559 416.739929,642.718811 
	C416.023743,615.389465 413.340576,588.106750 404.708069,561.915344 
	C397.242310,539.263855 386.413513,518.120056 374.143219,497.703430 
	C373.226532,496.178131 372.697388,494.419983 371.975525,492.396973 
z"/>
<path fill="#BEBDBC" opacity="1.000000" stroke="none" 
	d="
M411.960876,775.259888 
	C421.652344,776.103333 431.341125,777.143738 441.027496,778.206299 
	C449.397552,779.124512 457.747894,780.640442 466.136719,780.889465 
	C488.392853,781.549988 510.711029,782.706238 532.918701,781.724121 
	C557.484192,780.637817 581.954041,777.392395 606.467468,775.107483 
	C607.602234,775.001770 608.755493,775.093994 610.082825,775.982727 
	C607.227112,776.617249 604.400940,777.539734 601.510559,777.835632 
	C590.165161,778.997314 578.773254,779.733948 567.446594,781.043579 
	C538.613159,784.377319 509.671112,783.138672 480.798401,782.730225 
	C463.505768,782.485657 446.242950,779.819153 428.977875,778.127319 
	C423.558655,777.596375 418.175720,776.694641 412.354584,775.920837 
	C411.932983,775.879028 411.957123,775.466492 411.960876,775.259888 
z"/>
</g>
<g id="cabeca" inkscape:label="Cabeça" inkscape:groupmode="layer">
<path fill="#FDD3AB" opacity="1.000000" stroke="none" 
	d="
M597.896851,196.996124 
	C597.926270,198.065094 597.955688,199.134048 597.601685,200.643723 
	C595.951904,201.615768 594.685547,202.147110 594.220032,202.342453 
	C595.255920,204.423737 596.105103,206.129761 596.956787,207.896790 
	C596.959290,207.957794 596.837891,207.944717 596.471680,207.973068 
	C595.329041,208.516342 594.226440,208.851425 593.827759,209.574585 
	C590.585266,215.455627 587.427185,221.384796 584.338867,227.348724 
	C581.885010,232.087509 582.552917,233.277313 587.832031,234.025269 
	C593.623413,234.845795 593.950256,236.210022 590.791870,241.108948 
	C589.329773,243.376846 589.303467,246.573318 588.639954,249.352066 
	C588.279724,250.860229 588.031189,252.400604 587.579346,253.879715 
	C587.161316,255.247940 585.811157,256.766541 586.128052,257.852051 
	C587.902954,263.931396 587.303711,269.717804 585.083618,275.533661 
	C584.647949,276.674805 585.109253,278.158386 584.902344,279.734070 
	C577.399780,283.704163 572.095947,283.007660 566.039307,276.282898 
	C557.648804,266.966888 547.529480,261.976929 534.752197,261.622437 
	C532.997314,261.509521 531.497131,261.616974 529.678284,261.764526 
	C528.932068,261.798706 528.504456,261.792755 528.106445,261.407166 
	C529.722839,257.599945 529.170227,255.871841 524.850952,255.956177 
	C515.108643,256.146423 505.359924,255.995071 495.614166,256.044678 
	C494.448547,256.050629 493.284882,256.441040 491.837250,256.704803 
	C492.700073,258.804779 493.305847,260.279144 493.457245,261.789551 
	C479.050323,261.294281 467.200531,265.627686 457.975739,276.521057 
	C456.319916,278.476410 453.914948,280.033905 451.553040,281.111359 
	C443.852997,284.624054 433.931702,279.144470 432.995789,270.829834 
	C431.527069,257.781586 430.313477,244.704468 429.020813,231.636719 
	C428.628143,227.667221 428.339905,223.687515 427.987427,219.713928 
	C427.636292,215.755112 427.264435,211.798141 426.901672,207.840363 
	C422.542084,226.782303 418.647522,245.644547 418.856201,265.048401 
	C413.257050,264.043182 410.318848,259.616913 409.788239,255.028442 
	C408.573639,244.524948 407.871918,233.840851 408.397186,223.301636 
	C408.727203,216.680405 412.930084,211.140274 419.881836,208.945160 
	C422.803131,208.022705 422.842346,206.069199 423.077087,203.596466 
	C424.154694,192.245544 424.830688,180.802185 426.854431,169.609619 
	C429.211395,156.574112 436.360718,145.635132 444.871246,135.674896 
	C457.243011,121.195740 472.950348,111.712845 491.351868,107.595726 
	C514.348633,102.450470 536.486328,105.246368 556.765076,118.196770 
	C558.022888,119.000099 559.330994,119.724792 560.811096,121.135056 
	C561.511902,122.764313 561.759033,124.183510 562.562927,124.656616 
	C570.249268,129.180283 574.884033,136.481674 579.830078,143.467957 
	C581.022095,145.151657 581.239868,147.510406 582.376953,149.250839 
	C584.488647,152.483063 587.013062,155.443237 589.211426,158.623215 
	C589.707031,159.340042 589.928406,160.607239 589.668884,161.429474 
	C587.015625,169.836426 594.115173,174.603729 596.845581,180.987152 
	C596.886230,181.441086 596.926880,181.895035 596.674683,182.977081 
	C595.913269,187.525269 595.444702,191.445358 594.916748,195.862442 
	C595.547546,196.102386 596.722229,196.549255 597.896851,196.996124 
M571.559692,207.821594 
	C573.330078,208.363235 575.100525,208.904877 576.870911,209.446518 
	C576.508179,207.545746 576.493225,205.475479 575.675049,203.796646 
	C574.993469,202.398041 573.479370,201.306870 572.145203,200.340103 
	C561.723083,192.788025 550.165161,190.480621 537.593323,193.045990 
	C535.139709,193.546677 532.000000,193.852997 532.924683,197.277267 
	C533.194275,198.275681 536.632690,199.098221 538.485779,198.878891 
	C550.496033,197.457382 561.788269,198.382339 571.559692,207.821594 
M485.461487,199.502548 
	C486.723511,198.571823 487.985535,197.641083 489.247559,196.710373 
	C488.063782,195.553421 487.007568,193.597916 485.673004,193.384674 
	C481.114410,192.656311 476.426788,192.021896 471.845093,192.296799 
	C461.585876,192.912308 452.316986,196.315094 445.337982,204.271042 
	C444.423767,205.313217 444.735138,207.430481 444.478851,209.049805 
	C446.027618,208.863953 448.133484,209.264130 449.039856,208.402512 
	C459.263397,198.683701 471.288483,196.487152 485.461487,199.502548 
M551.328125,238.020233 
	C557.646912,236.501633 561.006836,232.022919 559.782959,226.750397 
	C558.562988,221.494995 554.218018,218.605331 549.005554,219.582779 
	C544.613708,220.406342 541.895874,223.770523 541.840210,228.452240 
	C541.774780,233.950912 544.256714,236.684891 551.328125,238.020233 
M478.908813,224.842285 
	C475.630127,219.537399 471.048798,217.910065 466.449463,220.416611 
	C462.282257,222.687668 460.760834,227.765137 462.809326,232.564774 
	C464.630920,236.832794 469.082214,238.923050 473.437622,237.555695 
	C478.505920,235.964539 480.600891,231.536118 478.908813,224.842285 
z"/>
<path fill="#A85927" opacity="1.000000" stroke="none" 
	d="
M535.006958,261.842834 
	C547.529480,261.976929 557.648804,266.966888 566.039307,276.282898 
	C572.095947,283.007660 577.399780,283.704163 585.213623,279.553650 
	C591.055664,275.436127 591.427979,269.886353 591.593872,263.878265 
	C591.772400,262.371613 591.804199,261.189087 591.919678,259.578400 
	C593.614807,242.081711 595.226318,225.013214 596.837891,207.944717 
	C596.837891,207.944717 596.959290,207.957794 597.294739,208.110626 
	C598.627319,213.774536 599.947998,219.250198 600.555176,224.803894 
	C601.877808,236.902939 602.836975,249.041718 603.662170,261.442200 
	C603.493347,266.450073 603.606995,271.179932 603.771240,276.225586 
	C603.814026,276.966827 603.806274,277.392334 603.798462,277.817810 
	C602.362244,287.729401 600.088745,297.604584 599.655762,307.559814 
	C598.596130,331.922241 590.138123,352.485565 570.786499,368.748688 
	C569.154724,370.339783 567.960510,371.512482 566.444092,372.804047 
	C563.505432,374.692993 560.921997,376.514221 558.267456,378.224945 
	C538.861206,390.731140 517.898743,395.766266 495.045563,390.956512 
	C480.981171,387.996429 468.594482,381.293152 456.802063,372.761536 
	C455.118378,371.311371 453.619934,370.124084 452.121490,368.936768 
	C449.415070,366.037567 446.724762,363.123108 443.999512,360.241699 
	C430.573700,346.046478 424.014832,328.822968 424.352966,309.652740 
	C424.562378,297.780609 420.702209,286.848999 419.661102,275.368805 
	C419.376678,272.232635 419.217560,269.085083 418.928558,265.495575 
	C418.647522,245.644547 422.542084,226.782303 426.901672,207.840363 
	C427.264435,211.798141 427.636292,215.755112 427.987427,219.713928 
	C428.339905,223.687515 428.628143,227.667221 429.020813,231.636719 
	C430.313477,244.704468 431.527069,257.781586 432.995789,270.829834 
	C433.931702,279.144470 443.852997,284.624054 451.553040,281.111359 
	C453.914948,280.033905 456.319916,278.476410 457.975739,276.521057 
	C467.200531,265.627686 479.050323,261.294281 493.880493,261.895264 
	C500.226105,263.609680 505.697418,266.549561 511.161041,266.535370 
	C516.641846,266.521149 522.114807,263.560638 527.591919,261.893555 
	C527.749756,261.845490 527.915100,261.821869 528.076904,261.786835 
	C528.504456,261.792755 528.932068,261.798706 530.088196,261.857727 
	C532.213501,261.888184 533.610229,261.865509 535.006958,261.842834 
M533.239197,284.916504 
	C518.132446,281.758759 503.039459,281.242035 487.284607,285.247131 
	C485.751801,286.198883 484.219025,287.150665 482.001862,288.102142 
	C476.938629,293.329102 476.013031,299.359100 479.008606,305.841034 
	C482.414551,313.210938 487.881409,318.307953 496.217377,319.452423 
	C497.478973,319.625671 499.068878,318.703003 500.256561,317.911499 
	C508.659637,312.311768 515.667114,312.437805 523.843506,317.957184 
	C525.511169,319.082886 528.249207,319.655640 530.176331,319.184540 
	C538.283875,317.202881 543.195068,311.473999 546.050842,303.933899 
	C548.734558,296.848358 546.589844,291.208710 539.464966,286.434357 
	C537.657104,285.992645 535.849243,285.550934 533.239197,284.916504 
z"/>
<path fill="#FBD2AA" opacity="1.000000" stroke="none" 
	d="
M572.072449,373.440247 
	C570.712524,389.469055 560.851196,399.300842 548.296265,406.570007 
	C536.509521,413.394409 523.324524,416.434509 509.691803,415.872284 
	C491.973236,415.141541 475.090881,411.361359 462.349976,397.686371 
	C456.390869,391.290375 452.313782,383.711945 451.937012,374.175415 
	C451.965881,372.399658 452.031891,371.071442 452.109680,369.339966 
	C453.619934,370.124084 455.118378,371.311371 456.810944,373.125488 
	C457.075409,374.243744 456.987579,374.843536 457.239105,375.210999 
	C464.816437,386.281769 475.137756,394.213135 487.834930,397.775055 
	C510.190674,404.046417 532.155823,403.368225 552.025513,389.405304 
	C558.198669,385.067291 564.077087,380.214966 566.766357,372.685181 
	C567.960510,371.512482 569.154724,370.339783 570.640137,369.048157 
	C571.303162,370.313690 571.674866,371.698090 572.072449,373.440247 
z"/>
<path fill="#FBD2AA" opacity="1.000000" stroke="none" 
	d="
M603.944580,261.164246 
	C602.836975,249.041718 601.877808,236.902939 600.555176,224.803894 
	C599.947998,219.250198 598.627319,213.774536 597.292236,208.049637 
	C596.105103,206.129761 595.255920,204.423737 594.220032,202.342453 
	C594.685547,202.147110 595.951904,201.615768 597.567444,201.043762 
	C598.042969,204.829010 599.046021,207.243805 603.352478,209.070389 
	C610.423767,212.069656 613.878235,218.639420 613.898499,226.340546 
	C613.922485,235.462921 613.519958,244.598770 612.903381,253.701752 
	C612.749756,255.969864 611.637512,258.828186 609.968262,260.210999 
	C605.618225,263.814667 604.412354,268.171143 604.904663,273.449921 
	C605.023926,274.728027 604.620056,276.054901 604.127625,277.588562 
	C603.806274,277.392334 603.814026,276.966827 603.839111,275.768738 
	C603.885864,270.385498 603.915222,265.774872 603.944580,261.164246 
z"/>
<path fill="#FBD2AA" opacity="1.000000" stroke="none" 
	d="
M596.891235,180.577179 
	C594.115173,174.603729 587.015625,169.836426 589.668884,161.429474 
	C589.928406,160.607239 589.707031,159.340042 589.211426,158.623215 
	C587.013062,155.443237 584.488647,152.483063 582.376953,149.250839 
	C581.239868,147.510406 581.022095,145.151657 579.830078,143.467957 
	C574.884033,136.481674 570.249268,129.180283 562.562927,124.656616 
	C561.759033,124.183510 561.511902,122.764313 560.995605,121.420227 
	C566.536316,126.113403 572.628906,130.699051 577.529297,136.323456 
	C588.442932,148.849411 594.461731,163.782639 596.891235,180.577179 
z"/>
<path fill="#FBD2AA" opacity="1.000000" stroke="none" 
	d="
M597.935669,196.538422 
	C596.722229,196.549255 595.547546,196.102386 594.916748,195.862442 
	C595.444702,191.445358 595.913269,187.525269 596.659302,183.318909 
	C597.282654,187.381989 597.628540,191.731339 597.935669,196.538422 
z"/>
<path fill="#FBD2AA" opacity="1.000000" stroke="none" 
	d="
M596.471619,207.973068 
	C595.226318,225.013214 593.614807,242.081711 591.575317,259.654663 
	C591.247375,261.506866 591.347229,262.854645 591.447083,264.202423 
	C591.427979,269.886353 591.055664,275.436127 585.468140,279.303589 
	C585.109253,278.158386 584.647949,276.674805 585.083618,275.533661 
	C587.303711,269.717804 587.902954,263.931396 586.128052,257.852051 
	C585.811157,256.766541 587.161316,255.247940 587.579346,253.879715 
	C588.031189,252.400604 588.279724,250.860229 588.639954,249.352066 
	C589.303467,246.573318 589.329773,243.376846 590.791870,241.108948 
	C593.950256,236.210022 593.623413,234.845795 587.832031,234.025269 
	C582.552917,233.277313 581.885010,232.087509 584.338867,227.348724 
	C587.427185,221.384796 590.585266,215.455627 593.827759,209.574585 
	C594.226440,208.851425 595.329041,208.516342 596.471619,207.973068 
z"/>
<path fill="#59442A" opacity="1.000000" stroke="none" 
	d="
M571.309631,207.578888 
	C561.788269,198.382339 550.496033,197.457382 538.485779,198.878891 
	C536.632690,199.098221 533.194275,198.275681 532.924683,197.277267 
	C532.000000,193.852997 535.139709,193.546677 537.593323,193.045990 
	C550.165161,190.480621 561.723083,192.788025 572.145203,200.340103 
	C573.479370,201.306870 574.993469,202.398041 575.675049,203.796646 
	C576.493225,205.475479 576.508179,207.545746 576.870911,209.446518 
	C575.100525,208.904877 573.330078,208.363235 571.309631,207.578888 
z"/>
<path fill="#59442A" opacity="1.000000" stroke="none" 
	d="
M485.056519,199.426056 
	C471.288483,196.487152 459.263397,198.683701 449.039856,208.402512 
	C448.133484,209.264130 446.027618,208.863953 444.478851,209.049805 
	C444.735138,207.430481 444.423767,205.313217 445.337982,204.271042 
	C452.316986,196.315094 461.585876,192.912308 471.845093,192.296799 
	C476.426788,192.021896 481.114410,192.656311 485.673004,193.384674 
	C487.007568,193.597916 488.063782,195.553421 489.247559,196.710358 
	C487.985535,197.641083 486.723511,198.571823 485.056519,199.426056 
z"/>
<path fill="#59442A" opacity="1.000000" stroke="none" 
	d="
M550.927979,238.021225 
	C544.256714,236.684891 541.774780,233.950912 541.840210,228.452240 
	C541.895874,223.770523 544.613708,220.406342 549.005554,219.582779 
	C554.218018,218.605331 558.562988,221.494995 559.782959,226.750397 
	C561.006836,232.022919 557.646912,236.501633 550.927979,238.021225 
z"/>
<path fill="#E1B489" opacity="1.000000" stroke="none" 
	d="
M528.106445,261.407166 
	C527.915100,261.821869 527.749756,261.845490 527.591919,261.893555 
	C522.114807,263.560638 516.641846,266.521149 511.161041,266.535370 
	C505.697418,266.549561 500.226105,263.609680 494.334900,261.859253 
	C493.305847,260.279144 492.700073,258.804779 491.837250,256.704803 
	C493.284882,256.441040 494.448547,256.050629 495.614166,256.044678 
	C505.359924,255.995071 515.108643,256.146423 524.850952,255.956177 
	C529.170227,255.871841 529.722839,257.599945 528.106445,261.407166 
z"/>
<path fill="#59442A" opacity="1.000000" stroke="none" 
	d="
M479.003418,225.216492 
	C480.600891,231.536118 478.505920,235.964539 473.437622,237.555695 
	C469.082214,238.923050 464.630920,236.832794 462.809326,232.564774 
	C460.760834,227.765137 462.282257,222.687668 466.449463,220.416611 
	C471.048798,217.910065 475.630127,219.537399 479.003418,225.216492 
z"/>
<path fill="#E1B489" opacity="1.000000" stroke="none" 
	d="
M534.752197,261.622437 
	C533.610229,261.865509 532.213501,261.888184 530.406860,261.817657 
	C531.497131,261.616974 532.997314,261.509521 534.752197,261.622437 
z"/>
<path fill="#E1B489" opacity="1.000000" stroke="none" 
	d="
M566.444092,372.804047 
	C564.077087,380.214966 558.198669,385.067291 552.025513,389.405304 
	C532.155823,403.368225 510.190674,404.046417 487.834930,397.775055 
	C475.137756,394.213135 464.816437,386.281769 457.239105,375.210999 
	C456.987579,374.843536 457.075409,374.243744 456.996216,373.388306 
	C468.594482,381.293152 480.981171,387.996429 495.045563,390.956512 
	C517.898743,395.766266 538.861206,390.731140 558.267456,378.224945 
	C560.921997,376.514221 563.505432,374.692993 566.444092,372.804047 
z"/>
<path fill="#FBD2AA" opacity="1.000000" stroke="none" 
	d="
M539.943115,286.934265 
	C546.589844,291.208710 548.734558,296.848358 546.050842,303.933899 
	C543.195068,311.473999 538.283875,317.202881 530.176331,319.184540 
	C528.249207,319.655640 525.511169,319.082886 523.843506,317.957184 
	C515.667114,312.437805 508.659637,312.311768 500.256561,317.911499 
	C499.068878,318.703003 497.478973,319.625671 496.217377,319.452423 
	C487.881409,318.307953 482.414551,313.210938 479.008606,305.841034 
	C476.013031,299.359100 476.938629,293.329102 482.439026,288.485138 
	C484.480164,295.244965 486.861969,301.147797 492.782440,305.311890 
	C502.401886,314.539276 520.000488,314.213501 529.288330,304.877777 
	C533.049744,298.815857 536.496460,292.875061 539.943115,286.934265 
z"/>
<path fill="#463629" opacity="1.000000" stroke="none" 
	d="
M492.679932,304.956818 
	C486.861969,301.147797 484.480164,295.244965 482.781219,288.485291 
	C484.219025,287.150665 485.751801,286.198883 487.715240,285.534973 
	C489.417511,289.874908 492.670807,290.766846 496.332214,290.807434 
	C505.953430,290.914154 515.584717,290.710236 525.193420,291.094696 
	C529.969849,291.285828 532.711487,289.502350 534.041382,285.109253 
	C535.849243,285.550934 537.657104,285.992645 539.704041,286.684326 
	C536.496460,292.875061 533.049744,298.815857 529.025879,304.662201 
	C524.410828,300.889069 519.799622,299.257751 514.265930,300.108795 
	C511.907501,300.471558 509.392334,300.459564 507.036957,300.075165 
	C500.382080,298.988983 495.275513,300.600739 492.679932,304.956818 
z"/>
<path fill="#FEFEFE" opacity="1.000000" stroke="none" 
	d="
M533.640259,285.012878 
	C532.711487,289.502350 529.969849,291.285828 525.193420,291.094696 
	C515.584717,290.710236 505.953430,290.914154 496.332214,290.807434 
	C492.670807,290.766846 489.417511,289.874908 488.057648,285.487122 
	C503.039459,281.242035 518.132446,281.758759 533.640259,285.012878 
z"/>
<path fill="#59442A" opacity="1.000000" stroke="none" 
	d="
M603.662109,261.442200 
	C603.915222,265.774872 603.885864,270.385498 603.788574,275.452972 
	C603.606995,271.179932 603.493347,266.450073 603.662109,261.442200 
z"/>
<path fill="#FDD3AB" opacity="1.000000" stroke="none" 
	d="
M591.593872,263.878265 
	C591.347229,262.854645 591.247375,261.506866 591.491760,260.082825 
	C591.804199,261.189087 591.772400,262.371613 591.593872,263.878265 
z"/>
<path fill="#EC5959" opacity="1.000000" stroke="none" 
	d="
M492.782440,305.311890 
	C495.275513,300.600739 500.382080,298.988983 507.036957,300.075165 
	C509.392334,300.459564 511.907501,300.471558 514.265930,300.108795 
	C519.799622,299.257751 524.410828,300.889069 528.711121,304.783325 
	C520.000488,314.213501 502.401886,314.539276 492.782440,305.311890 
z"/>
</g>
</svg>