<?xml version="1.0" encoding="UTF-8"?>
<svg version="1.1" xmlns="http://www.w3.org/2000/svg" width="1024" height="1536">
<defs>
<clipPath id="shirtClip">
<path d="M 460 408 L 565 408 L 615 425 L 680 460 L 745 490 L 745 855 L 645 855 L 645 860 L 380 860 L 380 855 L 280 855 L 280 490 L 345 460 L 410 425 L 460 408 Z"/>
</clipPath>
</defs>
<g clip-path="url(#shirtClip)">
<path d="M0 0 C0.33 0 0.66 0 1 0 C1.05597855 0.60038589 1.11195709 1.20077179 1.16963196 1.8193512 C1.76519396 8.19783789 2.36674645 14.57574139 2.97143555 20.95336914 C3.19490742 23.31813985 3.41696488 25.68304475 3.63745117 28.0480957 C4.27820494 34.91539973 4.94462275 41.77931373 5.65338135 48.63995361 C5.88414034 50.8768815 6.11002575 53.1143176 6.33099365 55.35223389 C6.64968994 58.51772281 6.99803644 61.67852279 7.35546875 64.83984375 C7.4462117 65.78058243 7.53695465 66.72132111 7.63044739 67.69056702 C8.35187406 73.68961618 9.63225209 76.77337481 14 81 C18.18297166 83.94709367 21.61614859 84.59406767 26.578125 83.828125 C32.45511294 81.81857428 36.86449405 76.99866072 41.31640625 72.83203125 C52.23105381 62.71462751 63.94641322 60.51685832 78.625 60.7421875 C84.45691574 61.18768106 89.87839119 62.30271295 94.5 66 C96.97280414 67.31457645 96.97280414 67.31457645 99.37890625 66.109375 C101.14176014 65.21640098 102.88320429 64.2795809 104.59765625 63.296875 C113.27391522 58.61310593 126.31026532 60.21244438 135.5 62.625 C144.21569627 65.48716708 149.97551764 69.98913585 156.625 76.1875 C161.85318958 81.02248312 165.29438727 84.12561399 172.6875 83.875 C175.90833954 83.0242122 177.5094647 82.12156711 180 80 C180.66 80 181.32 80 182 80 C187.43999663 70.44175592 186.84029379 56.18118274 188 45.3125 C188.12973206 44.11000107 188.12973206 44.11000107 188.26208496 42.88320923 C189.79802159 28.60839869 191.0437403 14.32640301 192 0 C192.66 0 193.32 0 194 0 C194.83940496 5.51302482 195.67545918 11.02654407 196.50854492 16.54052734 C196.79182614 18.41240833 197.07598867 20.28415617 197.36108398 22.15576172 C197.77304721 24.86129952 198.18173424 27.56731603 198.58984375 30.2734375 C198.71592514 31.09677582 198.84200653 31.92011414 198.97190857 32.7684021 C201.8364421 51.85928473 204.01779475 74.35373364 196.92578125 92.79296875 C195.54005271 97.59331951 195.65796012 102.34000183 195.5625 107.3125 C194.76861106 131.87679313 190.0048992 157.20943223 171.4296875 174.74609375 C170.62789062 175.48988281 169.82609375 176.23367188 169 177 C168.15953125 177.84304688 167.3190625 178.68609375 166.453125 179.5546875 C164.31765785 181.68335379 162.14598531 183.705954 159.875 185.6875 C159.21242188 186.26886719 158.54984375 186.85023438 157.8671875 187.44921875 C156 189 156 189 153 191 C152.26656572 194.06556598 152.26656572 194.06556598 152 197 C152.56847656 197.18175781 153.13695312 197.36351562 153.72265625 197.55078125 C154.49480469 197.80214844 155.26695312 198.05351562 156.0625 198.3125 C156.81660156 198.55613281 157.57070313 198.79976562 158.34765625 199.05078125 C161 200 161 200 164.12109375 201.44140625 C168.9018321 203.51872397 173.92417692 204.51978046 179 205.625 C179.9590625 205.8415625 180.918125 206.058125 181.90625 206.28125 C185.9476319 207.1805685 189.96075619 208.04028679 194.06640625 208.5859375 C197 209 197 209 198.9375 210 C201.51208821 211.24828519 203.98357886 211.36333456 206.80078125 211.66015625 C209.90356095 212.13962665 212.72694903 213.14284592 215.67578125 214.19921875 C217.95369848 214.98404738 220.23143569 215.5822823 222.5625 216.1875 C236.92571386 220.4673344 249.59903981 228.87135202 260.625 238.8125 C261.15899414 239.29307861 261.69298828 239.77365723 262.24316406 240.26879883 C263.53725667 241.46896536 264.77429565 242.7300692 266 244 C266 244.66 266 245.32 266 246 C266.66 246 267.32 246 268 246 C282.4589078 270.14710998 288.44873899 294.56476739 290 322.625 C290.0808307 324.0082953 290.16218857 325.39155989 290.24403381 326.77479553 C290.41498308 329.68422967 290.58204979 332.59384904 290.74588013 335.50369263 C291.00158278 340.0450934 291.26694569 344.58590246 291.53295898 349.12670898 C292.26393505 361.65644812 292.97674754 374.18690573 293.59765625 386.72265625 C294.59876666 406.92093542 296.07537942 426.90289062 299.4855957 446.86206055 C301.44918476 458.36308216 302.74240814 469.81546522 303.6875 481.4375 C303.77849976 482.55085724 303.77849976 482.55085724 303.87133789 483.68670654 C304.22543172 488.07866335 304.55119589 492.47194924 304.85266113 496.86782837 C304.99224864 498.88782851 305.14087863 500.90719785 305.29003906 502.92651367 C305.97305164 512.90161054 306.11471058 522.87601797 306.2109375 532.87109375 C306.21811861 533.57957144 306.22529972 534.28804913 306.23269844 535.01799583 C306.30007061 541.67574025 306.36446945 548.33346378 306.40136719 554.99145508 C306.42226748 558.66931095 306.45747366 562.34679027 306.50212479 566.02443123 C306.51625655 567.41465931 306.52500085 568.80495329 306.52817917 570.19524956 C306.53307008 572.12300551 306.55780602 574.05068051 306.58349609 575.97827148 C306.59158295 577.07203598 306.5996698 578.16580048 306.60800171 579.29270935 C307.05531477 582.38202506 307.73811347 582.99901071 310 585 C310.34057617 588.1862793 310.34057617 588.1862793 310.29296875 592.07421875 C310.28872391 592.7580513 310.28447906 593.44188385 310.28010559 594.1464386 C310.26333353 596.32719561 310.22568657 598.50702309 310.1875 600.6875 C310.17245114 602.16730435 310.15876308 603.6471232 310.14648438 605.12695312 C310.11343569 608.75160336 310.06166446 612.37571094 310 616 C309.10434326 615.83846436 308.20868652 615.67692871 307.28588867 615.51049805 C292.753783 613.25277957 277.91840031 614.7766836 264.3125 620.1953125 C262 621 262 621 259 621 C257.51315902 615.158839 256.58846593 609.35141012 255.875 603.375 C255.78750488 602.65900635 255.70000977 601.9430127 255.60986328 601.20532227 C254.35080009 590.20941929 254.35080009 590.20941929 255.56298828 586.08398438 C256.09456527 583.54904515 255.73320976 581.93684549 255.109375 579.4296875 C254.89587402 578.54200684 254.68237305 577.65432617 254.46240234 576.73974609 C254.22730957 575.79437988 253.9922168 574.84901367 253.75 573.875 C252.04227085 566.73455012 250.50116612 559.63077225 249.375 552.375 C248.62287229 547.54587916 247.78008977 542.84945504 246.5 538.125 C244.83357775 531.8955472 243.9609214 525.58376771 243.08984375 519.20361328 C242.55121353 515.33450386 241.9430973 511.57245661 240.9453125 507.79296875 C240.0769157 504.30861631 239.65150673 501.13686765 239.4375 497.5625 C239.51373923 493.96595458 239.51373923 493.96595458 238 491 C237.75665095 488.3985833 237.57189004 485.81434343 237.421875 483.20703125 C237.31556655 481.54266361 237.20826462 479.87835921 237.10009766 478.21411133 C237.04364075 477.3334903 236.98718384 476.45286926 236.92901611 475.54556274 C235.80215516 458.34162705 233.85142557 441.59814841 230.67480469 424.63818359 C229.70920493 419.43218953 228.81174437 414.21512987 227.91552734 408.99682617 C227.48503826 406.49237774 227.05072478 403.98858237 226.61181641 401.4855957 C225.59602792 395.66665012 224.66343775 389.8699818 224 384 C221.04605531 399.01911033 218.44765333 413.94639611 216.9375 429.1875 C216.85806152 429.97576172 216.77862305 430.76402344 216.69677734 431.57617188 C215.08361471 448.73343007 214.79776393 465.90295216 214.8125 483.125 C214.81240936 484.76624344 214.81240936 484.76624344 214.81231689 486.44064331 C214.82582774 503.71709223 215.40411935 520.82492098 216.70898438 538.05224609 C217.19155305 544.59850074 217.59282954 551.14955057 217.99127197 557.7013855 C218.12010464 559.79543084 218.25455894 561.88904805 218.39013672 563.98266602 C219.39073614 579.99930319 219.39073614 579.99930319 219 586 C218.67 586.33 218.34 586.66 218 587 C217.79721125 593.42390129 218.26668051 599.63805864 218.98828125 606.015625 C219.20126205 607.98758536 219.41380816 609.9595927 219.62597656 611.93164062 C219.73816528 612.96135986 219.850354 613.9910791 219.96594238 615.05200195 C221.9304421 633.18020327 223.58792222 651.30230704 224.75 669.5 C224.80862213 670.41769165 224.86724426 671.3353833 224.92764282 672.28088379 C225.25142319 677.40204932 225.56028104 682.52397111 225.86035156 687.64657593 C225.99591317 689.93112671 226.13759206 692.21521308 226.28125 694.49926758 C226.9465627 705.19015188 227.31532961 715.87179472 227.60546875 726.58007812 C227.78297033 732.64267531 228.02858614 738.66967175 228.52734375 744.71484375 C229.21618241 753.76367887 229.10791974 762.80647741 229.0625 771.875 C229.05747018 773.6419258 229.05290992 775.408853 229.04882812 777.17578125 C229.0379509 781.45055626 229.02076977 785.72526208 229 790 C220.83746176 792.47603416 212.85281961 794.61460823 204.375 795.6875 C203.53710938 795.80416016 202.69921875 795.92082031 201.8359375 796.04101562 C199.22676525 796.39301523 196.61622826 796.70517974 194 797 C192.73978027 797.14574463 192.73978027 797.14574463 191.45410156 797.29443359 C181.980811 798.23904921 172.47838701 798.2213974 162.96728516 798.24023438 C160.03388539 798.24988848 157.10120354 798.28097573 154.16796875 798.3125 C124.9855433 798.47567424 124.9855433 798.47567424 112 793 C111.85854553 792.0053775 111.71709106 791.010755 111.5713501 789.98599243 C110.22024636 780.4872414 108.86756088 770.9887167 107.51343155 761.4903965 C106.81776384 756.61040481 106.12260226 751.73034228 105.42871094 746.85009766 C102.39962812 725.54865437 99.36141515 704.25208989 96 683 C94.04473405 684.95526595 94.08762079 688.39644699 93.625 691.0625 C93.49488525 691.80113281 93.36477051 692.53976562 93.23071289 693.30078125 C91.91959903 701.01154816 90.97894924 708.76593642 90.09033203 716.53540039 C89.47903819 721.74440428 88.65711189 726.77441979 87.45288086 731.87744141 C86.70793266 735.36885902 86.39624814 738.88726924 86.0625 742.4375 C85.43505615 748.56606574 84.62611068 754.61958738 83.5625 760.6875 C81.68475418 771.40971827 80.34742607 782.20037281 79 793 C74.3349184 795.2037502 69.61920059 795.84235216 64.5625 796.5625 C63.6643457 796.69180908 62.76619141 796.82111816 61.84082031 796.9543457 C30.92377099 801.27974385 -3.24717151 800.61449435 -33.31347656 791.43139648 C-34.63777679 791.02859718 -34.63777679 791.02859718 -35.98883057 790.61766052 C-36.98435944 790.31191856 -36.98435944 790.31191856 -38 790 C-38.09690159 774.83254058 -37.91483666 759.71550813 -37.25 744.5625 C-37.20842773 743.58173492 -37.16685547 742.60096985 -37.12402344 741.59048462 C-36.3053544 722.44329403 -35.18061219 703.31509649 -34 684.1875 C-33.95794937 683.50465565 -33.91589874 682.82181129 -33.87257385 682.11827469 C-32.96269326 667.36194505 -31.9999776 652.60946435 -30.9375 637.86328125 C-30.85822266 636.7374614 -30.77894531 635.61164154 -30.69726562 634.45170593 C-30.62056641 633.41101456 -30.54386719 632.37032318 -30.46484375 631.2980957 C-30.399021 630.39162796 -30.33319824 629.48516022 -30.26538086 628.55122375 C-29.99849791 625.98555975 -29.51637881 623.52556094 -29 621 C-28.82443329 618.60616186 -28.68224176 616.20977901 -28.5625 613.8125 C-28.07172501 604.83227173 -27.0643062 595.92777237 -26 587 C-26.66 587 -27.32 587 -28 587 C-27.65830425 574.09296205 -27.10526652 561.21184772 -26.265625 548.328125 C-23.93976462 512.49802356 -23.19843691 477.23434078 -25.25 441.375 C-25.30440247 440.37531189 -25.35880493 439.37562378 -25.41485596 438.34564209 C-26.15381632 425.18343792 -27.7391178 412.37701455 -30.08886719 399.40478516 C-30.87769483 394.97685521 -31.40515858 390.5693518 -31.7900238 386.08912659 C-32.05815682 383.42137743 -32.63513862 380.90463714 -33.3125 378.3125 C-37.08596272 362.71922022 -39.46379819 346.64925616 -41.5625 330.75 C-41.70886604 328.09539142 -41.70886604 328.09539142 -43 327 C-45.05216987 304.14873469 -40.44029176 282.02528745 -25.59375 264.09375 C-12.10938716 248.50570762 5.77200071 238.80488473 24.08154297 229.93505859 C27.40120454 228.31705098 30.69912056 226.65592291 34 225 C33.63656494 224.45802979 33.27312988 223.91605957 32.89868164 223.35766602 C28.24387107 216.34020673 26.70659447 210.36205767 27 202 C28.60032137 201.15930585 30.20541171 200.32768495 31.8125 199.5 C32.70582031 199.0359375 33.59914063 198.571875 34.51953125 198.09375 C37 197 37 197 40 197 C40 194.69 40 192.38 40 190 C39.00226563 189.73509766 39.00226563 189.73509766 37.984375 189.46484375 C33.60127802 187.31345453 30.63347661 184.03503639 27.25 180.5625 C26.5398877 179.83820801 25.82977539 179.11391602 25.09814453 178.36767578 C23.04978983 176.25941946 21.02002795 174.13538355 19 172 C18.24638184 171.20650146 18.24638184 171.20650146 17.47753906 170.39697266 C2.8959873 154.75839391 -2.06335216 131.59478856 -2.3125 110.75 C-2.51360407 102.41355737 -3.51119276 94.82409838 -5.5625 86.75 C-12.68304145 57.95008694 -6.18716926 28.32827169 0 0 Z " fill="#D5D5D5" transform="translate(414,224)"/>
<path d="M0 0 C1.61328125 1.34765625 1.61328125 1.34765625 3.3125 3.0625 C18.57955619 16.6549248 39.59618149 21.11603617 59.59375 20.29296875 C78.72467653 19.13693327 96.15223498 14.49179439 110.84375 1.63671875 C114.20566822 -0.91517207 114.20566822 -0.91517207 117 -1 C119.62401905 -0.02502044 122.00458439 1.01033822 124.5 2.25 C125.60746582 2.78874756 125.60746582 2.78874756 126.73730469 3.33837891 C129.16974081 4.53734565 131.58664795 5.76308621 134 7 C134.83853516 7.42958008 135.67707031 7.85916016 136.54101562 8.30175781 C160.20018961 20.56314722 179.32116576 35.21910517 189 61 C192.5529164 73.06121619 195.21983189 91.00732839 190 103 C188.16774281 106.20864177 186.21326263 109.31402648 184.21484375 112.421875 C180.26772884 118.65835117 177.16428999 125.34368998 174 132 C173.69707031 132.62181152 173.39414062 133.24362305 173.08203125 133.88427734 C162.64948858 155.41563315 158.39386247 178.48007299 155 202 C154.87254395 202.8672168 154.74508789 203.73443359 154.61376953 204.62792969 C151.88701308 223.46807456 151.79907141 242.29117746 151.81132126 261.29032516 C151.81250899 263.32792066 151.81196557 265.36551104 151.81130981 267.40310669 C151.81242905 283.59705777 151.93867785 299.76905238 152.9375 315.9375 C152.98097565 316.64234528 153.02445129 317.34719055 153.06924438 318.07339478 C153.45591429 324.1179115 153.97954118 330.02888153 155 336 C155.21956693 338.5182429 155.40466439 341.03963558 155.5625 343.5625 C155.64628906 344.84253906 155.73007812 346.12257813 155.81640625 347.44140625 C156.11397606 353.28995584 156.0353506 359.14582782 156 365 C123.38860306 371.1021881 91.41580763 373.27166361 58.29231644 373.30962753 C56.03755185 373.31245294 53.78280465 373.3179779 51.52804565 373.32363892 C27.54100345 373.36719721 3.63685604 372.6310779 -20.125 369.0625 C-21.83236328 368.82756836 -21.83236328 368.82756836 -23.57421875 368.58789062 C-30.02106149 367.65037178 -35.86313106 366.1587354 -42 364 C-42.18127463 350.3761655 -41.8431969 336.95306706 -40.71661377 323.37823486 C-39.10401396 303.34682813 -38.65964776 283.34156879 -38.62985229 263.25662613 C-38.6251019 261.16976604 -38.61450862 259.08301375 -38.60229492 256.9961853 C-38.45356316 228.30243494 -40.31840593 199.99097177 -47 172 C-47.22558594 171.04416016 -47.45117188 170.08832031 -47.68359375 169.10351562 C-50.88405788 155.82249356 -55.22230439 143.37531018 -61 131 C-61.33290039 130.28585937 -61.66580078 129.57171875 -62.00878906 128.8359375 C-65.97354815 120.43359371 -70.37860771 112.46703939 -75.43359375 104.671875 C-81.63695345 94.09058315 -78.70264908 75.61834465 -76.171875 64.0703125 C-72.44835667 49.81514545 -63.56037975 35.99802753 -52 27 C-50.68902344 25.95392578 -50.68902344 25.95392578 -49.3515625 24.88671875 C-38.25854811 16.2769931 -26.41955125 9.52211462 -13.8125 3.375 C-12.90314697 2.92455322 -11.99379395 2.47410645 -11.05688477 2.01000977 C-10.19893311 1.60194092 -9.34098145 1.19387207 -8.45703125 0.7734375 C-7.69366455 0.40653809 -6.93029785 0.03963867 -6.14379883 -0.33837891 C-3.63778129 -1.11178826 -2.4267124 -0.92562302 0 0 Z " fill="#D5D5D5" transform="translate(453,454)"/>
<path d="M0 0 C0.08636719 0.75023437 0.17273438 1.50046875 0.26171875 2.2734375 C1.28371076 9.71803985 3.28027508 15.49372156 7 22 C7.33 22.66 7.66 23.32 8 24 C7.32122803 24.31638428 6.64245605 24.63276855 5.94311523 24.95874023 C-18.78936355 36.39166903 -18.78936355 36.39166903 -41 52 C-41.81984375 52.67546875 -42.6396875 53.3509375 -43.484375 54.046875 C-58.00086223 66.45187318 -66.26199058 83.21650968 -69 102 C-69.24040268 106.0261614 -69.23644993 110.0305717 -69.1875 114.0625 C-69.18685547 115.10599609 -69.18621094 116.14949219 -69.18554688 117.22460938 C-69.60182659 121.95617878 -69.60182659 121.95617878 -68 126 C-66.08150809 133.58545146 -65.2250964 141.39266237 -64.26757812 149.14306641 C-63.65126661 153.9069667 -62.93009225 158.53808474 -61.7421875 163.1953125 C-57.73892966 179.39597255 -60.47887287 193.95031087 -63.61352539 209.99780273 C-64.69727724 215.612363 -65.67974526 221.24641487 -66.6875 226.875 C-67.00521362 228.62768188 -67.00521362 228.62768188 -67.3293457 230.41577148 C-68.97774955 239.59541491 -70.18284152 248.71323425 -71 258 C-71.16580566 259.87655273 -71.16580566 259.87655273 -71.33496094 261.79101562 C-71.42618729 262.82478584 -71.42618729 262.82478584 -71.51925659 263.87944031 C-71.71354588 266.07636932 -71.90926119 268.27316867 -72.10498047 270.4699707 C-72.36442371 273.38456289 -72.61521091 276.29970817 -72.85986328 279.21557617 C-73.51967789 286.90528836 -74.50099929 294.42439761 -76 302 C-76.36440916 304.07073497 -76.72351083 306.14240891 -77.078125 308.21484375 C-79.38567151 321.49928141 -81.93949669 334.69451121 -84.82788086 347.86499023 C-87.00755541 357.85829798 -88.88246732 367.89095841 -90.61450195 377.97070312 C-91 380 -91 380 -91.61010742 382.13867188 C-92.21815284 384.081269 -92.21815284 384.081269 -91 386 C-91.14229005 393.55231823 -92.06157306 401.12471346 -92.9375 408.625 C-93.01202393 409.29934082 -93.08654785 409.97368164 -93.16333008 410.66845703 C-93.59359002 414.14833264 -94.17083568 416.98455757 -96 420 C-96.53367187 419.74605469 -97.06734375 419.49210937 -97.6171875 419.23046875 C-98.73480469 418.71419922 -98.73480469 418.71419922 -99.875 418.1875 C-100.59429687 417.85105469 -101.31359375 417.51460937 -102.0546875 417.16796875 C-110.61321755 413.7740689 -117.96860372 412.56527572 -127.1875 412.75 C-128.22841797 412.75515625 -129.26933594 412.7603125 -130.34179688 412.765625 C-135.65496944 412.81960009 -140.76513196 413.0818619 -146 414 C-146.09383517 404.99182384 -146.11551684 395.99801589 -145.625 387 C-145.55539062 385.700625 -145.48578125 384.40125 -145.4140625 383.0625 C-145 380 -145 380 -143 378 C-142.68194877 375.49418167 -142.68194877 375.49418167 -142.71289062 372.53833008 C-142.69276917 370.81801323 -142.69276917 370.81801323 -142.67224121 369.0629425 C-142.66432556 367.18520393 -142.66432556 367.18520393 -142.65625 365.26953125 C-142.63388316 363.28629942 -142.61150557 361.30306767 -142.58856964 359.31984234 C-142.55081759 355.81746051 -142.52599453 352.31498542 -142.5 348.8125 C-142.36779902 331.34550935 -142.02566391 314.02380084 -140.25592041 296.62905884 C-139.83079807 292.26179624 -139.50864422 287.88737619 -139.18359375 283.51171875 C-139.05811117 281.86391945 -138.93246273 280.21613278 -138.80664062 278.56835938 C-138.61831043 276.08664134 -138.43137046 273.60484171 -138.24731445 271.12280273 C-138.06314671 268.64797495 -137.87381278 266.17358772 -137.68359375 263.69921875 C-137.62940781 262.95048996 -137.57522186 262.20176117 -137.51939392 261.43034363 C-137.11361024 256.22722048 -137.11361024 256.22722048 -136 254 C-135.57369015 251.14765056 -135.19221632 248.30345847 -134.84375 245.44140625 C-134.68295959 244.15302101 -134.68295959 244.15302101 -134.5189209 242.83860779 C-134.2919543 241.01379675 -134.06678617 239.18876126 -133.84326172 237.36352539 C-133.50514051 234.60444667 -133.16127927 231.84613261 -132.81640625 229.08789062 C-131.15677519 215.74015176 -129.90904576 202.58016941 -129.5625 189.125 C-129.22627876 177.59944978 -128.59066402 166.12888431 -127.72851562 154.62866211 C-127.1429061 146.64756335 -126.79457153 138.68587237 -126.5625 130.6875 C-125.98090458 112.78198845 -124.00734043 95.23058209 -119 78 C-118.53787109 76.29650391 -118.53787109 76.29650391 -118.06640625 74.55859375 C-113.89345021 59.89264452 -106.40255472 47.12831435 -96 36 C-95.34 36 -94.68 36 -94 36 C-94 35.34 -94 34.68 -94 34 C-74.98796243 17.67244743 -50.84277983 11.37948793 -27 6 C-24.52051922 5.43885737 -22.04138641 4.8762696 -19.5625 4.3125 C-18.61503906 4.10238281 -17.66757812 3.89226562 -16.69140625 3.67578125 C-13.90833266 3.01396433 -13.90833266 3.01396433 -10.890625 1.95703125 C-7.3812666 0.79514908 -3.72085344 0 0 0 Z " fill="#D6D6D6" transform="translate(441,426)"/>
<path d="M0 0 C6.43176179 3.617866 6.43176179 3.617866 8.7890625 5.203125 C14.7814917 9.2320774 21.24397801 11.53784318 28 14 C29.35419298 14.56243666 30.70836415 15.12492582 32.0625 15.6875 C48.21059874 21.5595359 65.98001534 20.16157024 82 15 C83.28003906 14.69449219 83.28003906 14.69449219 84.5859375 14.3828125 C94.2947974 12.02817206 104.21699905 6.22640076 112 0 C112 1.98 112 3.96 112 6 C112.61488281 6.19335938 113.22976563 6.38671875 113.86328125 6.5859375 C114.67152344 6.84632813 115.47976563 7.10671875 116.3125 7.375 C117.11300781 7.63023437 117.91351562 7.88546875 118.73828125 8.1484375 C121 9 121 9 124 11 C125.30010034 19.77567727 120.89401484 27.35754098 117 35 C118.24136719 35.37511719 118.24136719 35.37511719 119.5078125 35.7578125 C123.48284048 37.17174863 127.12622576 38.95419948 130.875 40.875 C131.54402344 41.21402344 132.21304688 41.55304688 132.90234375 41.90234375 C134.25791475 42.58927087 135.61224122 43.27865926 136.96533203 43.97045898 C138.31475649 44.65326711 139.66993849 45.3248211 141.03076172 45.98461914 C145.70131216 48.25541837 150.06230635 50.79563956 154.375 53.6875 C155.023479 54.12175293 155.67195801 54.55600586 156.34008789 55.00341797 C162.01472549 58.87847125 167.06731146 63.21599179 172 68 C173.05960938 68.94939453 173.05960938 68.94939453 174.140625 69.91796875 C184.92570259 79.90034018 193.24069488 96.9684177 194.17700195 111.8046875 C194.475121 126.74152092 193.88593156 140.56738422 190.60742188 155.13525391 C189.41364246 160.7654017 188.51384419 166.44984298 187.5625 172.125 C185.899283 181.91318702 184.14630901 191.67989218 182.3125 201.4375 C180.03120375 213.66344232 178.16822719 225.8080315 176.9375 238.1875 C176.81822144 239.37061768 176.81822144 239.37061768 176.6965332 240.57763672 C175.08414632 257.73452055 174.79776428 274.90336779 174.8125 292.125 C174.81240936 293.76624344 174.81240936 293.76624344 174.81231689 295.44064331 C174.82582774 312.71709223 175.40411935 329.82492098 176.70898438 347.05224609 C177.19155305 353.59850074 177.59282954 360.14955057 177.99127197 366.7013855 C178.12010464 368.79543084 178.25455894 370.88904805 178.39013672 372.98266602 C178.61951261 376.65429565 178.81841355 380.32572779 179 384 C179.06413086 385.0818457 179.12826172 386.16369141 179.19433594 387.27832031 C179.23075195 388.26155273 179.26716797 389.24478516 179.3046875 390.2578125 C179.36245361 391.53229248 179.36245361 391.53229248 179.42138672 392.83251953 C179 395 179 395 177.21533203 396.7097168 C173.99045651 398.58799177 170.55314536 399.62220008 167 400.6875 C166.2884375 400.91244141 165.576875 401.13738281 164.84375 401.36914062 C161.38165741 402.43166718 158.6529346 403 155 403 C154.94465088 402.18321777 154.88930176 401.36643555 154.83227539 400.52490234 C154.57869809 396.80805547 154.32064338 393.09153242 154.0625 389.375 C153.97548828 388.08980469 153.88847656 386.80460937 153.79882812 385.48046875 C153.71181641 384.23652344 153.62480469 382.99257813 153.53515625 381.7109375 C153.456604 380.56931152 153.37805176 379.42768555 153.29711914 378.25146484 C153.01153571 375.12623877 152.52216184 372.09294204 152 369 C149.83640878 347.69298209 149.78219109 326.21192204 149.75368118 304.81880569 C149.75005397 302.84191457 149.74235206 300.86503228 149.73458862 298.88815308 C149.66710329 277.50003914 150.55902813 256.34070736 153.875 235.1875 C154.04789551 234.06351807 154.22079102 232.93953613 154.39892578 231.78149414 C159.08120534 202.03012852 167.91280935 172.32982964 184.875 147.0625 C192.28565283 135.61734597 191.15877955 120.48767056 189 107.4375 C186.05242402 94.54012527 180.01024973 82.69061552 171 73 C170.47148438 72.39285156 169.94296875 71.78570312 169.3984375 71.16015625 C158.10275461 58.89070759 141.61575368 51.05627916 126.81787109 43.88232422 C125.24539549 43.11910546 123.67877035 42.34385483 122.11328125 41.56640625 C120.94345703 41.00759766 120.94345703 41.00759766 119.75 40.4375 C119.10546875 40.12683594 118.4609375 39.81617188 117.796875 39.49609375 C115.42388719 38.84094277 114.2854081 39.08496113 112 40 C110.4978151 41.15336294 109.04397647 42.37068292 107.625 43.625 C95.01706635 53.94058208 79.21884452 59.47420205 63 60 C62.34999023 60.03641602 61.69998047 60.07283203 61.03027344 60.11035156 C41.25504297 61.17276801 19.7940924 57.87771622 4.26171875 44.671875 C2.77628088 43.28125231 1.32443322 41.85266099 -0.0703125 40.37109375 C-1.92391129 38.72860243 -1.92391129 38.72860243 -4.30639648 39.27758789 C-9.1131105 40.56672655 -13.46568387 42.84786417 -17.9375 45 C-18.96641357 45.4947583 -19.99532715 45.9895166 -21.05541992 46.49926758 C-33.10019144 52.38969342 -43.69878412 59.3908611 -54 68 C-54.61101562 68.44214844 -55.22203125 68.88429688 -55.8515625 69.33984375 C-68.25082322 78.65344369 -75.35795705 96.42875615 -77.49609375 111.234375 C-78.12992965 116.52416598 -78.32038292 121.80053469 -78.375 127.125 C-78.38893799 128.00140137 -78.40287598 128.87780273 -78.41723633 129.78076172 C-78.35967569 137.55668131 -75.67995587 143.08721484 -71.63745117 149.59277344 C-65.66487874 159.20710199 -61.15907343 169.22078442 -56.93261719 179.70263672 C-56.16024174 181.60526839 -55.35399218 183.49410899 -54.5390625 185.37890625 C-48.43759567 199.97190494 -45.31225045 215.95098377 -42.75 231.5 C-42.59909912 232.39750977 -42.44819824 233.29501953 -42.29272461 234.21972656 C-39.059545 255.19623156 -38.62947508 276.31675176 -38.6827507 297.49605942 C-38.68757015 299.65644664 -38.68859213 301.81681116 -38.68899536 303.97720337 C-38.70433323 326.86780862 -39.57708284 349.60590295 -41.44352722 372.42559814 C-42.25133056 382.60127213 -42.61802395 392.80095227 -43 403 C-42.01 403.33 -41.02 403.66 -40 404 C-48.42044448 403.48446258 -57.429587 400.7852065 -65 397 C-65 399.31 -65 401.62 -65 404 C-65.33 404 -65.66 404 -66 404 C-66 401.36 -66 398.72 -66 396 C-66.66 396 -67.32 396 -68 396 C-67.65830425 383.09296205 -67.10526652 370.21184772 -66.265625 357.328125 C-63.93976462 321.49802356 -63.19843691 286.23434078 -65.25 250.375 C-65.30440247 249.37531189 -65.35880493 248.37562378 -65.41485596 247.34564209 C-66.15381632 234.18343792 -67.7391178 221.37701455 -70.08886719 208.40478516 C-70.87769483 203.97685521 -71.40515858 199.5693518 -71.7900238 195.08912659 C-72.05815682 192.42137743 -72.63513862 189.90463714 -73.3125 187.3125 C-77.08596272 171.71922022 -79.46379819 155.64925616 -81.5625 139.75 C-81.70886604 137.09539142 -81.70886604 137.09539142 -83 136 C-85.05216987 113.14873469 -80.44029176 91.02528745 -65.59375 73.09375 C-52.10938716 57.50570762 -34.22799929 47.80488473 -15.91845703 38.93505859 C-12.59879546 37.31705098 -9.30087944 35.65592291 -6 34 C-6.36343506 33.45802979 -6.72687012 32.91605957 -7.10131836 32.35766602 C-11.75612893 25.34020673 -13.29340553 19.36205767 -13 11 C-11.39967863 10.15930585 -9.79458829 9.32768495 -8.1875 8.5 C-7.29417969 8.0359375 -6.40085937 7.571875 -5.48046875 7.09375 C-3 6 -3 6 0 6 C0 4.02 0 2.04 0 0 Z " fill="#BEBEBD" transform="translate(454,415)"/>
<path d="M0 0 C0.66 0 1.32 0 2 0 C3.12573242 1.43017578 3.12573242 1.43017578 4.35546875 3.4453125 C4.80929932 4.18467041 5.26312988 4.92402832 5.73071289 5.68579102 C6.21145264 6.49072998 6.69219238 7.29566895 7.1875 8.125 C7.68435303 8.95249756 8.18120605 9.77999512 8.69311523 10.63256836 C24.02677443 36.43288912 33.32087003 63.97176534 38.25 93.5 C38.40130371 94.39847656 38.55260742 95.29695312 38.70849609 96.22265625 C41.93599829 117.19959706 42.37052461 138.31687705 42.3172493 159.49605942 C42.31242985 161.65644664 42.31140787 163.81681116 42.31100464 165.97720337 C42.29566677 188.86780862 41.42291716 211.60590295 39.55647278 234.42559814 C38.74866944 244.60127213 38.38197605 254.80095227 38 265 C38.99 265.33 39.98 265.66 41 266 C32.57955552 265.48446258 23.570413 262.7852065 16 259 C16 261.31 16 263.62 16 266 C15.67 266 15.34 266 15 266 C15 263.36 15 260.72 15 258 C14.34 258 13.68 258 13 258 C13.34169575 245.09296205 13.89473348 232.21184772 14.734375 219.328125 C17.06023538 183.49802356 17.80156309 148.23434078 15.75 112.375 C15.69559753 111.37531189 15.64119507 110.37562378 15.58514404 109.34564209 C14.84618368 96.18343792 13.2608822 83.37701455 10.91113281 70.40478516 C10.12230517 65.97685521 9.59484142 61.5693518 9.2099762 57.08912659 C8.94184318 54.42137743 8.36486138 51.90463714 7.6875 49.3125 C5.26729728 39.31136817 3.6886824 29.14524323 2 19 C1.87705566 18.27022949 1.75411133 17.54045898 1.62744141 16.78857422 C0.67753801 11.12181121 -0.10146456 5.75811361 0 0 Z " fill="#B1B1B1" transform="translate(373,553)"/>
<path d="M0 0 C0.33 0 0.66 0 1 0 C1.13050115 6.09632154 0.75068996 11.69300625 -0.35546875 17.6796875 C-0.49739655 18.48214905 -0.63932434 19.2846106 -0.78555298 20.11138916 C-1.24547602 22.70064327 -1.71634169 25.2877691 -2.1875 27.875 C-2.50868193 29.67160057 -2.82923358 31.46831392 -3.14916992 33.26513672 C-4.98848329 43.56076513 -6.89047224 53.84452438 -8.8125 64.125 C-11.05124134 76.11926927 -12.85505272 88.04219623 -14.0625 100.1875 C-14.14201904 100.97624512 -14.22153809 101.76499023 -14.3034668 102.57763672 C-15.91585368 119.73452055 -16.20223572 136.90336779 -16.1875 154.125 C-16.18756042 155.21916229 -16.18762085 156.31332458 -16.18768311 157.44064331 C-16.17417226 174.71709223 -15.59588065 191.82492098 -14.29101562 209.05224609 C-13.80844695 215.59850074 -13.40717046 222.14955057 -13.00872803 228.7013855 C-12.87989536 230.79543084 -12.74544106 232.88904805 -12.60986328 234.98266602 C-12.38048739 238.65429565 -12.18158645 242.32572779 -12 246 C-11.93586914 247.0818457 -11.87173828 248.16369141 -11.80566406 249.27832031 C-11.76924805 250.26155273 -11.73283203 251.24478516 -11.6953125 252.2578125 C-11.65680176 253.10746582 -11.61829102 253.95711914 -11.57861328 254.83251953 C-12 257 -12 257 -13.78466797 258.7097168 C-17.00954349 260.58799177 -20.44685464 261.62220008 -24 262.6875 C-24.7115625 262.91244141 -25.423125 263.13738281 -26.15625 263.36914062 C-29.61834259 264.43166718 -32.3470654 265 -36 265 C-36.08302368 263.77482666 -36.08302368 263.77482666 -36.16772461 262.52490234 C-36.42130191 258.80805547 -36.67935662 255.09153242 -36.9375 251.375 C-37.06801758 249.44720703 -37.06801758 249.44720703 -37.20117188 247.48046875 C-37.28818359 246.23652344 -37.37519531 244.99257813 -37.46484375 243.7109375 C-37.543396 242.56931152 -37.62194824 241.42768555 -37.70288086 240.25146484 C-37.98846429 237.12623877 -38.47783816 234.09294204 -39 231 C-41.16359122 209.69298209 -41.21780891 188.21192204 -41.24631882 166.81880569 C-41.24994603 164.84191457 -41.25764794 162.86503228 -41.26541138 160.88815308 C-41.33289671 139.50003914 -40.44097187 118.34070736 -37.125 97.1875 C-36.95210449 96.06351807 -36.77920898 94.93953613 -36.60107422 93.78149414 C-31.45936041 61.11086745 -21.04176483 26.28713314 0 0 Z " fill="#B0B0B0" transform="translate(645,553)"/>
<path d="M0 0 C6.43176179 3.617866 6.43176179 3.617866 8.7890625 5.203125 C14.7814917 9.2320774 21.24397801 11.53784318 28 14 C29.35419298 14.56243666 30.70836415 15.12492582 32.0625 15.6875 C48.21059874 21.5595359 65.98001534 20.16157024 82 15 C83.28003906 14.69449219 83.28003906 14.69449219 84.5859375 14.3828125 C94.2947974 12.02817206 104.21699905 6.22640076 112 0 C112 1.98 112 3.96 112 6 C112.99 6.495 112.99 6.495 114 7 C113.34 7.33 112.68 7.66 112 8 C111.08719862 10.57437581 111.08719862 10.57437581 110.375 13.5625 C110.11460937 14.57441406 109.85421875 15.58632813 109.5859375 16.62890625 C109.39257812 17.41136719 109.19921875 18.19382812 109 19 C108.34 19 107.68 19 107 19 C106.34 20.98 105.68 22.96 105 25 C104.34 25 103.68 25 103 25 C102.77570313 25.5878125 102.55140625 26.175625 102.3203125 26.78125 C99.65599026 31.25857259 94.39637926 33.42592295 90 36 C89.33613281 36.40734375 88.67226563 36.8146875 87.98828125 37.234375 C72.80128885 45.79970694 49.56611464 45.49937309 33.0625 41.375 C19.94272889 37.43355616 7.9359906 30.11666114 1.01953125 17.94140625 C-0.99332885 12.13418917 -0.4356346 6.05048056 0 0 Z " fill="#FBD3AD" transform="translate(454,415)"/>
<path d="M0 0 C0.495 0.99 0.495 0.99 1 2 C-2.40986422 7.16607248 -5.82342653 10.90520857 -10.75 14.625 C-11.36907227 15.099375 -11.98814453 15.57375 -12.62597656 16.0625 C-29.42665944 28.73961767 -47.75028864 30.72155699 -68.25 28.3125 C-80.37434171 26.34229447 -92.95718209 20.43996338 -102 12 C-102 11.34 -102 10.68 -102 10 C-102.598125 9.7525 -103.19625 9.505 -103.8125 9.25 C-106.34094503 7.80517427 -107.55070617 6.51719455 -109 4 C-108.67 3.01 -108.34 2.02 -108 1 C-107.40574219 1.44730469 -106.81148438 1.89460938 -106.19921875 2.35546875 C-88.08127888 15.57057575 -66.25433917 20.9846706 -44 19 C-38.85960815 18.15916215 -33.94946368 16.59469594 -29 15 C-27.71996094 14.69449219 -27.71996094 14.69449219 -26.4140625 14.3828125 C-17.3124491 12.17544447 -6.47818626 6.88314983 0 0 Z " fill="#E2B58C" transform="translate(565,415)"/>
<path d="M0 0 C4.76012398 4.05116934 9.44420436 8.17247382 14.08203125 12.36328125 C15.90761942 14.05398295 15.90761942 14.05398295 18 15 C18 17.31 18 19.62 18 22 C17.34 21.67 16.68 21.34 16 21 C16.33 19.68 16.66 18.36 17 17 C16.01 17.33 15.02 17.66 14 18 C13.34 16.68 12.68 15.36 12 14 C9.83125748 14.50603992 8.00032373 14.99983813 6 16 C6.66 14.35 7.32 12.7 8 11 C7.566875 10.59007812 7.13375 10.18015625 6.6875 9.7578125 C6.130625 9.21898437 5.57375 8.68015625 5 8.125 C4.443125 7.59132813 3.88625 7.05765625 3.3125 6.5078125 C2 5 2 5 2 3 C1.34 3 0.68 3 0 3 C0 2.01 0 1.02 0 0 Z " fill="#F7ECDF" transform="translate(436,399)"/>
<path d="M0 0 C3.35620271 1.38877354 5.07298728 2.91677965 7 6 C7 6.66 7 7.32 7 8 C10.58752742 9.86551426 14.27812193 11.42535928 18 13 C18 13.66 18 14.32 18 15 C19.32 15.33 20.64 15.66 22 16 C22 16.66 22 17.32 22 18 C13.15053392 15.44551495 5.24045826 9.5896292 0 2 C0 1.34 0 0.68 0 0 Z " fill="#EED5BD" transform="translate(458,435)"/>
<path d="M0 0 C0.12375 0.639375 0.2475 1.27875 0.375 1.9375 C0.684375 2.9584375 0.684375 2.9584375 1 4 C1.66 4.33 2.32 4.66 3 5 C2.01 5.495 2.01 5.495 1 6 C0.08719862 8.57437581 0.08719862 8.57437581 -0.625 11.5625 C-0.88539063 12.57441406 -1.14578125 13.58632813 -1.4140625 14.62890625 C-1.60742188 15.41136719 -1.80078125 16.19382812 -2 17 C-2.66 17 -3.32 17 -4 17 C-4.66 18.32 -5.32 19.64 -6 21 C-6 19.02 -6 17.04 -6 15 C-4.68 14.67 -3.36 14.34 -2 14 C-2.16048828 12.98679687 -2.16048828 12.98679687 -2.32421875 11.953125 C-2.44410156 11.06109375 -2.56398438 10.1690625 -2.6875 9.25 C-2.81511719 8.36828125 -2.94273437 7.4865625 -3.07421875 6.578125 C-2.98397191 3.44323483 -2.07384637 2.28176413 0 0 Z " fill="#F0D4B9" transform="translate(565,417)"/>
<path d="M0 0 C0 3.20410189 -0.33591742 4.3333335 -2 7 C-3.9453125 8.703125 -3.9453125 8.703125 -6.125 10.25 C-6.84945312 10.77078125 -7.57390625 11.2915625 -8.3203125 11.828125 C-8.87460937 12.21484375 -9.42890625 12.6015625 -10 13 C-10.66 12.67 -11.32 12.34 -12 12 C-11.13375 11.319375 -10.2675 10.63875 -9.375 9.9375 C-5.8104467 6.98401298 -2.91215245 3.58339327 0 0 Z " fill="#F3E2D3" transform="translate(587,396)"/>
<path d="M0 0 C0.66 0.33 1.32 0.66 2 1 C-1.08748791 4.35212973 -3.51708756 6.85053527 -8 8 C-10.15234375 7.5390625 -10.15234375 7.5390625 -12 7 C-11.21753906 6.57847656 -10.43507813 6.15695312 -9.62890625 5.72265625 C-8.61699219 5.17480469 -7.60507812 4.62695312 -6.5625 4.0625 C-5.55316406 3.51722656 -4.54382813 2.97195313 -3.50390625 2.41015625 C-1.13329507 1.22300532 -1.13329507 1.22300532 0 0 Z " fill="#CEC1B4" transform="translate(550,446)"/>
<path d="M0 0 C0.33 0 0.66 0 1 0 C0.92928 3.53599998 0.80836985 6.1041863 -1.625 8.80078125 C-3.37220916 10.27675028 -5.13784833 11.67266996 -7 13 C-7.66 12.67 -8.32 12.34 -9 12 C-8.60167969 11.55269531 -8.20335937 11.10539062 -7.79296875 10.64453125 C-4.8091044 7.23958629 -2.26706762 3.93753849 0 0 Z " fill="#F7E5D8" transform="translate(597,383)"/>
<path d="M0 0 C0.33 0 0.66 0 1 0 C1.25 2.25 1.25 2.25 1 5 C-0.875 7.3125 -0.875 7.3125 -3 9 C-3.66 9 -4.32 9 -5 9 C-5 9.66 -5 10.32 -5 11 C-5.66 10.67 -6.32 10.34 -7 10 C-6.67 9.34 -6.34 8.68 -6 8 C-5.34 8 -4.68 8 -4 8 C-3.34 6.02 -2.68 4.04 -2 2 C-1.34 2 -0.68 2 0 2 C0 1.34 0 0.68 0 0 Z " fill="#C7BDB4" transform="translate(563,432)"/>
<path d="M0 0 C1.12894876 0.93274109 2.25300876 1.87140122 3.375 2.8125 C4.00148438 3.33457031 4.62796875 3.85664063 5.2734375 4.39453125 C7 6 7 6 9 9 C6 9 6 9 3.8125 7.125 C2 5 2 5 2 3 C1.34 3 0.68 3 0 3 C0 2.01 0 1.02 0 0 Z " fill="#F2DFD4" transform="translate(436,399)"/>
<path d="M0 0 C3.3 1.98 6.6 3.96 10 6 C5.07692308 7.23076923 5.07692308 7.23076923 2 6 C0 3 0 3 0 0 Z " fill="#E9B58C" transform="translate(456,416)"/>
<path d="M0 0 C2.9375 0.75 2.9375 0.75 6 2 C6.875 4.125 6.875 4.125 7 6 C5.68 5.67 4.36 5.34 3 5 C3 4.34 3 3.68 3 3 C2.01 2.67 1.02 2.34 0 2 C0 1.34 0 0.68 0 0 Z " fill="#E0BA94" transform="translate(460,422)"/>
<path d="M0 0 C2.875 -0.1875 2.875 -0.1875 6 0 C6.66 0.99 7.32 1.98 8 3 C5.36 2.67 2.72 2.34 0 2 C0 1.34 0 0.68 0 0 Z " fill="#EDD4BB" transform="translate(482,453)"/>
</g>
</svg>