<?xml version="1.0" encoding="utf-8"?>
<svg version="1.1" xmlns="http://www.w3.org/2000/svg" width="1024" height="1536">
  <defs>
    <clipPath id="shirtClip">
      <path d="M 460 408 L 565 408 L 615 425 L 680 460 L 745 490 L 745 855 L 645 855 L 645 860 L 380 860 L 380 855 L 280 855 L 280 490 L 345 460 L 410 425 L 460 408 Z"/>
    </clipPath>
  </defs>
  <g clip-path="url(#shirtClip)">
    <path d="M 50.794 225.902 C 132.812 276.74 152.028 197.862 151.904 200.917 C 151.868 201.798 157.411 203.645 156.728 204.244 C 154.861 205.795 156 201.952 153 203.952 C 152.267 207.018 152.267 194.066 152 197 C 152.568 197.182 153.137 197.364 153.723 197.551 C 154.495 197.802 155.267 198.054 156.063 198.313 C 156.817 198.556 157.571 198.8 158.348 199.051 C 161 200 161 200 164.121 201.441 C 168.902 203.519 173.924 204.52 179 205.625 C 179.959 205.842 180.918 206.058 181.906 206.281 C 185.948 207.181 189.961 208.04 194.066 208.586 C 197 209 197 209 198.938 210 C 201.512 211.248 203.984 211.363 206.801 211.66 C 209.904 212.14 212.727 213.143 215.676 214.199 C 217.954 214.984 220.231 215.582 222.563 216.188 C 236.926 220.467 249.599 228.871 260.625 238.813 C 261.159 239.293 261.693 239.774 262.243 240.269 C 263.537 241.469 264.774 242.73 266 244 C 266 244.66 266 245.32 266 246 C 266.66 246 267.32 246 268 246 C 282.459 270.147 288.449 294.565 290 322.625 C 290.081 324.008 290.162 325.392 290.244 326.775 C 290.415 329.684 290.582 332.594 290.746 335.504 C 291.002 340.045 291.267 344.586 291.533 349.127 C 292.264 361.656 292.977 374.187 293.598 386.723 C 294.599 406.921 296.075 426.903 299.486 446.862 C 301.449 458.363 302.742 469.815 303.688 481.438 C 303.778 482.551 303.778 482.551 303.871 483.687 C 304.225 488.079 304.551 492.472 304.853 496.868 C 304.992 498.888 305.141 500.907 305.29 502.927 C 305.973 512.902 306.115 522.876 306.211 532.871 C 306.218 533.58 306.225 534.288 306.233 535.018 C 306.3 541.676 306.364 548.333 306.401 554.991 C 306.422 558.669 306.457 562.347 306.502 566.024 C 306.516 567.415 306.525 568.805 306.528 570.195 C 306.533 572.123 306.558 574.051 306.583 575.978 C 306.592 577.072 306.6 578.166 306.608 579.293 C 307.055 582.382 307.738 582.999 310 585 C 310.341 588.186 310.341 588.186 310.293 592.074 C 310.289 592.758 310.284 593.442 310.28 594.146 C 310.263 596.327 310.226 598.507 310.188 600.688 C 310.172 602.167 310.159 603.647 310.146 605.127 C 310.113 608.752 310.062 612.376 310 616 C 309.104 615.838 308.209 615.677 307.286 615.51 C 292.754 613.253 277.918 614.777 264.313 620.195 C 262 621 262 621 259 621 C 257.513 615.159 256.588 609.351 255.875 603.375 C 255.788 602.659 255.7 601.943 255.61 601.205 C 254.351 590.209 254.351 590.209 255.563 586.084 C 256.095 583.549 255.733 581.937 255.109 579.43 C 254.896 578.542 254.682 577.654 254.462 576.74 C 254.227 575.794 253.992 574.849 253.75 573.875 C 252.042 566.735 250.501 559.631 249.375 552.375 C 248.623 547.546 247.78 542.849 246.5 538.125 C 244.834 531.896 243.961 525.584 243.09 519.204 C 242.551 515.335 241.943 511.572 240.945 507.793 C 240.077 504.309 239.652 501.137 239.438 497.563 C 239.514 493.966 239.514 493.966 238 491 C 237.757 488.399 237.572 485.814 237.422 483.207 C 237.316 481.543 237.208 479.878 237.1 478.214 C 237.044 477.333 236.987 476.453 236.929 475.546 C 235.802 458.342 233.851 441.598 230.675 424.638 C 229.709 419.432 228.812 414.215 227.916 408.997 C 227.485 406.492 227.051 403.989 226.612 401.486 C 225.596 395.667 224.663 389.87 224 384 C 221.046 399.019 218.448 413.946 216.938 429.188 C 216.858 429.976 216.779 430.764 216.697 431.576 C 215.084 448.733 214.798 465.903 214.813 483.125 C 214.812 484.766 214.812 484.766 214.812 486.441 C 214.826 503.717 215.404 520.825 216.709 538.052 C 217.192 544.599 217.593 551.15 217.991 557.701 C 218.12 559.795 218.255 561.889 218.39 563.983 C 219.391 579.999 219.391 579.999 219 586 C 218.67 586.33 218.34 586.66 218 587 C 217.797 593.424 218.267 599.638 218.988 606.016 C 219.201 607.988 219.414 609.96 219.626 611.932 C 219.738 612.961 220.89 633.744 221.006 634.805 C 222.97 652.933 -32 652.609 -30.937 637.863 C -30.858 636.737 -30.779 635.612 -30.697 634.452 C -30.621 633.411 -30.544 632.37 -30.465 631.298 C -30.399 630.392 -30.333 629.485 -30.265 628.551 C -29.998 625.986 -29.516 623.526 -29 621 C -28.824 618.606 -28.682 616.21 -28.562 613.813 C -28.072 604.832 -27.064 595.928 -26 587 C -26.66 587 -27.32 587 -28 587 C -27.658 574.093 -27.105 561.212 -26.266 548.328 C -23.94 512.498 -23.198 477.234 -25.25 441.375 C -25.304 440.375 -25.359 439.376 -25.415 438.346 C -26.154 425.183 -27.739 412.377 -30.089 399.405 C -30.878 394.977 -31.405 390.569 -31.79 386.089 C -32.058 383.421 -32.635 380.905 -33.312 378.313 C -37.086 362.719 -39.464 346.649 -41.562 330.75 C -41.709 328.095 -41.709 328.095 -43 327 C -45.052 304.149 -40.44 282.025 -25.594 264.094 C -12.109 248.506 5.772 238.805 24.082 229.935 C 27.401 228.317 30.699 226.656 34 225 C 33.637 224.458 33.273 223.916 32.899 223.358 C 28.244 216.34 26.707 210.362 27 202 C 28.6 201.159 30.205 200.328 31.813 199.5 C 32.706 199.036 33.599 198.572 34.52 198.094 C 37 197 36.573 197.569 39.573 197.569 C 39.573 195.259 38.149 209.317 38.149 206.937 C 37.151 206.672 51.812 226.172 50.794 225.902 Z" fill="#D5D5D5" transform="translate(414,224)" style=""/>
    <path d="M0 0 C0.08636719 0.75023437 0.17273438 1.50046875 0.26171875 2.2734375 C1.28371076 9.71803985 3.28027508 15.49372156 7 22 C7.33 22.66 7.66 23.32 8 24 C7.32122803 24.31638428 6.64245605 24.63276855 5.94311523 24.95874023 C-18.78936355 36.39166903 -18.78936355 36.39166903 -41 52 C-41.81984375 52.67546875 -42.6396875 53.3509375 -43.484375 54.046875 C-58.00086223 66.45187318 -66.26199058 83.21650968 -69 102 C-69.24040268 106.0261614 -69.23644993 110.0305717 -69.1875 114.0625 C-69.18685547 115.10599609 -69.18621094 116.14949219 -69.18554688 117.22460938 C-69.60182659 121.95617878 -69.60182659 121.95617878 -68 126 C-66.08150809 133.58545146 -65.2250964 141.39266237 -64.26757812 149.14306641 C-63.65126661 153.9069667 -62.93009225 158.53808474 -61.7421875 163.1953125 C-57.73892966 179.39597255 -60.47887287 193.95031087 -63.61352539 209.99780273 C-64.69727724 215.612363 -65.67974526 221.24641487 -66.6875 226.875 C-67.00521362 228.62768188 -67.00521362 228.62768188 -67.3293457 230.41577148 C-68.97774955 239.59541491 -70.18284152 248.71323425 -71 258 C-71.16580566 259.87655273 -71.16580566 259.87655273 -71.33496094 261.79101562 C-71.42618729 262.82478584 -71.42618729 262.82478584 -71.51925659 263.87944031 C-71.71354588 266.07636932 -71.90926119 268.27316867 -72.10498047 270.4699707 C-72.36442371 273.38456289 -72.61521091 276.29970817 -72.85986328 279.21557617 C-73.51967789 286.90528836 -74.50099929 294.42439761 -76 302 C-76.36440916 304.07073497 -76.72351083 306.14240891 -77.078125 308.21484375 C-79.38567151 321.49928141 -81.93949669 334.69451121 -84.82788086 347.86499023 C-87.00755541 357.85829798 -88.88246732 367.89095841 -90.61450195 377.97070312 C-91 380 -91 380 -91.61010742 382.13867188 C-92.21815284 384.081269 -92.21815284 384.081269 -91 386 C-91.14229005 393.55231823 -92.06157306 401.12471346 -92.9375 408.625 C-93.01202393 409.29934082 -93.08654785 409.97368164 -93.16333008 410.66845703 C-93.59359002 414.14833264 -94.17083568 416.98455757 -96 420 C-96.53367187 419.74605469 -97.06734375 419.49210937 -97.6171875 419.23046875 C-98.73480469 418.71419922 -98.73480469 418.71419922 -99.875 418.1875 C-100.59429687 417.85105469 -101.31359375 417.51460937 -102.0546875 417.16796875 C-110.61321755 413.7740689 -117.96860372 412.56527572 -127.1875 412.75 C-128.22841797 412.75515625 -129.26933594 412.7603125 -130.34179688 412.765625 C-135.65496944 412.81960009 -140.76513196 413.0818619 -146 414 C-146.09383517 404.99182384 -146.11551684 395.99801589 -145.625 387 C-145.55539062 385.700625 -145.48578125 384.40125 -145.4140625 383.0625 C-145 380 -145 380 -143 378 C-142.68194877 375.49418167 -142.68194877 375.49418167 -142.71289062 372.53833008 C-142.69276917 370.81801323 -142.69276917 370.81801323 -142.67224121 369.0629425 C-142.66432556 367.18520393 -142.66432556 367.18520393 -142.65625 365.26953125 C-142.63388316 363.28629942 -142.61150557 361.30306767 -142.58856964 359.31984234 C-142.55081759 355.81746051 -142.52599453 352.31498542 -142.5 348.8125 C-142.36779902 331.34550935 -142.02566391 314.02380084 -140.25592041 296.62905884 C-139.83079807 292.26179624 -139.50864422 287.88737619 -139.18359375 283.51171875 C-139.05811117 281.86391945 -138.93246273 280.21613278 -138.80664062 278.56835938 C-138.61831043 276.08664134 -138.43137046 273.60484171 -138.24731445 271.12280273 C-138.06314671 268.64797495 -137.87381278 266.17358772 -137.68359375 263.69921875 C-137.62940781 262.95048996 -137.57522186 262.20176117 -137.51939392 261.43034363 C-137.11361024 256.22722048 -137.11361024 256.22722048 -136 254 C-135.57369015 251.14765056 -135.19221632 248.30345847 -134.84375 245.44140625 C-134.68295959 244.15302101 -134.68295959 244.15302101 -134.5189209 242.83860779 C-134.2919543 241.01379675 -134.06678617 239.18876126 -133.84326172 237.36352539 C-133.50514051 234.60444667 -133.16127927 231.84613261 -132.81640625 229.08789062 C-131.15677519 215.74015176 -129.90904576 202.58016941 -129.5625 189.125 C-129.22627876 177.59944978 -128.59066402 166.12888431 -127.72851562 154.62866211 C-127.1429061 146.64756335 -126.79457153 138.68587237 -126.5625 130.6875 C-125.98090458 112.78198845 -124.00734043 95.23058209 -119 78 C-118.53787109 76.29650391 -118.53787109 76.29650391 -118.06640625 74.55859375 C-113.89345021 59.89264452 -106.40255472 47.12831435 -96 36 C-95.34 36 -94.68 36 -94 36 C-94 35.34 -94 34.68 -94 34 C-74.98796243 17.67244743 -50.84277983 11.37948793 -27 6 C-24.52051922 5.43885737 -22.04138641 4.8762696 -19.5625 4.3125 C-18.61503906 4.10238281 -17.66757812 3.89226562 -16.69140625 3.67578125 C-13.90833266 3.01396433 -13.90833266 3.01396433 -10.890625 1.95703125 C-7.3812666 0.79514908 -3.72085344 0 0 0 Z " fill="#D6D6D6" transform="translate(441,426)"/>
    <path d="M 0.285 13.664 C 0.995 18.612 2.775 21.259 6.085 24.703 C 8.369 27.08 11.566 30.61 16.756 33.784 C 19.106 35.627 23.107 37.363 25.516 38.319 C 37.294 42.995 48.54 44.832 64.636 43.609 C 80.857 41.169 82.84 39.914 88.144 36.871 C 100.454 29.808 109.199 20.745 111.431 7.828 C 111.858 5.965 112 3.96 112 6 C 112.615 6.193 113.23 6.387 113.863 6.586 C 114.672 6.846 115.48 7.107 116.313 7.375 C 117.113 7.63 117.914 7.885 118.738 8.148 C 121 9 121 9 124 11 C 125.3 19.776 120.894 27.358 117 35 C 118.241 35.375 118.241 35.375 119.508 35.758 C 123.483 37.172 127.126 38.954 130.875 40.875 C 131.544 41.214 132.213 41.553 132.902 41.902 C 134.258 42.589 135.612 43.279 136.965 43.97 C 138.315 44.653 139.67 45.325 141.031 45.985 C 145.701 48.255 150.062 50.796 154.375 53.688 C 155.023 54.122 155.672 54.556 156.34 55.003 C 162.015 58.878 167.067 63.216 172 68 C 173.06 68.949 173.06 68.949 174.141 69.918 C 184.926 79.9 193.241 96.968 194.177 111.805 C 194.475 126.742 193.886 140.567 190.607 155.135 C 189.414 160.765 188.514 166.45 187.563 172.125 C 185.899 181.913 184.146 191.68 182.313 201.438 C 180.031 213.663 178.168 225.808 176.938 238.188 C 176.818 239.371 176.818 239.371 176.697 240.578 C 175.084 257.735 174.798 274.903 174.813 292.125 C 174.812 293.766 174.812 293.766 174.812 295.441 C 174.826 312.717 175.404 329.825 176.709 347.052 C 177.192 353.599 177.593 360.15 177.991 366.701 C 178.12 368.795 178.255 370.889 178.39 372.983 C 178.62 376.654 178.818 380.326 179 384 C 179.064 385.082 179.128 386.164 179.194 387.278 C 179.231 388.262 179.267 389.245 179.305 390.258 C 179.362 391.532 179.362 391.532 179.421 392.833 C 179 395 179 395 177.215 396.71 C 173.99 398.588 170.553 399.622 167 400.688 C 166.288 400.912 165.577 401.137 164.844 401.369 C 161.382 402.432 158.653 403 155 403 C 154.945 402.183 154.889 401.366 154.832 400.525 C 154.579 396.808 154.321 393.092 154.063 389.375 C 153.975 388.09 153.888 386.805 153.799 385.48 C 153.712 384.237 153.625 382.993 153.535 381.711 C 153.457 380.569 153.378 379.428 153.297 378.251 C 153.012 375.126 152.522 372.093 152 369 C 149.836 347.693 149.782 326.212 149.754 304.819 C 149.75 302.842 149.742 300.865 149.735 298.888 C 149.667 277.5 150.559 256.341 153.875 235.188 C 154.048 234.064 154.221 232.94 154.399 231.781 C 159.081 202.03 167.913 172.33 184.875 147.063 C 192.286 135.617 191.159 120.488 189 107.438 C 186.052 94.54 180.01 82.691 171 73 C 170.471 72.393 169.943 71.786 169.398 71.16 C 158.103 58.891 141.616 51.056 126.818 43.882 C 125.245 43.119 123.679 42.344 122.113 41.566 C 120.943 41.008 120.943 41.008 119.75 40.438 C 119.105 40.127 118.461 39.816 117.797 39.496 C 115.424 38.841 114.285 39.085 112 40 C 110.498 41.153 109.044 42.371 107.625 43.625 C 95.017 53.941 79.219 59.474 63 60 C 62.35 60.036 61.7 60.073 61.03 60.11 C 41.255 61.173 19.794 57.878 4.262 44.672 C 2.776 43.281 1.324 41.853 -0.07 40.371 C -1.924 38.729 -1.924 38.729 -4.306 39.278 C -9.113 40.567 -13.466 42.848 -17.937 45 C -18.966 45.495 -19.995 45.99 -21.055 46.499 C -33.1 52.39 -43.699 59.391 -54 68 C -54.611 68.442 -55.222 68.884 -55.852 69.34 C -68.251 78.653 -75.358 96.429 -77.496 111.234 C -78.13 116.524 -78.32 121.801 -78.375 127.125 C -78.389 128.001 -78.403 128.878 -78.417 129.781 C -78.36 137.557 -75.68 143.087 -71.637 149.593 C -65.665 159.207 -61.159 169.221 -56.933 179.703 C -56.16 181.605 -55.354 183.494 -54.539 185.379 C -48.438 199.972 -45.312 215.951 -42.75 231.5 C -42.599 232.398 -42.448 233.295 -42.293 234.22 C -39.06 255.196 -38.629 276.317 -38.683 297.496 C -38.688 299.656 -38.689 301.817 -38.689 303.977 C -38.704 326.868 -39.577 349.606 -41.444 372.426 C -42.251 382.601 -42.618 392.801 -43 403 C -42.01 403.33 -41.02 403.66 -40 404 C -48.42 403.484 -57.43 400.785 -65 397 C -65 399.31 -65 401.62 -65 404 C -65.33 404 -65.66 404 -66 404 C -66 401.36 -66 398.72 -66 396 C -66.66 396 -67.32 396 -68 396 C -67.658 383.093 -67.105 370.212 -66.266 357.328 C -63.94 321.498 -63.198 286.234 -65.25 250.375 C -65.304 249.375 -65.359 248.376 -65.415 247.346 C -66.154 234.183 -67.739 221.377 -70.089 208.405 C -70.878 203.977 -71.405 199.569 -71.79 195.089 C -72.058 192.421 -72.635 189.905 -73.312 187.313 C -77.086 171.719 -79.464 155.649 -81.562 139.75 C -81.709 137.095 -81.709 137.095 -83 136 C -85.052 113.149 -80.44 91.025 -65.594 73.094 C -52.109 57.506 -34.228 47.805 -15.918 38.935 C -12.599 37.317 -9.301 35.656 -6 34 C -6.363 33.458 -6.727 32.916 -7.101 32.358 C -11.756 25.34 -13.293 19.362 -13 11 C -11.4 10.159 -9.795 9.328 -8.187 8.5 C -7.294 8.036 -6.401 7.572 -5.48 7.094 C -3 6 -3.285 6.142 -0.285 6.142 C -0.427 8.29 -0.425 8.716 0.285 13.664 Z" fill="#BEBEBD" transform="translate(454,415)"/>
    <path d="M0 0 C0.66 0 1.32 0 2 0 C3.12573242 1.43017578 3.12573242 1.43017578 4.35546875 3.4453125 C4.80929932 4.18467041 5.26312988 4.92402832 5.73071289 5.68579102 C6.21145264 6.49072998 6.69219238 7.29566895 7.1875 8.125 C7.68435303 8.95249756 8.18120605 9.77999512 8.69311523 10.63256836 C24.02677443 36.43288912 33.32087003 63.97176534 38.25 93.5 C38.40130371 94.39847656 38.55260742 95.29695312 38.70849609 96.22265625 C41.93599829 117.19959706 42.37052461 138.31687705 42.3172493 159.49605942 C42.31242985 161.65644664 42.31140787 163.81681116 42.31100464 165.97720337 C42.29566677 188.86780862 41.42291716 211.60590295 39.55647278 234.42559814 C38.74866944 244.60127213 38.38197605 254.80095227 38 265 C38.99 265.33 39.98 265.66 41 266 C32.57955552 265.48446258 23.570413 262.7852065 16 259 C16 261.31 16 263.62 16 266 C15.67 266 15.34 266 15 266 C15 263.36 15 260.72 15 258 C14.34 258 13.68 258 13 258 C13.34169575 245.09296205 13.89473348 232.21184772 14.734375 219.328125 C17.06023538 183.49802356 17.80156309 148.23434078 15.75 112.375 C15.69559753 111.37531189 15.64119507 110.37562378 15.58514404 109.34564209 C14.84618368 96.18343792 13.2608822 83.37701455 10.91113281 70.40478516 C10.12230517 65.97685521 9.59484142 61.5693518 9.2099762 57.08912659 C8.94184318 54.42137743 8.36486138 51.90463714 7.6875 49.3125 C5.26729728 39.31136817 3.6886824 29.14524323 2 19 C1.87705566 18.27022949 1.75411133 17.54045898 1.62744141 16.78857422 C0.67753801 11.12181121 -0.10146456 5.75811361 0 0 Z " fill="#B1B1B1" transform="translate(373,553)" style=""/>
    <path d="M0 0 C0.33 0 0.66 0 1 0 C1.13050115 6.09632154 0.75068996 11.69300625 -0.35546875 17.6796875 C-0.49739655 18.48214905 -0.63932434 19.2846106 -0.78555298 20.11138916 C-1.24547602 22.70064327 -1.71634169 25.2877691 -2.1875 27.875 C-2.50868193 29.67160057 -2.82923358 31.46831392 -3.14916992 33.26513672 C-4.98848329 43.56076513 -6.89047224 53.84452438 -8.8125 64.125 C-11.05124134 76.11926927 -12.85505272 88.04219623 -14.0625 100.1875 C-14.14201904 100.97624512 -14.22153809 101.76499023 -14.3034668 102.57763672 C-15.91585368 119.73452055 -16.20223572 136.90336779 -16.1875 154.125 C-16.18756042 155.21916229 -16.18762085 156.31332458 -16.18768311 157.44064331 C-16.17417226 174.71709223 -15.59588065 191.82492098 -14.29101562 209.05224609 C-13.80844695 215.59850074 -13.40717046 222.14955057 -13.00872803 228.7013855 C-12.87989536 230.79543084 -12.74544106 232.88904805 -12.60986328 234.98266602 C-12.38048739 238.65429565 -12.18158645 242.32572779 -12 246 C-11.93586914 247.0818457 -11.87173828 248.16369141 -11.80566406 249.27832031 C-11.76924805 250.26155273 -11.73283203 251.24478516 -11.6953125 252.2578125 C-11.65680176 253.10746582 -11.61829102 253.95711914 -11.57861328 254.83251953 C-12 257 -12 257 -13.78466797 258.7097168 C-17.00954349 260.58799177 -20.44685464 261.62220008 -24 262.6875 C-24.7115625 262.91244141 -25.423125 263.13738281 -26.15625 263.36914062 C-29.61834259 264.43166718 -32.3470654 265 -36 265 C-36.08302368 263.77482666 -36.08302368 263.77482666 -36.16772461 262.52490234 C-36.42130191 258.80805547 -36.67935662 255.09153242 -36.9375 251.375 C-37.06801758 249.44720703 -37.06801758 249.44720703 -37.20117188 247.48046875 C-37.28818359 246.23652344 -37.37519531 244.99257813 -37.46484375 243.7109375 C-37.543396 242.56931152 -37.62194824 241.42768555 -37.70288086 240.25146484 C-37.98846429 237.12623877 -38.47783816 234.09294204 -39 231 C-41.16359122 209.69298209 -41.21780891 188.21192204 -41.24631882 166.81880569 C-41.24994603 164.84191457 -41.25764794 162.86503228 -41.26541138 160.88815308 C-41.33289671 139.50003914 -40.44097187 118.34070736 -37.125 97.1875 C-36.95210449 96.06351807 -36.77920898 94.93953613 -36.60107422 93.78149414 C-31.45936041 61.11086745 -21.04176483 26.28713314 0 0 Z " fill="#B0B0B0" transform="translate(645,553)" style=""/>
  </g>
</svg>