<svg xmlns="http://www.w3.org/2000/svg" viewBox="0 0 1024 1536" width="1024" height="1536">
<g transform="rotate(3 421 1223)"><path d="
  M 397.9 1180.3
  C 397.9 1170.5 406.3 1164.9 421.0 1164.9
  C 435.7 1164.9 444.1 1170.5 444.1 1180.3
  L 440.6 1265.7
  C 440.6 1279.0 432.9 1281.1 421.0 1281.1
  C 409.1 1281.1 401.4 1279.0 401.4 1265.7
  Z
" fill="#EFEFEF" stroke="#A0A0A0" stroke-width="1.4"/>
<path d="M 421.0 1175.4 L 421.0 1269.9" stroke="#B5B5B5" stroke-width="1.0" fill="none"/>
<path d="M 409.8 1170.5 Q 421.0 1166.3 432.2 1170.5" stroke="#FFFFFF" stroke-width="1.4" fill="none" opacity="0.7"/></g>
<g transform="rotate(-3 603 1223)"><path d="
  M 579.9 1180.3
  C 579.9 1170.5 588.3 1164.9 603.0 1164.9
  C 617.7 1164.9 626.1 1170.5 626.1 1180.3
  L 622.6 1265.7
  C 622.6 1279.0 614.9 1281.1 603.0 1281.1
  C 591.1 1281.1 583.4 1279.0 583.4 1265.7
  Z
" fill="#EFEFEF" stroke="#A0A0A0" stroke-width="1.4"/>
<path d="M 603.0 1175.4 L 603.0 1269.9" stroke="#B5B5B5" stroke-width="1.0" fill="none"/>
<path d="M 591.8 1170.5 Q 603.0 1166.3 614.2 1170.5" stroke="#FFFFFF" stroke-width="1.4" fill="none" opacity="0.7"/></g>
</svg>