<?xml version="1.0" encoding="UTF-8"?>
<svg version="1.1" xmlns="http://www.w3.org/2000/svg" width="1024" height="1536">
<path d="M0 0 C1.24233398 -0.01836914 1.24233398 -0.01836914 2.50976562 -0.03710938 C10.73122715 -0.05685668 10.73122715 -0.05685668 14.3125 2.1875 C24.79215677 21.68911692 24.86674664 61.06810695 19.6875 82 C14.18857432 98.24769677 2.9518776 109.32937458 -12.0625 117 C-18.41019465 120.11339309 -23.64330585 120.76506204 -30.6875 120.1875 C-33.74098543 118.94117942 -35.05375001 118.03249999 -37 115.4375 C-37.95289512 112.31893415 -37.81202507 109.42515175 -37.6875 106.1875 C-37.0275 106.1875 -36.3675 106.1875 -35.6875 106.1875 C-35.57019531 105.44757813 -35.45289063 104.70765625 -35.33203125 103.9453125 C-34.69086058 101.2018792 -33.8384283 99.44566807 -32.375 97.0625 C-27.71450806 88.98431397 -24.5349556 80.2725932 -24.58984375 70.88671875 C-24.59306641 69.91025391 -24.59628906 68.93378906 -24.59960938 67.92773438 C-24.60798828 66.92033203 -24.61636719 65.91292969 -24.625 64.875 C-24.62951172 63.84826172 -24.63402344 62.82152344 -24.63867188 61.76367188 C-24.65041816 59.23822118 -24.66684435 56.71289095 -24.6875 54.1875 C-25.3475 54.1875 -26.0075 54.1875 -26.6875 54.1875 C-27.06841797 55.14849609 -27.06841797 55.14849609 -27.45703125 56.12890625 C-28.06611328 57.64291016 -28.06611328 57.64291016 -28.6875 59.1875 C-29.08461182 60.17919189 -29.08461182 60.17919189 -29.48974609 61.19091797 C-30.43091607 63.51130928 -31.40137488 65.81805459 -32.375 68.125 C-32.68888672 68.91068359 -33.00277344 69.69636719 -33.32617188 70.50585938 C-35.66700878 75.98002787 -38.48381781 80.08995134 -43.6875 83.1875 C-46.82289149 84.02044985 -48.34462814 83.78059017 -51.6875 83.1875 C-54.625 80.75 -54.625 80.75 -56.6875 78.1875 C-57.0175 77.8575 -57.3475 77.5275 -57.6875 77.1875 C-57.76021741 74.83436445 -57.77120868 72.47916332 -57.75 70.125 C-57.74097656 68.83464844 -57.73195313 67.54429687 -57.72265625 66.21484375 C-57.71105469 65.21582031 -57.69945312 64.21679688 -57.6875 63.1875 C-57.0275 63.1875 -56.3675 63.1875 -55.6875 63.1875 C-55.56503906 62.01960937 -55.44257812 60.85171875 -55.31640625 59.6484375 C-53.71146834 46.93732925 -48.1688473 34.84953959 -42.70068359 23.38476562 C-41.71328867 21.24342723 -40.82993378 19.08068858 -39.95703125 16.890625 C-37.65991476 11.48211807 -35.54033213 6.71810379 -29.90625 4.18359375 C-20.2912516 0.73926475 -10.13496834 0.00799919 0 0 Z " fill="#343434" transform="translate(709.6875,847.8125)"/>
<path d="M0 0 C1.75570312 0.47953125 1.75570312 0.47953125 3.546875 0.96875 C8.79057559 3.29839519 10.57871219 8.7610244 12.875 13.6875 C13.38603271 14.74880127 13.89706543 15.81010254 14.42358398 16.90356445 C33.08091616 56.43358687 33.08091616 56.43358687 31 71 C28.88366931 75.00591167 27.22388589 77.35523273 23 79 C20.81640625 79.1875 20.81640625 79.1875 18.5625 79 C17.82128906 78.95875 17.08007812 78.9175 16.31640625 78.875 C10.36957696 76.6286429 7.95393956 70.18340397 5.5078125 64.76757812 C4.744152 63.0282755 3.98114507 61.2886858 3.21875 59.54882812 C2.84492188 58.72189453 2.47109375 57.89496094 2.0859375 57.04296875 C1.7564209 56.29039795 1.4269043 55.53782715 1.08740234 54.76245117 C0.05069658 52.66060362 0.05069658 52.66060362 -3 52 C-3.05874776 55.33325754 -3.09384467 58.66637938 -3.125 62 C-3.14175781 62.93457031 -3.15851563 63.86914062 -3.17578125 64.83203125 C-3.24080111 74.12987101 -1.36177155 80.93666263 2.9375 89.125 C3.28490234 89.80175781 3.63230469 90.47851562 3.99023438 91.17578125 C5.5517539 94.21648028 7.13035343 97.24684574 8.7265625 100.26953125 C10.37034051 103.79407366 10.48974361 106.15201449 10 110 C8.5 112.9375 8.5 112.9375 6 115 C1.08974413 115.90021358 -1.79029073 115.53963977 -5.9375 112.75 C-19.06622441 101.76632308 -25.72387764 85.60612398 -28 69 C-29.05334881 56.90555379 -27.72598338 45.75942829 -25 34 C-24.58305401 31.33231778 -24.27413524 28.68652531 -24 26 C-32.2236194 25.61249961 -39.1768938 26.41283102 -47 29 C-46.36001427 22.88051743 -45.56560834 16.82009151 -44.5625 10.75 C-44.44068359 9.97398437 -44.31886719 9.19796875 -44.19335938 8.3984375 C-42.81116756 0.00502399 -42.81116756 0.00502399 -41 -3 C-29.17540252 -7.67002585 -11.53259083 -4.17463034 0 0 Z " fill="#333333" transform="translate(337,852)"/>
<path d="M0 0 C1.42022461 -0.01836914 1.42022461 -0.01836914 2.86914062 -0.03710938 C16.74003947 -0.06574853 16.74003947 -0.06574853 21.91845703 3.31884766 C23.89431338 6.22827522 23.5230133 8.78724693 23.48046875 12.26171875 C23.47622391 12.9455513 23.47197906 13.62938385 23.46760559 14.3339386 C23.45083353 16.51469561 23.41318657 18.69452309 23.375 20.875 C23.35995114 22.35480435 23.34626308 23.8346232 23.33398438 25.31445312 C23.30093569 28.93910336 23.24916446 32.56321094 23.1875 36.1875 C21.84401489 35.94519653 21.84401489 35.94519653 20.47338867 35.69799805 C5.941283 33.44027957 -8.89409969 34.9641836 -22.5 40.3828125 C-24.8125 41.1875 -24.8125 41.1875 -27.8125 41.1875 C-29.29934098 35.346339 -30.22403407 29.53891012 -30.9375 23.5625 C-31.02499512 22.84650635 -31.11249023 22.1305127 -31.20263672 21.39282227 C-32.54306847 9.6862951 -32.54306847 9.6862951 -30.67578125 5.85546875 C-28.22817417 3.66442426 -26.19827376 3.19597655 -23 2.5 C-21.98292969 2.26925781 -20.96585938 2.03851562 -19.91796875 1.80078125 C-18.89316406 1.59839844 -17.86835937 1.39601563 -16.8125 1.1875 C-15.91789063 0.99929688 -15.02328125 0.81109375 -14.1015625 0.6171875 C-9.39713938 0.00259541 -4.73946985 0.00318727 0 0 Z " fill="#323231" transform="translate(700.8125,803.8125)"/>
<path d="M0 0 C0.74628662 0.11754639 1.49257324 0.23509277 2.26147461 0.35620117 C6.46292342 1.10877842 9.74373622 2.13583502 13.1875 4.6875 C16.27865109 10.86980219 13.05970494 22.37925162 12.25 29.3125 C12.17547607 29.98684082 12.10095215 30.66118164 12.02416992 31.35595703 C11.59390998 34.83583264 11.01666432 37.67205757 9.1875 40.6875 C8.65382813 40.43355469 8.12015625 40.17960938 7.5703125 39.91796875 C6.82523437 39.57378906 6.08015625 39.22960937 5.3125 38.875 C4.59320313 38.53855469 3.87390625 38.20210937 3.1328125 37.85546875 C-5.42571755 34.4615689 -12.78110372 33.25277572 -22 33.4375 C-23.56137695 33.44523438 -23.56137695 33.44523438 -25.15429688 33.453125 C-30.46746944 33.50710009 -35.57763196 33.7693619 -40.8125 34.6875 C-41.10805372 5.42768163 -41.10805372 5.42768163 -38.4921875 1.9140625 C-29.121773 -4.92851925 -10.77286073 -1.73248084 0 0 Z " fill="#313131" transform="translate(335.8125,805.3125)"/>
<path d="M0 0 C6.3577796 0.03337417 12.11545396 1.46971425 18.1875 3.25 C20.89125153 24.76881214 22.85103551 51.06231606 9.1875 69.25 C0.97948666 79.64165463 -9.17632492 87.03794164 -21.8125 91.25 C-23.70720816 91.3185495 -25.6041834 91.33480372 -27.5 91.3125 C-28.49386719 91.30347656 -29.48773437 91.29445313 -30.51171875 91.28515625 C-31.27097656 91.27355469 -32.03023437 91.26195312 -32.8125 91.25 C-32.8125 90.92 -32.8125 90.59 -32.8125 90.25 C-31.86375 90.12625 -30.915 90.0025 -29.9375 89.875 C-21.53838963 87.45578362 -15.17842453 78.33330433 -11.12109375 71.01171875 C-1.97752749 51.71469982 -0.35161292 31.99409479 -5.47705078 11.39257812 C-6.40587174 7.62528682 -7.05619002 4.95423855 -5.8125 1.25 C-4.16034709 -0.40215291 -2.27429221 0.03904364 0 0 Z " fill="#929292" transform="translate(711.8125,876.75)"/>
<path d="M0 0 C0.33 0.33 0.66 0.66 1 1 C0.6944638 4.81920244 0.13293251 8.43028923 -0.73828125 12.1640625 C-5.7803716 34.10073995 -3.6479797 55.55400441 8 75 C12.41583088 81.74613632 17.2713378 87.88231621 25.4375 89.8125 C26.7059375 89.9053125 26.7059375 89.9053125 28 90 C28 90.33 28 90.66 28 91 C18.4837849 91.58863186 10.23708035 90.8383718 2.75 84.4375 C1.8425 83.633125 0.935 82.82875 0 82 C-0.969375 81.54625 -1.93875 81.0925 -2.9375 80.625 C-12.25580146 75.68059514 -17.90739362 66.00596997 -21.29296875 56.2890625 C-22.28496023 52.87260088 -23.19538201 49.46504845 -24 46 C-24.1959375 45.23558594 -24.391875 44.47117187 -24.59375 43.68359375 C-25.20814484 39.62504319 -25.14725648 35.59864531 -25.125 31.5 C-25.11992432 30.16956665 -25.11992432 30.16956665 -25.11474609 28.81225586 C-24.95568737 8.4249958 -24.95568737 8.4249958 -22 3 C-15.5850778 -0.74416774 -7.19140707 -0.61606782 0 0 Z " fill="#949494" transform="translate(313,877)"/>
<path d="M0 0 C0.33 0 0.66 0 1 0 C1 4.62 1 9.24 1 14 C0.34 14 -0.32 14 -1 14 C-1 16.64 -1 19.28 -1 22 C-1.63389648 21.98952637 -2.26779297 21.97905273 -2.92089844 21.96826172 C-23.39340587 21.61160877 -23.39340587 21.61160877 -43.16015625 26.4140625 C-45 27 -45 27 -48 27 C-48.33 27.66 -48.66 28.32 -49 29 C-49.33 25.37 -49.66 21.74 -50 18 C-38.60083605 12.73884741 -28.3474611 10.82184967 -15.875 10.8125 C-15.00746094 10.80025391 -14.13992188 10.78800781 -13.24609375 10.77539062 C-11.97572266 10.77249023 -11.97572266 10.77249023 -10.6796875 10.76953125 C-9.92413574 10.76542236 -9.16858398 10.76131348 -8.39013672 10.75708008 C-6 11 -6 11 0 13 C0 8.71 0 4.42 0 0 Z " fill="#A7A7A7" transform="translate(724,827)"/>
<path d="M0 0 C0.99 0.66 1.98 1.32 3 2 C3.29296875 4.3828125 3.29296875 4.3828125 3.1875 7.125 C3.14689453 8.49011719 3.14689453 8.49011719 3.10546875 9.8828125 C3.07066406 10.58148437 3.03585937 11.28015625 3 12 C-0.96421371 11.28866446 -4.72277984 10.21020149 -8.5625 9 C-14.33122057 7.18602081 -19.00478045 5.87257245 -25.078125 5.90234375 C-26.81835938 5.90717773 -26.81835938 5.90717773 -28.59375 5.91210938 C-30.40359375 5.92467773 -30.40359375 5.92467773 -32.25 5.9375 C-34.08304687 5.94426758 -34.08304687 5.94426758 -35.953125 5.95117188 C-38.96879946 5.96295185 -41.98437498 5.97940147 -45 6 C-45.33 3.03 -45.66 0.06 -46 -3 C-31.57583266 -8.04440684 -13.70084022 -6.46820783 0 0 Z " fill="#AAAAAA" transform="translate(341,843)"/>
<path d="M0 0 C0.33 0 0.66 0 1 0 C1.6875 2.8125 1.6875 2.8125 2 6 C0.6875 7.6875 0.6875 7.6875 -1 9 C-1.66 9.99 -2.32 10.98 -3 12 C-4.21386936 8.35839192 -3.6674695 7.66834531 -2.0625 4.3125 C-1.49208984 3.10013672 -1.49208984 3.10013672 -0.91015625 1.86328125 C-0.60980469 1.24839844 -0.30945313 0.63351562 0 0 Z " fill="#434343" transform="translate(666,873)"/>
<path d="M0 0 C0.66 0 1.32 0 2 0 C1.03644647 9.41002278 1.03644647 9.41002278 0 14 C-0.33 14 -0.66 14 -1 14 C-1.027193 12.41676312 -1.04648306 10.83338938 -1.0625 9.25 C-1.07410156 8.36828125 -1.08570313 7.4865625 -1.09765625 6.578125 C-1.00826198 4.2181162 -0.66912821 2.25501476 0 0 Z " fill="#2B2B2B" transform="translate(312,886)"/>
<path d="M0 0 C2.33294775 -0.04241723 4.66702567 -0.04092937 7 0 C8 1 8 1 8.0625 3.5625 C8.041875 4.366875 8.02125 5.17125 8 6 C7.67 5.34 7.34 4.68 7 4 C6.01 4 5.02 4 4 4 C4 3.01 4 2.02 4 1 C2.68 0.67 1.36 0.34 0 0 Z " fill="#2C2C2B" transform="translate(716,849)"/>
<path d="M0 0 C0.66 1.32 1.32 2.64 2 4 C1.01 4.99 0.02 5.98 -1 7 C-1.99 6.67 -2.98 6.34 -4 6 C-2.68 4.02 -1.36 2.04 0 0 Z " fill="#9D9D9D" transform="translate(712,950)"/>
<path d="M0 0 C1.4540625 0.0309375 1.4540625 0.0309375 2.9375 0.0625 C-0.0625 2.0625 -0.0625 2.0625 -2.0625 2.0625 C-2.0625 4.7025 -2.0625 7.3425 -2.0625 10.0625 C-2.3925 10.0625 -2.7225 10.0625 -3.0625 10.0625 C-3.25662181 8.58418779 -3.44262131 7.10480684 -3.625 5.625 C-3.72941406 4.80128906 -3.83382813 3.97757813 -3.94140625 3.12890625 C-3.98136719 2.44699219 -4.02132813 1.76507812 -4.0625 1.0625 C-3.0625 0.0625 -3.0625 0.0625 0 0 Z " fill="#B6B6B6" transform="translate(299.0625,838.9375)"/>
</svg>