<svg version="1.1" id="Layer_1" xmlns="http://www.w3.org/2000/svg" xmlns:xlink="http://www.w3.org/1999/xlink" x="0px" y="0px"
	 width="100%" viewBox="0 0 1024 1536" enable-background="new 0 0 1024 1536" xml:space="preserve">
<defs>
<clipPath id="meiaoClip">
<rect x="360" y="1280" width="300" height="80"/>
</clipPath>
</defs>
<g clip-path="url(#meiaoClip)"><path fill="#323232" opacity="1.000000" stroke="none"
	d="
M465.932556,1118.070312
	C467.685760,1151.428589 461.641357,1183.842285 454.530060,1216.203613
	C446.509125,1252.704224 440.218384,1289.491211 439.647461,1327.016479
	C439.622253,1328.672241 439.772949,1330.330444 439.786072,1332.787109
	C438.714386,1338.201050 437.188965,1342.491455 433.042023,1345.366333
	C428.892731,1348.242554 420.939209,1346.292114 420.229523,1341.698608
	C419.074371,1334.221680 413.822296,1331.143555 407.670685,1330.171631
	C401.472534,1329.192505 394.999023,1329.956177 388.274231,1329.956177
	C388.230835,1329.657959 388.213135,1328.838867 387.974060,1328.090576
	C387.737396,1327.349854 387.277435,1326.680542 386.915405,1325.979858
	C387.804718,1277.875977 380.150024,1230.396118 376.644531,1182.613037
	C375.052704,1160.915039 375.578674,1139.061890 375.873505,1117.030518
	C378.410034,1117.604492 380.161499,1118.591064 382.032318,1119.225220
	C409.479492,1128.527222 436.826660,1129.400391 464.017944,1118.157349
	C464.573242,1117.927856 465.290741,1118.090576 465.932556,1118.070312
z"/></g>
<g clip-path="url(#meiaoClip)"><path fill="#323232" opacity="1.000000" stroke="none"
	d="
M583.019226,1303.001709
	C582.922058,1302.567139 582.824890,1302.132568 583.123352,1301.122559
	C583.108337,1298.299805 582.697693,1296.052612 582.286987,1293.805420
	C577.804749,1267.618652 573.296326,1241.436157 568.848694,1215.243530
	C565.374084,1194.781372 561.396057,1174.380249 558.769714,1153.807983
	C557.305176,1142.336426 558.144226,1130.570679 558.349487,1118.416870
	C576.689880,1125.859497 595.549255,1127.151001 614.769043,1125.462402
	C626.375305,1124.442505 637.779907,1122.500854 647.901001,1116.117676
	C648.310608,1121.439697 648.720215,1126.761841 648.752319,1132.829834
	C648.246155,1139.674683 647.994690,1145.774536 648.040649,1151.872070
	C648.063538,1154.913696 648.630554,1157.951416 648.951416,1160.990845
	C647.875610,1175.070801 647.084717,1189.179321 645.670410,1203.225220
	C641.390015,1245.735962 635.686401,1288.142456 636.713013,1331.468750
	C628.795532,1327.923584 621.132446,1328.537842 613.248108,1330.895752
	C608.184021,1332.410278 604.549133,1335.359009 603.508606,1340.380493
	C602.693359,1344.314819 600.547791,1346.822876 597.099609,1346.600708
	C593.994141,1346.400513 590.073120,1345.020752 588.215271,1342.760864
	C585.843323,1339.875854 585.181946,1335.584351 583.783325,1331.899048
	C583.768433,1327.250366 583.753601,1322.601685 584.142822,1317.219238
	C584.701965,1313.085327 585.030701,1309.679077 584.913696,1306.288330
	C584.875244,1305.172363 583.683533,1304.096069 583.019226,1303.001709
z"/></g>
<!-- Cuff stripe — sits at the top of the ankle sock (y≈1280-1312
     after the translate). Renders AFTER the sock body so it's on top. -->
	 <!-- Right leg cuff: leg center ≈ x=601 -->
<g transform="translate(610,165) scale(0.75,1) translate(-601,0)">
<path fill="#A7A7A7" opacity="1.000000" stroke="none"
	d="
M558.941101,1095.323364
	C576.525146,1103.507080 595.293762,1104.023193 614.086609,1102.806885
	C624.633667,1102.124146 635.159546,1099.968384 644.755493,1093.970215
	C646.049988,1100.941528 647.014282,1108.070679 647.939758,1115.658813
	C637.779907,1122.500854 626.375305,1124.442505 614.769043,1125.462402
	C595.549255,1127.151001 576.689880,1125.859497 558.377808,1117.949097
	C558.282532,1110.580688 558.563232,1103.159546 558.941101,1095.323364
z"/>
</g>
<!-- Left leg cuff: leg center ≈ x=421 -->
<g transform="translate(412,165) scale(0.75,1) translate(-421,0)">
<path fill="#A7A7A7" opacity="1.000000" stroke="none"
	d="
M378.703400,1094.255859
	C390.735779,1100.350830 403.404205,1102.968384 416.733398,1103.110962
	C429.863953,1103.251343 442.963928,1103.300781 455.594482,1098.993042
	C458.564667,1097.980103 461.392242,1096.548950 464.610840,1095.190186
	C465.298798,1102.422485 465.661407,1109.775146 465.978302,1117.598999
	C465.290741,1118.090576 464.573242,1117.927856 464.017944,1118.157349
	C436.826660,1129.400391 409.479492,1128.527222 382.032318,1119.225220
	C380.161499,1118.591064 378.410034,1117.604492 376.217102,1116.745117
	C376.705566,1109.324951 377.579956,1101.941528 378.703400,1094.255859
z"/>
</g>
</svg>
