<svg version="1.1" id="Layer_1" xmlns="http://www.w3.org/2000/svg" xmlns:xlink="http://www.w3.org/1999/xlink" x="0px" y="0px"
	 width="100%" viewBox="0 0 1024 1536" enable-background="new 0 0 1024 1536" xml:space="preserve">
<path fill="#FDD3AB" stroke="#FDD3AB" stroke-width="2" opacity="1.000000" d="
M465.932556,1118.070312 
	C467.685760,1151.428589 461.641357,1183.842285 454.530060,1216.203613 
	C446.509125,1252.704224 440.218384,1289.491211 439.647461,1327.016479 
	C439.622253,1328.672241 439.772949,1330.330444 439.786072,1332.787109 
	C438.714386,1338.201050 437.188965,1342.491455 433.042023,1345.366333 
	C428.892731,1348.242554 420.939209,1346.292114 420.229523,1341.698608 
	C419.074371,1334.221680 413.822296,1331.143555 407.670685,1330.171631 
	C401.472534,1329.192505 394.999023,1329.956177 388.274231,1329.956177 
	C388.230835,1329.657959 388.213135,1328.838867 387.974060,1328.090576 
	C387.737396,1327.349854 387.277435,1326.680542 386.915405,1325.979858 
	C387.804718,1277.875977 380.150024,1230.396118 376.644531,1182.613037 
	C375.052704,1160.915039 375.578674,1139.061890 375.873505,1117.030518 
	C378.410034,1117.604492 380.161499,1118.591064 382.032318,1119.225220 
	C409.479492,1128.527222 436.826660,1129.400391 464.017944,1118.157349 
	C464.573242,1117.927856 465.290741,1118.090576 465.932556,1118.070312 
z"/>
<path fill="#FDD3AB" stroke="#FDD3AB" stroke-width="2" opacity="1.000000" d="
M583.019226,1303.001709 
	C582.922058,1302.567139 582.824890,1302.132568 583.123352,1301.122559 
	C583.108337,1298.299805 582.697693,1296.052612 582.286987,1293.805420 
	C577.804749,1267.618652 573.296326,1241.436157 568.848694,1215.243530 
	C565.374084,1194.781372 561.396057,1174.380249 558.769714,1153.807983 
	C557.305176,1142.336426 558.144226,1130.570679 558.349487,1118.416870 
	C576.689880,1125.859497 595.549255,1127.151001 614.769043,1125.462402 
	C626.375305,1124.442505 637.779907,1122.500854 647.901001,1116.117676 
	C648.310608,1121.439697 648.720215,1126.761841 648.752319,1132.829834 
	C648.246155,1139.674683 647.994690,1145.774536 648.040649,1151.872070 
	C648.063538,1154.913696 648.630554,1157.951416 648.951416,1160.990845 
	C647.875610,1175.070801 647.084717,1189.179321 645.670410,1203.225220 
	C641.390015,1245.735962 635.686401,1288.142456 636.713013,1331.468750 
	C628.795532,1327.923584 621.132446,1328.537842 613.248108,1330.895752 
	C608.184021,1332.410278 604.549133,1335.359009 603.508606,1340.380493 
	C602.693359,1344.314819 600.547791,1346.822876 597.099609,1346.600708 
	C593.994141,1346.400513 590.073120,1345.020752 588.215271,1342.760864 
	C585.843323,1339.875854 585.181946,1335.584351 583.783325,1331.899048 
	C583.768433,1327.250366 583.753601,1322.601685 584.142822,1317.219238 
	C584.701965,1313.085327 585.030701,1309.679077 584.913696,1306.288330 
	C584.875244,1305.172363 583.683533,1304.096069 583.019226,1303.001709 
z"/>
<path fill="#FDD3AB" stroke="#FDD3AB" stroke-width="2" opacity="1.000000" d="
M558.941101,1095.323364 
	C576.525146,1103.507080 595.293762,1104.023193 614.086609,1102.806885 
	C624.633667,1102.124146 635.159546,1099.968384 644.755493,1093.970215 
	C646.049988,1100.941528 647.014282,1108.070679 647.939758,1115.658813 
	C637.779907,1122.500854 626.375305,1124.442505 614.769043,1125.462402 
	C595.549255,1127.151001 576.689880,1125.859497 558.377808,1117.949097 
	C558.282532,1110.580688 558.563232,1103.159546 558.941101,1095.323364 
z"/>
<path fill="#FDD3AB" stroke="#FDD3AB" stroke-width="2" opacity="1.000000" d="
M378.703400,1094.255859 
	C390.735779,1100.350830 403.404205,1102.968384 416.733398,1103.110962 
	C429.863953,1103.251343 442.963928,1103.300781 455.594482,1098.993042 
	C458.564667,1097.980103 461.392242,1096.548950 464.610840,1095.190186 
	C465.298798,1102.422485 465.661407,1109.775146 465.978302,1117.598999 
	C465.290741,1118.090576 464.573242,1117.927856 464.017944,1118.157349 
	C436.826660,1129.400391 409.479492,1128.527222 382.032318,1119.225220 
	C380.161499,1118.591064 378.410034,1117.604492 376.217102,1116.745117 
	C376.705566,1109.324951 377.579956,1101.941528 378.703400,1094.255859 
z"/>
<path fill="#FDD3AB" stroke="#FDD3AB" stroke-width="2" opacity="1.000000" d="
M479.098389,1011.134338 
	C478.789948,1013.493835 478.481506,1015.853271 477.841522,1018.782471 
	C477.361572,1019.957092 477.213135,1020.562134 477.064697,1021.167114 
	C474.612610,1034.595703 472.010925,1047.999146 469.755524,1061.460693 
	C467.936951,1072.314941 466.536499,1083.239502 464.618042,1094.721558 
	C461.392242,1096.548950 458.564667,1097.980103 455.594482,1098.993042 
	C442.963928,1103.300781 429.863953,1103.251343 416.733398,1103.110962 
	C403.404205,1102.968384 390.735779,1100.350830 378.952454,1093.953491 
	C379.629547,1089.716553 380.120667,1085.439941 381.017426,1081.250000 
	C384.144348,1066.640015 383.313660,1051.968506 382.156891,1037.247314 
	C381.495880,1028.835327 381.321045,1020.385010 381.229004,1011.252686 
	C382.898529,1009.733765 384.320251,1008.141907 385.624481,1008.232910 
	C390.373627,1008.564514 395.067871,1009.604675 399.811157,1010.112976 
	C412.583527,1011.481445 425.354858,1013.506348 438.156372,1013.757935 
	C449.130829,1013.973511 460.143066,1012.055420 471.146271,1011.177063 
	C473.781311,1010.966736 476.446838,1011.138428 479.098389,1011.134338 
z"/>
<path fill="#FDD3AB" stroke="#FDD3AB" stroke-width="2" opacity="1.000000" d="
M643.081421,1009.038330 
	C642.378418,1024.733521 640.949646,1040.440552 641.204651,1056.120117 
	C641.404785,1068.423218 643.687378,1080.692505 644.734985,1093.552490 
	C635.159546,1099.968384 624.633667,1102.124146 614.086609,1102.806885 
	C595.293762,1104.023193 576.525146,1103.507080 559.038208,1094.908447 
	C556.893982,1081.370361 554.903870,1067.805420 552.562134,1054.301636 
	C550.217468,1040.781250 547.521545,1027.321899 545.262451,1013.196960 
	C546.749207,1012.000732 547.992004,1010.889648 549.150940,1010.971130 
	C562.002319,1011.874207 574.829773,1013.151001 587.688477,1013.901550 
	C592.433716,1014.178467 597.255127,1013.443420 602.022705,1012.974976 
	C609.737244,1012.216919 617.428833,1011.226013 625.143494,1010.469666 
	C631.112183,1009.884521 637.101379,1009.507812 643.081421,1009.038330 
z"/>
<path fill="#FDD3AB" stroke="#FDD3AB" stroke-width="2" opacity="1.000000" d="
M643.309143,1008.796448 
	C637.101379,1009.507812 631.112183,1009.884521 625.143494,1010.469666 
	C617.428833,1011.226013 609.737244,1012.216919 602.022705,1012.974976 
	C597.255127,1013.443420 592.433716,1014.178467 587.688477,1013.901550 
	C574.829773,1013.151001 562.002319,1011.874207 549.150940,1010.971130 
	C547.992004,1010.889648 546.749207,1012.000732 545.278198,1012.776917 
	C544.723083,1011.840088 544.435120,1010.684387 544.196045,1009.152344 
	C553.270874,1009.600830 562.284302,1010.612854 571.325012,1011.214417 
	C595.483093,1012.821838 619.360596,1010.316528 643.495789,1005.933960 
	C643.781494,1006.816223 643.659180,1007.685364 643.309143,1008.796448 
z"/>
<path fill="#FDD3AB" stroke="#FDD3AB" stroke-width="2" opacity="1.000000" d="
M479.317383,1010.892700 
	C476.446838,1011.138428 473.781311,1010.966736 471.146271,1011.177063 
	C460.143066,1012.055420 449.130829,1013.973511 438.156372,1013.757935 
	C425.354858,1013.506348 412.583527,1011.481445 399.811157,1010.112976 
	C395.067871,1009.604675 390.373627,1008.564514 385.624481,1008.232910 
	C384.320251,1008.141907 382.898529,1009.733765 381.244720,1010.789978 
	C380.673767,1009.613159 380.388794,1008.199768 380.518616,1006.375671 
	C388.411530,1007.038879 395.890411,1008.107483 403.367615,1009.187744 
	C421.170532,1011.759705 439.034393,1012.392273 456.966370,1010.889343 
	C457.431854,1010.904419 457.897339,1010.919434 459.136108,1010.854980 
	C466.516571,1010.098938 473.123718,1009.422424 479.730896,1008.745850 
	C479.666077,1009.380920 479.601257,1010.016052 479.317383,1010.892700 
z"/>
</svg>