<?xml version="1.0" encoding="utf-8"?>
<svg version="1.1" id="Layer_1" xmlns="http://www.w3.org/2000/svg" x="0px" y="0px" width="100%" viewBox="0 0 1024 1536" enable-background="new 0 0 1024 1536">
  <path fill="#FDD3AB" stroke="#FDD3AB" stroke-width="3" opacity="1.000000" d=" M371.975525,492.396973 C373.297150,482.560638 373.638123,472.819305 376.192291,463.697693 C380.285645,449.079407 389.977356,437.909546 402.870453,430.225647 C416.369995,422.180328 430.561676,415.301270 444.377808,407.778412 C447.410187,406.127289 449.069183,406.359589 451.856201,408.986664 C466.091003,422.404602 483.100647,429.534210 502.756226,431.153656 C524.594482,432.952942 544.499939,428.112518 562.653442,416.062347 C565.929565,413.887695 568.388550,410.509857 571.566040,408.146423 C573.012451,407.070587 575.767517,406.137573 577.117737,406.798065 C591.269409,413.721161 605.820679,420.071594 619.162170,428.351624 C641.319214,442.102814 653.360413,462.150177 652.000427,489.040497 C651.916382,490.701599 651.980042,492.370178 651.965942,494.499756 C633.653442,523.941101 618.697632,554.407104 612.541443,588.420349 C610.160278,601.576294 608.702820,615.004089 608.150940,628.362915 C607.224670,650.787781 606.754761,673.269348 607.230896,695.702942 C607.648987,715.403015 609.628967,735.069885 610.916504,754.751587 C611.619629,765.500916 612.317444,776.250732 612.989624,787.441528 C582.649475,794.078247 551.908264,795.628357 521.100891,795.885742 C484.466461,796.191956 447.880066,795.236511 411.356079,788.176758 C411.122070,784.199646 411.259644,780.361328 412.086700,776.242798 C418.175720,776.694641 423.558655,777.596375 428.977875,778.127319 C446.242950,779.819153 463.505768,782.485657 480.798401,782.730225 C509.671112,783.138672 538.613159,784.377319 567.446594,781.043579 C578.773254,779.733948 590.165161,778.997314 601.510559,777.835632 C604.400940,777.539734 607.227112,776.617249 610.082825,775.982727 C608.755493,775.093994 607.602234,775.001770 606.467468,775.107483 C581.954041,777.392395 557.484192,780.637817 532.918701,781.724121 C510.711029,782.706238 488.392853,781.549988 466.136719,780.889465 C457.747894,780.640442 449.397552,779.124512 441.027496,778.206299 C431.341125,777.143738 421.652344,776.103333 411.964600,775.053284 C413.256805,756.547119 414.549377,738.040955 415.839661,719.534668 C415.885925,718.871033 415.930878,718.206055 415.939911,717.541199 C416.279114,692.598633 417.392883,667.635559 416.739929,642.718811 C416.023743,615.389465 413.340576,588.106750 404.708069,561.915344 C397.242310,539.263855 386.413513,518.120056 374.143219,497.703430 C373.226532,496.178131 372.697388,494.419983 371.975525,492.396973 z"/>
  <path fill="#FDD3AB" stroke="#FDD3AB" stroke-width="3" opacity="1.000000" d="M 654.421 494.673 C 653.664 494.98 653.175 494.978 652.331 494.506 C 651.98 492.37 651.916 490.702 652 489.04 C 653.36 462.15 641.319 442.103 619.162 428.352 C 605.821 420.072 591.269 413.721 577.118 406.798 C 575.768 406.138 573.012 407.071 571.566 408.146 C 568.389 410.51 565.93 413.888 562.653 416.062 C 544.5 428.113 524.594 432.953 502.756 431.154 C 483.101 429.534 466.091 422.405 451.856 408.987 C 449.069 406.36 447.41 406.127 444.378 407.778 C 430.562 415.301 416.37 422.18 402.87 430.226 C 389.977 437.91 380.286 449.079 376.192 463.698 C 373.638 472.819 373.297 482.561 371.963 492.024 C 371.226 492.016 370.489 492.007 369.384 492.005 C 367.79 474.275 371.7 457.993 383.038 443.97 C 391.609 433.369 402.174 425.129 414.272 418.894 C 423.276 414.253 432.375 409.8 441.423 405.246 C 442.879 404.513 444.292 403.691 444.933 403.341 C 442.521 395.125 440.268 387.45 437.988 379.362 C 443.484 377.732 448.503 377.774 453.314 376.471 C 457.22 376.29 456.391 391.29 462.35 397.686 C 475.091 411.361 491.973 415.142 509.692 415.872 C 523.325 416.435 536.51 413.394 548.296 406.57 C 560.851 399.301 570.713 393.872 572.099 378.201 C 568.507 375.919 578.754 377.285 584.171 378.694 C 594.625 381.547 580.725 394.799 578.377 403.297 C 586.045 406.94 595.18 410.557 603.569 415.451 C 613.967 421.518 624.644 427.627 633.604 435.529 C 651.117 450.974 657.483 471.228 654.421 494.673 Z"/>
  <path fill="#FDD3AB" stroke="#FDD3AB" stroke-width="3" opacity="1.000000" d=" M301.131531,552.074402 C302.518616,540.929260 303.907715,529.784363 305.292297,518.638916 C306.860504,506.015167 308.348877,493.381012 310.006927,480.769104 C313.081116,457.385406 319.166168,435.247467 336.596741,417.925781 C345.007599,409.567352 355.091064,403.621216 366.194885,400.093903 C389.711884,392.623352 413.485840,385.961578 437.584351,379.371460 C440.267670,387.449829 442.520996,395.124847 444.933289,403.341339 C444.291656,403.690918 442.879456,404.512573 441.422699,405.245758 C432.374847,409.799561 423.275726,414.253448 414.272491,418.893524 C402.174438,425.128601 391.608826,433.369080 383.037537,443.970337 C371.699799,457.993225 367.789581,474.274689 369.024780,492.412354 C372.676117,513.221252 376.318573,533.628601 379.961029,554.035950 C378.649353,559.459473 377.337677,564.882996 375.487335,570.669617 C365.119141,569.791138 355.038788,569.524780 345.519928,567.075806 C331.796234,563.545105 318.480316,558.429504 304.995422,553.995117 C305.000427,554.000000 305.012238,554.008118 304.826233,553.745239 C303.470642,553.013062 302.301086,552.543701 301.131531,552.074402 z"/>
  <path fill="#FDD3AB" stroke="#FDD3AB" stroke-width="3" opacity="1.000000" d=" M585.127136,378.862762 C594.432800,381.247833 603.859253,383.245361 613.018372,386.100616 C630.739136,391.624847 648.699707,396.673889 665.851501,403.661255 C692.439758,414.492950 705.599121,436.751190 710.819946,463.693176 C714.591553,483.156433 716.365784,503.006409 719.041809,522.682434 C720.335083,532.191528 721.653564,541.697327 722.583984,551.651917 C719.666931,553.308594 717.157715,554.588989 714.581421,555.716125 C693.658203,564.870178 671.928711,570.585876 648.967468,571.002808 C647.535583,565.225952 646.103699,559.449036 644.409302,552.997864 C647.481995,533.209656 650.817261,514.095764 654.420776,494.673279 C657.483398,471.227600 651.117371,450.973755 633.604248,435.528717 C624.644470,427.626953 613.966980,421.518036 603.568604,415.451172 C595.179626,410.556702 586.044800,406.940460 578.377136,403.297028 C580.724792,394.798828 582.925964,386.830780 585.127136,378.862762 z"/>
  <path fill="#FDD3AB" stroke="#FDD3AB" stroke-width="3" opacity="1.000000" d=" M379.963257,554.439392 C376.318573,533.628601 372.676117,513.221252 369.392883,492.406433 C370.489075,492.007263 371.226044,492.015564 371.975525,492.396973 C372.697388,494.419983 373.226532,496.178131 374.143219,497.703430 C386.413513,518.120056 397.242310,539.263855 404.708069,561.915344 C413.340576,588.106750 416.023743,615.389465 416.739929,642.718811 C417.392883,667.635559 416.279114,692.598633 415.939911,717.541199 C415.930878,718.206055 415.885925,718.871033 415.839661,719.534668 C414.549377,738.040955 413.256805,756.547119 411.960876,775.259888 C411.957123,775.466492 411.932983,775.879028 411.665100,776.201050 C411.259644,780.361328 411.122070,784.199646 410.984497,788.037964 C402.288818,785.758301 393.593140,783.478638 384.531372,781.178467 C383.473999,778.950012 382.016876,776.672791 382.209198,774.544678 C384.272583,751.710754 387.026215,728.932556 388.738556,706.075256 C390.813904,678.372253 392.291626,650.600098 389.137634,622.856018 C386.887451,603.062439 384.445709,583.290222 381.981049,563.521973 C381.615601,560.590759 380.652222,557.734009 379.963257,554.439392 z"/>
  <path fill="#FDD3AB" stroke="#FDD3AB" stroke-width="3" opacity="1.000000" d=" M654.152466,494.981903 C650.817261,514.095764 647.481995,533.209656 644.159668,552.725342 C641.193420,572.119751 637.434021,591.030457 635.429443,610.125305 C632.826965,634.915100 631.780212,659.849548 633.769409,684.803162 C634.969849,699.862732 635.790527,714.954590 637.139709,729.999817 C638.428162,744.367859 640.260437,758.686584 641.651978,773.046570 C641.892029,775.523621 641.125610,778.098145 640.479492,780.804810 C631.343933,783.283020 622.552917,785.584045 613.389771,787.442688 C612.317444,776.250732 611.619629,765.500916 610.916504,754.751587 C609.628967,735.069885 607.648987,715.403015 607.230896,695.702942 C606.754761,673.269348 607.224670,650.787781 608.150940,628.362915 C608.702820,615.004089 610.160278,601.576294 612.541443,588.420349 C618.697632,554.407104 633.653442,523.941101 652.321899,494.970093 C653.175415,494.977936 653.663940,494.979919 654.152466,494.981903 z"/>
  <path fill="#FDD3AB" stroke="#FDD3AB" stroke-width="3" opacity="1.000000" d=" M722.989380,568.589722 C718.737000,570.104614 714.428223,571.028809 710.286682,572.442871 C695.930664,577.344482 681.432739,581.504272 666.264404,583.140747 C662.202576,583.578979 658.274048,585.253723 654.078247,586.679688 C652.268738,582.587341 650.665344,578.176270 649.511108,573.367310 C653.580566,572.642639 657.261108,572.625244 660.809998,571.932800 C672.943481,569.565247 685.200867,567.568787 697.079590,564.246094 C705.956543,561.763062 714.322021,557.451782 722.915283,553.954590 C723.941101,558.704407 725.438354,563.451050 722.989380,568.589722 z"/>
  <path fill="#FDD3AB" stroke="#FDD3AB" stroke-width="3" opacity="1.000000" d=" M371.228760,584.835449 C358.899109,583.000122 346.766266,581.582092 334.941498,578.836914 C325.902710,576.738525 317.259888,572.942688 308.426941,569.943176 C306.268341,569.210205 304.054810,568.639038 301.475433,567.997925 C301.072479,563.579468 301.060638,559.156555 301.501526,554.341980 C302.973572,553.969543 303.992920,553.988831 305.012238,554.008118 C305.012238,554.008118 305.000427,554.000000 305.052795,554.341797 C306.707642,555.770264 308.188995,557.130371 309.931061,557.901978 C330.679749,567.092102 352.520966,571.654724 375.087646,573.070984 C373.911102,576.941284 372.734589,580.811584 371.228760,584.835449 z"/>
  <path fill="#FDD3AB" stroke="#FDD3AB" stroke-width="3" opacity="1.000000" d=" M722.944580,553.638123 C714.322021,557.451782 705.956543,561.763062 697.079590,564.246094 C685.200867,567.568787 672.943481,569.565247 660.809998,571.932800 C657.261108,572.625244 653.580566,572.642639 649.525085,572.959106 C649.048462,572.517334 649.007080,572.085815 648.966553,571.328613 C671.928711,570.585876 693.658203,564.870178 714.581421,555.716125 C717.157715,554.588989 719.666931,553.308594 722.559448,552.076782 C722.932373,552.476746 722.953125,552.899231 722.944580,553.638123 z"/>
  <path fill="#FDD3AB" stroke="#FDD3AB" stroke-width="3" opacity="1.000000" d=" M375.296082,572.882935 C352.520966,571.654724 330.679749,567.092102 309.931061,557.901978 C308.188995,557.130371 306.707642,555.770264 305.047760,554.336914 C318.480316,558.429504 331.796234,563.545105 345.519928,567.075806 C355.038788,569.524780 365.119141,569.791138 375.387146,571.061157 C375.718597,571.624695 375.611542,572.159851 375.296082,572.882935 z"/>
  <path fill="#FDD3AB" stroke="#FDD3AB" stroke-width="3" opacity="1.000000" d=" M304.826233,553.745239 C303.992920,553.988831 302.973572,553.969543 301.578857,553.924438 C301.161621,553.493469 301.119781,553.088318 301.104736,552.378784 C302.301086,552.543701 303.470642,553.013062 304.826233,553.745239 z"/>
  <path fill="#FDD3AB" stroke="#FDD3AB" stroke-width="3" opacity="1.000000" d=" M411.960876,775.259888 C421.652344,776.103333 431.341125,777.143738 441.027496,778.206299 C449.397552,779.124512 457.747894,780.640442 466.136719,780.889465 C488.392853,781.549988 510.711029,782.706238 532.918701,781.724121 C557.484192,780.637817 581.954041,777.392395 606.467468,775.107483 C607.602234,775.001770 608.755493,775.093994 610.082825,775.982727 C607.227112,776.617249 604.400940,777.539734 601.510559,777.835632 C590.165161,778.997314 578.773254,779.733948 567.446594,781.043579 C538.613159,784.377319 509.671112,783.138672 480.798401,782.730225 C463.505768,782.485657 446.242950,779.819153 428.977875,778.127319 C423.558655,777.596375 418.175720,776.694641 412.354584,775.920837 C411.932983,775.879028 411.957123,775.466492 411.960876,775.259888 z"/>
  <path fill="#FDD3AB" stroke="#FDD3AB" stroke-width="3" opacity="1.000000" d=" M321.137451,930.484375 C319.796997,930.241821 318.303711,930.301208 317.138947,929.711548 C298.621063,920.338257 289.085785,904.001404 286.439758,884.593262 C284.425781,869.821106 285.947113,854.517578 286.455444,839.469360 C286.762054,830.392578 288.867889,821.353882 288.893005,812.294617 C288.956604,789.354553 288.315155,766.412354 287.930847,743.471436 C287.644165,726.355530 286.905334,709.234924 287.126892,692.126282 C287.343781,675.377380 289.833923,658.850647 293.529938,642.456787 C295.485321,633.783630 296.116943,624.784668 296.970703,615.896667 C298.475281,600.233582 299.692169,584.542847 301.448029,568.428589 C304.054810,568.639038 306.268341,569.210205 308.426941,569.943176 C317.259888,572.942688 325.902710,576.738525 334.941498,578.836914 C346.766266,581.582092 358.899109,583.000122 370.899475,584.989075 C366.109589,604.628601 361.034790,624.205383 356.687622,643.942383 C355.206696,650.666016 355.935974,657.844971 354.993195,664.725098 C352.838867,680.446899 350.871552,696.233093 347.732635,711.771790 C343.505707,732.696350 337.711823,753.308533 333.641663,774.259033 C331.348450,786.063110 330.920593,798.262695 330.196777,810.316833 C330.000000,813.593262 331.020721,817.468872 332.779785,820.248657 C341.884216,834.635925 345.972748,850.511047 348.039825,867.155212 C348.936005,874.371399 350.555023,881.494995 351.674530,888.687378 C352.308197,892.758240 352.491333,896.888489 347.506470,898.642456 C343.280304,900.129395 338.487976,897.888184 336.671265,893.027710 C334.235901,886.512024 332.552856,879.714172 330.092957,873.209106 C329.221558,870.904724 327.018951,869.103760 325.424103,867.072937 C323.963318,869.452820 321.446411,871.747437 321.246094,874.229065 C320.713013,880.834106 320.690979,887.569763 321.369141,894.160522 C322.217621,902.406616 325.942932,909.546692 331.196564,916.085327 C333.812469,919.341064 335.980835,923.471497 336.819031,927.523315 C338.173645,934.071533 333.846436,937.301514 327.606598,934.932556 C325.548981,934.151428 323.833099,932.470215 321.897827,930.552917 C321.537720,929.625061 321.240753,929.344910 320.865540,928.826050 C320.524872,928.391602 320.262451,928.195801 319.961914,927.656616 C319.499115,926.616333 319.199310,925.789673 318.630737,925.242065 C311.654572,918.522766 307.275635,910.288879 304.495728,901.124451 C302.721039,895.273682 301.018463,889.401062 299.283539,883.538208 C298.221710,885.391235 298.094421,887.145752 298.490753,888.772644 C299.501068,892.919312 301.087402,896.948792 301.825256,901.134094 C303.412201,910.135742 308.562958,917.210205 313.890900,924.143494 C315.268036,925.935608 317.928864,926.741211 320.077393,928.388916 C320.227905,929.031921 320.301025,929.286011 320.403503,929.539551 C320.432892,929.538940 320.514923,929.612122 320.698212,929.810425 C320.966797,930.167236 321.052124,930.325806 321.137451,930.484375 z"/>
  <path fill="#FDD3AB" stroke="#FDD3AB" stroke-width="3" opacity="1.000000" d=" M701.989136,932.094971 C699.940308,933.129333 697.984253,934.637756 695.816223,935.061523 C693.747498,935.465881 690.536499,935.534973 689.487122,934.319214 C688.012939,932.611145 687.017944,929.226929 687.699585,927.188904 C689.034607,923.197266 691.199524,919.261536 693.850037,915.970398 C704.470459,902.783142 706.274048,887.858948 703.036133,871.925598 C702.666443,870.106018 700.450012,868.661804 699.089966,867.043579 C697.724548,868.540466 695.818726,869.817383 695.102112,871.578308 C693.421448,875.708435 692.527649,880.155090 690.905762,884.313965 C689.348877,888.306152 687.552124,892.262634 685.353333,895.930542 C683.098816,899.691467 679.373108,899.851807 675.664551,898.262329 C672.110962,896.739319 671.821289,893.707947 672.384338,890.287354 C674.642517,876.568665 676.110596,862.671265 679.269409,849.167053 C681.320312,840.399475 684.783691,831.586609 689.446228,823.906250 C694.592163,815.429626 694.529297,806.805969 693.699829,797.910828 C690.934998,768.261963 682.566406,739.725464 676.049683,710.814941 C672.299622,694.177856 668.950562,677.446228 668.876038,660.226929 C668.797546,642.086548 663.149048,624.981689 658.466064,607.705383 C656.690125,601.153625 655.416016,594.465881 654.098755,587.100464 C658.274048,585.253723 662.202576,583.578979 666.264404,583.140747 C681.432739,581.504272 695.930664,577.344482 710.286682,572.442871 C714.428223,571.028809 718.737000,570.104614 722.969116,568.955811 C723.998840,580.838806 724.790894,592.748535 726.119385,604.598022 C727.721191,618.884583 729.842773,633.112122 731.620728,647.380005 C733.482239,662.318420 735.846313,677.233643 736.796265,692.234619 C737.668152,706.001526 737.150085,719.872986 736.887451,733.691589 C736.385376,760.112427 735.193848,786.528198 735.179077,812.946594 C735.172546,824.646667 737.064392,836.382874 738.569092,848.041382 C741.518555,870.894592 739.283203,892.893066 726.857300,912.716919 C721.739380,920.881836 713.892151,926.870117 704.155518,930.920654 C702.998047,931.405396 702.493591,931.750183 701.989136,932.094971 M706.561890,927.916809 C706.885986,927.605896 707.210083,927.294983 707.534180,926.984070 C707.320984,926.804993 707.107849,926.625854 706.894714,926.446716 C706.600220,926.967468 706.305725,927.488159 705.720764,928.099976 C705.811096,928.063049 705.901367,928.026123 706.561890,927.916809 M724.955872,884.777283 C724.364075,886.507263 723.527466,888.195068 723.220337,889.974182 C721.296509,901.118225 717.467834,911.422485 710.401855,920.400024 C709.486633,921.562927 708.951782,923.025146 708.240784,924.348694 C721.613159,913.631104 724.523132,898.443665 726.230896,882.657715 C725.860168,883.128967 725.489441,883.600220 724.955872,884.777283 z"/>
  <path fill="#FDD3AB" stroke="#FDD3AB" stroke-width="3" opacity="1.000000" d=" M702.298828,932.045898 C702.493591,931.750183 702.998047,931.405396 703.828125,931.036133 C703.638672,931.340088 703.123596,931.668457 702.298828,932.045898 z"/>
  <path fill="#FDD3AB" stroke="#FDD3AB" stroke-width="3" opacity="1.000000" d=" M320.943787,929.064758 C321.240753,929.344910 321.537720,929.625061 321.902710,930.216858 C321.970764,930.528442 321.558990,930.436768 321.348206,930.460571 C321.052124,930.325806 320.966797,930.167236 320.756104,929.764893 C320.630707,929.521057 320.656982,929.374817 320.728455,929.297119 C320.799927,929.219360 320.943787,929.064758 320.943787,929.064758 z"/>
  <path fill="#FDD3AB" stroke="#FDD3AB" stroke-width="3" opacity="1.000000" d=" M319.961914,927.656616 C317.928864,926.741211 315.268036,925.935608 313.890900,924.143494 C308.562958,917.210205 303.412201,910.135742 301.825256,901.134094 C301.087402,896.948792 299.501068,892.919312 298.490753,888.772644 C298.094421,887.145752 298.221710,885.391235 299.283539,883.538208 C301.018463,889.401062 302.721039,895.273682 304.495728,901.124451 C307.275635,910.288879 311.654572,918.522766 318.630737,925.242065 C319.199310,925.789673 319.499115,926.616333 319.961914,927.656616 z"/>
  <path fill="#FDD3AB" stroke="#FDD3AB" stroke-width="3" opacity="1.000000" d=" M320.077393,928.388916 C320.262451,928.195801 320.524872,928.391602 320.865540,928.826050 C320.943787,929.064758 320.799927,929.219360 320.650024,929.320068 C320.500122,929.420715 320.374115,929.540161 320.374115,929.540161 C320.301025,929.286011 320.227905,929.031921 320.077393,928.388916 z"/>
  <path fill="#FDD3AB" stroke="#FDD3AB" stroke-width="3" opacity="1.000000" d=" M320.403503,929.539551 C320.374115,929.540161 320.500122,929.420715 320.578552,929.397766 C320.656982,929.374817 320.630707,929.521057 320.572815,929.566589 C320.514923,929.612122 320.432892,929.538940 320.403503,929.539551 z"/>
  <path fill="#FDD3AB" stroke="#FDD3AB" stroke-width="3" opacity="1.000000" d=" M725.037292,884.424377 C725.489441,883.600220 725.860168,883.128967 726.230896,882.657715 C724.523132,898.443665 721.613159,913.631104 708.240784,924.348694 C708.951782,923.025146 709.486633,921.562927 710.401855,920.400024 C717.467834,911.422485 721.296509,901.118225 723.220337,889.974182 C723.527466,888.195068 724.364075,886.507263 725.037292,884.424377 z"/>
  <path fill="#FDD3AB" stroke="#FDD3AB" stroke-width="3" opacity="1.000000" d=" M706.011169,928.008911 C706.305725,927.488159 706.600220,926.967468 706.894714,926.446716 C707.107849,926.625854 707.320984,926.804993 707.534180,926.984070 C707.210083,927.294983 706.885986,927.605896 706.280945,927.958374 C706.000000,928.000000 706.011169,928.008911 706.011169,928.008911 z"/>
  <path fill="#FDD3AB" stroke="#FDD3AB" stroke-width="3" opacity="1.000000" d=" M705.995850,927.994629 C705.901367,928.026123 705.811096,928.063049 705.865967,928.054443 C706.011169,928.008911 706.000000,928.000000 705.995850,927.994629 z"/>
  <path fill="#FDD3AB" stroke="#FDD3AB" stroke-width="3" opacity="1.000000" d="M 571.317 377.34 C 569.958 393.369 560.851 399.301 548.296 406.57 C 536.51 413.394 523.325 416.435 509.692 415.872 C 491.973 415.142 475.091 411.361 462.35 397.686 C 456.391 391.29 446.904 378.177 452.314 376.817 C 452.973 375.672 475.138 394.213 487.835 397.775 C 510.191 404.046 532.156 403.368 552.026 389.405 C 558.199 385.067 570.92 375.598 571.317 377.34 Z"/>
</svg>