<svg xmlns="http://www.w3.org/2000/svg" viewBox="0 0 280 280"><path d="M44.83 105.6c-.39-1.61-.77-3.24-1.13-4.92-1.95-9.23-2.95-20.22 2.89-39.67-6.9 22.99-4.25 34.15-1.76 44.58 1.23 5.2 2.43 10.2 2.37 16.4a15.44 15.44 0 0 0 0 0c.06-6.2-1.14-11.21-2.37-16.4ZM218.38 114.23c-.13.4-.16.8-.18 1.23l.18-1.23ZM218.05 116.81c-.11 1.09-.2 2.2-.23 3.35-29.04-10.76-54.94-29.62-70.32-51.55-12.1 15.62-31.96 23.04-51.63 30.4-17.38 6.5-34.62 12.94-46.2 24.94l1.09-1.5c11-14.6 28.76-21.88 46.7-29.24 18.82-7.71 37.82-15.5 49.39-31.9 15.4 24.1 41.81 44.65 71.16 55.63l.04-.12Z" fill="#000" fill-opacity=".16"/><path d="M32 280h1v-9a72 72 0 0 1 72-72h4v-18.39a56.03 56.03 0 0 1-31.8-45.74A12 12 0 0 1 67 123v-13c0-.8.08-1.57.22-2.32 9.12-5.82 19.65-10.13 30.24-14.48 18.81-7.71 37.82-15.5 49.39-31.9C158.8 80 177.4 96.6 198.87 108.2c.08.59.13 1.19.13 1.8v13a12 12 0 0 1-10.2 11.87A56.03 56.03 0 0 1 157 180.6V199h4a72 72 0 0 1 72 72v9c24.41-13.94 15.86-33.21 6.28-48.46a303.17 303.17 0 0 0-4.07-6.27c-3.48-5.25-6.45-9.74-7.2-12.97-.1-.46-.17-.9-.18-1.3-.14-4.62 3.14-7.84 7.16-11.78 6.22-6.08 14.18-13.89 14.01-31.22-.51-15.83-9.8-22.25-18.1-28-6.93-4.78-13.17-9.1-13.1-18-.01-1.82.08-3.54.25-5.19.11-.4.13-.83.15-1.25v-.1c.45-3.44 1.2-6.62 1.98-9.87 2.55-10.72 5.3-22.23-2.38-46.59-2.9-9.12-6.97-16.5-12.1-22.46-14.12-16.42-36.35-22.04-64.9-23.29-2.55-.11-5.15-.19-7.8-.23V13h-1c-43.08.77-73.16 9.54-84.8 46-7.67 24.36-4.93 35.87-2.37 46.6 1.23 5.19 2.43 10.2 2.37 16.4.03 3.75-1.06 6.7-2.85 9.2-2.46 3.43-6.23 6.04-10.24 8.8-8.3 5.75-17.6 12.17-18.1 28-.17 17.33 7.8 25.14 14.01 31.22 4.03 3.94 7.32 7.16 7.17 11.78-.08 3.26-3.4 8.27-7.38 14.27-10.54 15.9-25.7 38.8 2.2 54.73Z" fill="__HAIR__"/><path fill-rule="evenodd" clip-rule="evenodd" d="M50.58 122.45c22.54-29.92 73.49-29.13 96.09-61.15 15.4 24.1 41.82 44.65 71.16 55.63.3-.86.08-1.85.37-2.7 2.15-14.14 9.14-24.37-.58-55.23-11.63-36.46-41.71-45.23-84.8-45.98l-1-.02c-43.08.77-73.16 9.54-84.8 46-11.38 36.16.17 44 0 63 .04 3.75-1.05 6.7-2.85 9.2.19.4 4.16-5.76 6.41-8.75Z" fill="#fff" fill-opacity=".2"/></svg>
