<svg xmlns="http://www.w3.org/2000/svg" viewBox="0 0 280 280"><path d="M250 70.5c0 .8-.03 1.6-.1 2.37A57.74 57.74 0 0 1 261 107c0 7.16-1.3 14.01-3.67 20.34a28.47 28.47 0 0 1-11.78 29.71 53.5 53.5 0 0 1-53.86 29.64A36.35 36.35 0 0 1 168.5 195c-4.02 0-7.88-.65-11.5-1.85v-12.54a56.03 56.03 0 0 0 31.8-45.74A12 12 0 0 0 199 123v-13a12 12 0 0 0-10-11.83V92a56 56 0 0 0-2.22-15.68l1.37 12.87-11.34-24-45.13-19.52-30.12 10.56-21.5 20.19-.04-2.6A55.93 55.93 0 0 0 77 92v6.17A12 12 0 0 0 67 110v13a12 12 0 0 0 10.2 11.87A56.03 56.03 0 0 0 109 180.6v10.94A36.36 36.36 0 0 1 93.5 195c-8.8 0-16.88-3.12-23.19-8.31a53.5 53.5 0 0 1-53.86-29.63 28.47 28.47 0 0 1-11.78-29.72A57.87 57.87 0 0 1 1 107a57.74 57.74 0 0 1 11.1-34.13 28.5 28.5 0 0 1 16-28.04 55.02 55.02 0 0 1 47.55-31.78 28.4 28.4 0 0 1 26.6-7.24A83.78 83.78 0 0 1 133 0a83.82 83.82 0 0 1 29.4 5.3 28.4 28.4 0 0 1 23.94 7.76 55.02 55.02 0 0 1 47.56 31.77A28.5 28.5 0 0 1 250 70.5Z" fill="__HAIR__"/><path d="M188.37 98.97c.41-2.55.63-5.16.63-7.82C189 62.35 163.7 39 132.5 39S76 62.35 76 91.15c0 2.66.22 5.27.63 7.82 4.1-25.09 27.55-44.32 55.87-44.32 28.32 0 51.78 19.23 55.87 44.32Z" fill="#92D9FF"/></svg>
