<svg xmlns="http://www.w3.org/2000/svg" viewBox="0 0 280 280"><path d="M188.32 138.76C227.9 129.26 255 109.87 255 87.5c0-23.5-29.92-43.72-72.8-52.63l-.31-1.43A40 40 0 0 0 142.82 2h-18.64a40 40 0 0 0-39.07 31.44l-.27 1.21C41.41 43.45 11 63.8 11 87.5c0 22.37 27.1 41.76 66.68 51.26-.2-1.28-.36-2.58-.47-3.9A12 12 0 0 1 67 123v-13a12 12 0 0 1 10-11.83V92c0-8 1.68-15.62 4.7-22.51 8.61-15.69 92.73-16.49 102.66.16A55.82 55.82 0 0 1 189 92v6.17A12 12 0 0 1 199 110v13a12 12 0 0 1-10.2 11.87 56.06 56.06 0 0 1-.48 3.9Z" fill="__HAT__"/><path d="M189 92.74c3.85-3.25 6-6.9 6-10.74 0-6.08-5.38-11.65-14.32-15.98 1.64 1.1 2.9 2.3 3.68 3.63A55.82 55.82 0 0 1 189 92v.74ZM157.26 58.99a144.36 144.36 0 0 0-24.26-2c-8.98 0-17.52.78-25.22 2.17 15.16-2.2 34.11-2.3 49.48-.17ZM84.69 66.33C76.12 70.62 71 76.07 71 82c0 3.85 2.15 7.49 6 10.74V92c0-8 1.68-15.62 4.7-22.51a9.94 9.94 0 0 1 2.99-3.16Z" fill="#000" fill-opacity=".5"/></svg>
