<svg xmlns="http://www.w3.org/2000/svg" viewBox="0 0 280 280"><path fill-rule="evenodd" clip-rule="evenodd" d="M66 77.34c-.66 3.79-1 7.68-1 11.66v48c0 .97.02 1.94.06 2.9L65 142c.14 3.68-1.86 11.8-4.34 21.9-3.88 15.77-8.94 36.4-8.94 52.55 0 13.01 1.98 22.84 3.89 32.3 1.97 9.78 3.86 19.16 3.39 31.25h47s-.95-13.2-2.47-26.36c10.05 10.2 22.82 16.84 39.05 16.84 70.55 0 77.62-53.83 77.62-65.24 0-6.04-4.32-10.88-8.39-15.44-3.6-4.05-7.02-7.87-7-12.1 0-4.35 1.02-7.39 2.07-10.52 1.12-3.33 2.27-6.75 2.27-11.96 0-5.82-1.43-7.5-2.9-9.25a10.7 10.7 0 0 1-2.8-5.62c-.88-4.54-1.86-14.32-2.45-20.77V89A68 68 0 0 0 66.04 77.08L66 77v.34ZM133 53c-30.1 0-55 24.4-55 54.5v23c0 30.1 24.9 54.5 55 54.5s55-24.4 55-54.5v-23c0-30.1-24.9-54.5-55-54.5Z" fill="__HAT__"/><path d="M193.93 104.96A61.4 61.4 0 0 0 195 93.5c0-33.97-27.76-61.5-62-61.5-34.24 0-62 27.53-62 61.5 0 3.92.37 7.75 1.07 11.46a61 61 0 0 1 121.86 0Z" fill="#fff" fill-opacity=".5"/><path d="M78.07 104.69c-.05.93-.07 1.87-.07 2.81v23c0 30.1 24.9 54.5 55 54.5s55-24.4 55-54.5v-23c0-.94-.02-1.88-.07-2.81.7 3.5 1.07 7.1 1.07 10.81v23a54.5 54.5 0 0 1-54.5 54.5h-3A54.5 54.5 0 0 1 77 138.5v-23c0-3.7.37-7.32 1.07-10.81ZM187.05 194.14c-4.39 6.9-17.9 13.66-34.65 16.62-16.74 2.95-31.75 1.22-38.23-3.76.02.26.05.52.1.78 1.7 9.69 19.42 14.67 39.57 11.12 20.15-3.56 35.1-14.3 33.38-23.99-.04-.26-.1-.51-.17-.77ZM198.66 209.49c-2.64 9.6-14.87 20.2-31.56 26.28-16.68 6.07-32.87 5.8-41.06.15.1.34.2.67.32 1 4.53 12.44 24.47 16.6 44.55 9.3 20.07-7.31 32.67-23.32 28.15-35.75-.12-.34-.26-.66-.4-.98Z" opacity=".9" fill="#000" fill-opacity=".16"/></svg>
