<svg xmlns="http://www.w3.org/2000/svg" viewBox="0 0 280 280"><path fill-rule="evenodd" clip-rule="evenodd" d="M180.15 39.92c-2.76-2.82-5.96-5.21-9.08-7.61-.69-.53-1.39-1.05-2.06-1.6-.15-.12-1.72-1.24-1.9-1.66-.45-.99-.19-.22-.12-1.4.08-1.5 3.13-5.73.85-6.7-1-.43-2.8.7-3.75 1.08a59.56 59.56 0 0 1-5.73 1.9c.93-1.85 2.7-5.57-.63-4.58-2.6.78-5.03 2.77-7.64 3.7.86-1.4 4.32-5.8 1.2-6.05-.98-.07-3.8 1.75-4.86 2.14a55.81 55.81 0 0 1-9.63 2.51c-11.2 2.02-24.3 1.45-34.65 6.54-8 3.93-15.88 10.03-20.5 17.8-4.44 7.48-6.1 15.67-7.03 24.25-.69 6.3-.74 12.8-.42 19.12.1 2.07.34 11.61 3.34 8.72 1.5-1.44 1.49-7.25 1.87-9.22.75-3.91 1.47-7.85 2.72-11.64 2.2-6.68 4.81-13.8 10.3-18.4 3.53-2.94 6.01-6.93 9.39-9.9 1.51-1.35.36-1.2 2.8-1.03 1.63.12 3.28.16 4.92.2 3.8.1 7.6.08 11.4.1 7.64 0 15.25.12 22.89-.28 3.4-.18 6.8-.28 10.18-.6 1.9-.17 5.25-1.38 6.8-.45 1.43.84 2.91 3.61 3.94 4.75 2.41 2.67 5.3 4.72 8.12 6.92 5.9 4.57 8.87 10.33 10.66 17.48 1.79 7.13 1.29 13.75 3.5 20.76.38 1.24 1.4 3.36 2.67 1.46.24-.36.18-2.3.18-3.42 0-4.52 1.14-7.91 1.13-12.46-.06-13.83-.5-31.87-10.85-42.44Z" fill="__HAIR__"/></svg>
