<svg xmlns="http://www.w3.org/2000/svg" viewBox="0 0 280 280"><path d="M157 180.61V199h4a71.7 71.7 0 0 1 46 16.6V92a74 74 0 0 0-148 0v183.72A28 28 0 0 0 83 248v-45.58a71.95 71.95 0 0 1 22-3.42h4v-18.39a56.24 56.24 0 0 1-26-25.36V93.27a150 150 0 0 0 28.34-12.77c15.4-8.9 28.1-19.56 36.73-30.1 1.76 5.2 4.1 10.4 7.04 15.48 8.78 15.2 21.12 26.35 33.9 32.04v.25c.4.06.8.15 1.18.26.77.32 1.55.62 2.33.9A12 12 0 0 1 199 110v13a12 12 0 0 1-10.22 11.87A56.03 56.03 0 0 1 157 180.6Z" fill="__HAIR__"/><path d="M157 199v-18.39a56.03 56.03 0 0 0 31.8-45.74A12 12 0 0 0 199 123v-13a12 12 0 0 0-6.5-10.66 44.57 44.57 0 0 0 14.5 2.8v113.47A71.7 71.7 0 0 0 161 199h-4ZM83 202.42v-47.17a56.24 56.24 0 0 0 26 25.36V199h-4c-7.67 0-15.07 1.2-22 3.42ZM189 97.92v.25c.4.06.8.15 1.18.26l-1.18-.51Z" fill="#000" fill-opacity=".27"/></svg>
