<?xml version="1.0" encoding="utf-8"?>
<svg xmlns="http://www.w3.org/2000/svg" viewBox="0 0 280 280">
  <path d="M 132 36 C 101.072 36 76 61.072 76 92 L 76 98.17 C 70.227 99.146 66.001 104.145 66 110 L 66 124 C 65.999 129.971 70.389 135.034 76.3 135.88 C 78.354 155.294 90.364 172.239 108 180.61 L 108 199.01 L 104 199.01 C 64.235 199.01 199.765 199.01 160 199.01 L 156 199.01 L 156 180.62 C 173.636 172.249 185.646 155.304 187.7 135.89 C 193.615 135.044 198.005 129.975 198 124 L 198 110 C 197.999 104.145 193.773 99.146 188 98.17 L 188 92 C 188 61.072 162.928 36 132 36 Z" fill="__SKIN__"/>
  <path d="M108 180.61v8a55.79 55.79 0 0 0 24 5.39c8.59 0 16.73-1.93 24-5.39v-8a55.79 55.79 0 0 1-24 5.39 55.79 55.79 0 0 1-24-5.39Z" fill="#000" fill-opacity=".1"/>
  <g transform="translate(0 170)"/>
  <g transform="translate(78 134)"/>
  <g transform="translate(104 122)"/>
  <g transform="translate(76 90)"/>
  <g transform="translate(76 82)"/>
  <g transform="translate(-1)"/>
  <g transform="translate(49 72)"/>
  <g transform="translate(62 42)"/>
</svg>