<svg xmlns="http://www.w3.org/2000/svg" viewBox="0 0 280 280"><path d="M132 36a56 56 0 0 0-56 56v6.17A12 12 0 0 0 66 110v14a12 12 0 0 0 10.3 11.88 56.04 56.04 0 0 0 31.7 44.73v18.4h-4a72 72 0 0 0-72 72v9h200v-9a72 72 0 0 0-72-72h-4v-18.39a56.04 56.04 0 0 0 31.7-44.73A12 12 0 0 0 198 124v-14a12 12 0 0 0-10-11.83V92a56 56 0 0 0-56-56Z" fill="__SKIN__"/><path d="M108 180.61v8a55.79 55.79 0 0 0 24 5.39c8.59 0 16.73-1.93 24-5.39v-8a55.79 55.79 0 0 1-24 5.39 55.79 55.79 0 0 1-24-5.39Z" fill="#000" fill-opacity=".1"/><g transform="translate(0 170)"></g><g transform="translate(78 134)"></g><g transform="translate(104 122)"></g><g transform="translate(76 90)"></g><g transform="translate(76 82)"></g><g transform="translate(-1)"></g><g transform="translate(49 72)"></g><g transform="translate(62 42)"></g></svg>
