<svg xmlns="http://www.w3.org/2000/svg" viewBox="0 0 280 280"><g fill-rule="evenodd" clip-rule="evenodd"><path d="M40 96a24 24 0 0 1-22.96-31H10.5a2.5 2.5 0 0 1 0-5h8c.23 0 .45.03.66.09a24 24 0 0 1 42.26 1.06A11.36 11.36 0 0 1 70.86 56c4.01 0 7.55 2.14 9.6 5.4a24 24 0 0 1 42.38-1.31c.2-.06.43-.1.66-.1h8a2.5 2.5 0 1 1 0 5h-6.54a24 24 0 1 1-46.6 2.83c-.08-4.37-3.45-7.83-7.5-7.83-3.73 0-6.89 2.94-7.42 6.83A24 24 0 0 1 40 96Zm0-4a20 20 0 1 0 0-40 20 20 0 0 0 0 40Zm82-20a20 20 0 1 1-40 0 20 20 0 0 1 40 0Z" fill="#000" fill-opacity=".1"/><path d="M40 94a24 24 0 0 1-22.96-31H10.5a2.5 2.5 0 0 1 0-5h8c.23 0 .45.03.66.09a24 24 0 0 1 42.26 1.06A11.36 11.36 0 0 1 70.86 54c4.01 0 7.55 2.14 9.6 5.4a24 24 0 0 1 42.38-1.31c.2-.06.43-.1.66-.1h8a2.5 2.5 0 1 1 0 5h-6.54a24 24 0 1 1-46.6 2.84c-.08-4.37-3.45-7.83-7.5-7.83-3.73 0-6.89 2.94-7.42 6.83A24 24 0 0 1 40 94Zm0-4a20 20 0 1 0 0-40 20 20 0 0 0 0 40Zm82-20a20 20 0 1 1-40 0 20 20 0 0 1 40 0Z" fill="__ACCESSORY__"/></g></svg>
