<svg xmlns="http://www.w3.org/2000/svg" viewBox="0 0 280 280"><path fill-rule="evenodd" clip-rule="evenodd" d="M34 30.4C35.14 19.9 38.24 11 54 11c15.76 0 18.92 8.96 20 19.5.08.84-.83 1.5-1.96 1.5-6.69 0-9.37-1.5-18.05-1.5-8.7 0-13.24 1.5-17.9 1.5-1.15 0-2.2-.55-2.1-1.6Z" fill="#000" fill-opacity=".7"/><path d="M67.86 15.1c-.8.57-1.8.9-2.86.9H44c-1.3 0-2.49-.5-3.38-1.31C43.56 12.38 47.8 11 54 11c6.54 0 10.9 1.54 13.86 4.1Z" fill="#fff"/><path d="M42 25a6 6 0 0 0-6 6v7a6 6 0 0 0 12 0v-2h.08a6 6 0 0 1 11.84 0H60a6 6 0 0 0 12 0v-5a6 6 0 0 0-6-6H42Z" fill="#7BB24B"/><path d="M72 31a6 6 0 0 0-6-6H42a6 6 0 0 0-6 6v6a6 6 0 0 0 12 0v-2h.08a6 6 0 0 1 11.84 0H60a6 6 0 0 0 12 0v-4Z" fill="#88C553"/></svg>
